<?xml version="1.0" encoding="utf-8"?>
<!-- Generator: Adobe Illustrator 17.1.0, SVG Export Plug-In . SVG Version: 6.00 Build 0)  -->
<!DOCTYPE svg PUBLIC "-//W3C//DTD SVG 1.1//EN" "http://www.w3.org/Graphics/SVG/1.1/DTD/svg11.dtd">
<svg version="1.1" xmlns="http://www.w3.org/2000/svg" xmlns:xlink="http://www.w3.org/1999/xlink" x="0px" y="0px"
   viewBox="0 0 800 800" enable-background="new 0 0 800 800" xml:space="preserve">
<g id="Saturn">
  <g>
    <g id="eVcAJt_1_">
      <g>
        <path fill="#D6A243" d="M235.3,565.2c-14.3-13.9-26.1-29.8-36.1-46.9c-4.7-8-9.1-16.1-12.3-24.8c24.4-12.3,46.5-28.3,68.9-43.8
          c12.4-8.6,25-16.9,37.6-25.3c17.5-11.6,35.3-22.9,52.7-34.8c12.1-8.4,24.2-17,36.1-25.6c12.3-8.9,24.4-18.2,36.6-27.4
          c14.2-10.8,28.5-21.6,42.6-32.4c15.8-12.1,31.7-24,47.1-36.5c5.8-4.7,11.4-9.7,16.9-14.8c7.9-7.4,15.7-14.9,22.6-23.3
          c1.7-2.1,3-4.2,2.1-7c3.4,1.4,5.6,4.3,8.2,6.7c23,21.2,41,46.1,54.1,74.5c0.6,1.3,0.9,2.6,1.4,4c1.1,1.9-0.2,3.1-1.4,4.3
          c-3.2,3.2-6.1,6.6-9.2,9.9c-11.2,12-22.6,23.8-34.5,35.1c-10.9,10.3-22.8,19.4-34.6,28.6c-6.6,5.1-13.2,10.1-19.6,15.5
          c-1.3,1.1-2.7,2.4-4.4,2.9c-2.2,0.2-4.1,1.1-6,2.2c-19.1,11.4-38.9,21.6-58.6,31.9c-11.7,6.1-23.3,12.4-35.1,18.5
          c-12.6,6.5-25.1,13.1-37.8,19.4c-18.7,9.4-37.1,19.4-55.1,30.2c-6.2,3.7-13,5.9-19.7,8.3c-11.4,4.2-22.3,9.6-32.8,15.8
          c-7.2,4.2-12.5,10-14.6,18.5C248.4,556.9,241.9,561.1,235.3,565.2z"/>
        <path fill="#BA9464" d="M453.6,627.9c-8.5,2.8-17.4,3.8-26.2,4.9c-14.3,1.8-28.7,1.9-43.1,0.9c-27.3-2-53.5-8.5-78.5-19.7
          c-7.9-3.5-15.7-7.5-23.1-11.9c-1-0.6-2.2-1-2.9-2c4.3-4.7,9.8-7.9,14.8-11.7c18.6-14.3,37.8-27.8,57.4-40.8
          c16.9-11.2,34-22,51.2-32.7c25.6-15.9,51.6-31.1,77.4-46.7c25.4-15.3,50.5-31.2,74.5-48.5c15.2-10.9,29.8-22.5,43.5-35.3
          c9.2-8.5,17.1-18.3,26.4-26.6c1.9-1.7,1.8-4.1,3.1-5.8c2.3,8,3.2,16.2,4.1,24.4c0.5,4.5,1.3,8.9,0.8,13.5
          c-8.5,8.1-16.9,16.4-25.7,24.2c-21.6,18.9-45.1,35.2-68.9,51c-15.8,10.5-32,20.3-48.2,30.1c-7,4.3-14.1,8.5-20,12.8
          c18-8.4,36.3-18.2,54.7-27.8c19.9-10.4,38.1-23.5,55.7-37.3c14.4-11.3,28.4-23.2,42.5-34.9c0.6-0.5,1.2-1.2,1.9-1.7
          c4.8-3.4,8.5-7.3,7.1-13.8c-0.1-0.7,0.2-1.4,0.8-1.9c1.1,6.5,0.6,13,0.3,19.5c-0.8,18-3.5,35.7-8.3,53.1
          c-1.4,5-2.5,10.2-4.9,14.8c-1.2-1.1-0.6-2.4-0.2-3.6c0.7-2.3,1.5-4.5,2-7.2c-1.7,1.2-2.8,2.5-4,3.7
          c-12.8,13.6-27.1,25.4-41.9,36.6c-18.9,14.4-37.7,29.1-56.9,43.1c-16.8,12.3-34.3,23.6-51.9,34.8c-15.8,10-31.5,20-47.2,30.3
          c-8,5.2-16.2,10-24,15.5c-0.5,0.4-1.3,0.5-1.5,1.5c8.5,0.5,16.8-0.1,25.2-0.8c10.1-0.8,20-2.6,30-4.4
          C451.2,627.1,452.5,626.7,453.6,627.9z"/>
        <path fill="#A27D4E" d="M481.6,182.4c6.1,1.5,11.4,4.6,17,7.3c2.8,1,2.2,2.6,0.8,4.3c-3.9,4.8-8,9.5-12,14.1
          c-8.5,9.8-17,19.5-25.6,29.2c-0.5,0.5-1,1-1.6,1.5c-6.1,4.8-10.7,11.1-16.1,16.6c-10.1,10.4-20.2,20.8-30.8,30.7
          c-17.6,16.3-38,28.6-57.9,41.6c-24.3,15.9-48.8,31.5-73.6,46.6c-13.8,8.4-28,16.3-42.3,23.9c-12.5,6.6-24.9,13.6-37.3,20.4
          c-9.1,5-18.1,10-27.5,14.5c-3.6,1.7-3.8,1.5-4.6-2.4c-1.1-5.4-1.3-10.8-1.6-16.2c-0.1-1.7,0.9-2.5,2.1-3.5
          c10.5-8.8,21.2-17.2,31.8-25.9c18.4-15.1,37.1-29.8,55.4-45c21.2-17.7,44.2-32.7,68.1-46.3c16.3-9.3,32.6-18.8,48.2-29.4
          c16.2-11,31.3-23.3,46.4-35.7c13.5-11.1,25.9-23.5,40.1-33.9c5.1-3.7,10.6-7,13.7-12.8c0.7-1.3,1.8-1.4,3.1-0.9
          C478.6,181.5,480.1,182,481.6,182.4z"/>
        <path fill="#C89440" d="M550,222.5c2.4,2.1,1.5,4.1-0.2,6c-6.2,7-12.1,14.3-19.3,20.4c-5.6,4.8-10.8,10-16.3,14.9
          c-8.9,7.8-18.5,14.8-27.7,22.2c-7,5.7-14.3,11-21.4,16.5c-11.9,9.4-24.2,18.3-36.3,27.4c-11,8.3-21.8,16.7-32.9,24.8
          c-16.3,12-32.7,23.9-49.3,35.4c-13.2,9.2-26.8,17.9-40.2,26.8c-16.3,10.8-32.8,21.4-48.8,32.5c-16.1,11.2-32.1,22.3-48.7,32.8
          c-6,3.8-12.4,7-18.6,10.5c-1.1,0.6-2.2,0.7-3.5,0.7c-4.6-9.9-8.2-20.1-10.8-30.7c-0.7-4.3-2-8.4-2.9-12.7
          c-0.8-3.8-0.5-4.6,3-6.1c23.8-10.1,46.9-21.6,70.2-32.7c27-12.9,53.4-26.8,79-42.2c14.8-8.9,29.2-18.4,43.7-27.9
          c14.6-9.6,29.2-19.3,43.6-29.2c22.5-15.4,44.9-31,65.8-48.6c12.4-10.4,24.1-21.6,33.4-35.1c4.5-6.4,7-13.8,9.8-21
          c1.4-3.6,1.9-3.9,5.3-2C534.9,210.9,542.8,216.2,550,222.5z"/>
        <path fill="#BA9464" d="M481.6,182.4c-4.8-2.1-7.2,0.2-9.9,4.2c-3.2,4.7-8.7,7.2-13.3,10.6c-7.7,5.8-14.8,12.2-22,18.6
          c-9,8-18.3,15.5-27.5,23.1c-13.2,10.9-26.8,21.2-41.2,30.4c-15.7,10-31.9,19.3-47.9,28.7c-17.5,10.3-34.7,21-50.5,33.8
          c-17.6,14.4-35.5,28.4-53.2,42.7c-13.7,11.1-27.3,22.4-40.9,33.6c-0.3,0.2-0.5,0.5-0.8,0.7c-5.6,2.5-6.2,7.2-5.4,12.4
          c0.5,3.3,1.1,6.5,1.3,9.8c0.2,2.3,1,2.6,2.9,1.6c7.1-3.7,14.2-7.3,21.2-11c9-4.8,17.9-9.9,26.8-14.8
          c18.7-10.3,37.6-20.2,56-31.1c21.9-13.1,43.3-27,64.8-40.7c19.3-12.3,38.7-24.6,57-38.3c5.8-4.3,11.3-9,16.5-14
          c12.2-11.8,24.1-23.9,35.7-36.3c2.7-2.9,4.7-6.6,8.6-8.2c1,1.6-0.3,2.4-1.1,3.4c-12.3,14.1-25.5,27.4-39,40.3
          c-11.2,10.7-23.4,20.3-36.2,29c-22.6,15.3-45.7,29.9-68.7,44.5c-23.6,15-47.6,29.4-72.4,42.5c-12.8,6.8-25.5,13.9-38.2,21
          c-3.3,1.8-6.7,3.3-9.9,5.4c-0.3,0.2-0.6,0.4-0.9,0.5c-6.6,3.1-12.7,7-19.3,10c-1.5,0.7-3.3,2.2-4.4-0.6
          c-1.1-6.4-2.1-12.8-1.8-19.3c-1.1-3.1,0.7-4.9,2.9-6.6c13.1-10.8,26.4-21.5,39.6-32.2c16.1-13,32.2-26,48.4-38.9
          c2.4-1.9,4.5-4.3,7-6.1c-23.7,14.5-47.5,28.8-71.4,43c-7.1,4.3-14.2,8.7-21.4,12.9c-1.6,0.9-3.3,2.4-4.9,0
          c-0.2-12.2,2.1-24,4.9-35.8c1.4,1.9,2.8,1.5,4.6,0.4c10.2-6.2,20.4-12.3,30.6-18.4c14.9-9,29.7-18,44.4-27.3
          c3.2-2,6-4.7,9.6-6.2c8.8-4.7,17.2-10.1,25.8-15.3c13.2-7.9,26.4-15.8,39.6-23.5c11.8-6.9,23.5-14.1,34.8-21.7
          c10.5-7.1,20.7-14.5,30.3-22.6c1.8-1.5,4-2.5,5.6-4.4c15.8-12,30.1-25.8,45.6-38.1c0.6-0.5,1.2-1.1,2.1-1.2
          c1.2,0.3,2.6-0.2,3.8,0.4C460.9,175,471.4,178.2,481.6,182.4z"/>
        <path fill="#CF9A5C" d="M204,418.4c7.2-4.1,14.4-8.3,21.7-12.2c28.4-15.3,56.7-30.8,83.8-48.5c15.7-10.2,31.8-19.9,47.5-30.1
          c16.6-10.8,33.5-21.3,48.6-34.1c15.1-12.7,29.1-26.6,42.3-41.3c3.3-3.6,6.6-7.1,9.9-10.7c0.9-0.9,2.1-1.6,2.1-3.2
          c7-8.1,14-16.1,20.9-24.2c6-7,12-14,18.1-20.9c1.4-1.6,0.8-2.5-0.4-3.5c4.8,1,8.7,4,12.9,6.2c5.4,2.8,10.9,5.5,15.6,9.5
          c-2.7-1.2-3.6-0.3-4.6,2.6c-3.9,11-8.9,21.4-16.9,30.2c-12.5,13.9-26.3,26.3-41.2,37.7c-18.3,13.9-37.1,27.2-56.1,40.2
          c-21,14.4-42.4,28.4-63.9,42.2c-16.8,10.8-33.9,21-51.6,30.3c-10.6,5.6-21.1,11.4-31.9,16.6c-24.6,11.8-49,24.3-74.1,35
          c-3.7,1.6-7.4,3.3-11.1,4.8c-2.2,0.9-2.6,2.3-2.2,4.5c0.8,4.4,2.7,8.6,2.6,13.2c-1.8-5.1-3.1-10.2-3.6-15.6
          c-0.5-1.6-0.3-3.3-0.5-4.9c-0.4-5.3,3.1-8,7.2-9.9c5.1-2.4,10-5.3,14.8-8.3l0,0C197.2,422,201,421,204,418.4z"/>
        <path fill="#A27E4E" d="M453.6,627.9c-5.2-0.2-10.1,1.5-15,2.4c-6.5,1.2-13.1,1.6-19.7,2.5c-8.1,1.1-16.4,0.8-24.6,0.8
          c-0.6,0-1.1-0.1-2.3-0.2c2.9-3,6-4.7,8.9-6.6c16.9-10.9,34-21.7,51-32.6c12.6-8.1,25.2-16.1,37.7-24.2
          c20.4-13.2,39.7-28,59-42.7c11.3-8.6,22.6-17.1,33.8-25.9c13.1-10.3,25.6-21.2,37-33.3c0.9-1,1.7-2.4,3.6-2.4
          c-0.1,4.3-2.6,8-2.9,12.2c-3.6,12-9,23.3-14.9,34.3c-21.1,38.7-50.7,69-88.8,91.1c-19.3,11.2-39.8,19.3-61.5,24.5
          C454.6,627.9,454.1,627.9,453.6,627.9z"/>
        <path fill="#C89340" d="M235.3,565.2c1-2.2,3.3-3,5-4.4c4.4-3.7,8.3-7.5,9.6-13.6c1.8-8.5,7.9-13.9,15.1-18
          c12.8-7.3,26-13.6,40.2-18.2c8.4-2.7,15.7-7.9,23.3-12.2c9.1-5.3,18.4-10.3,27.7-15.2c10.5-5.6,21-11,31.5-16.5
          c8.8-4.6,17.7-9.1,26.6-13.7c19.8-10.3,39.6-20.7,59.3-31.1c10.7-5.7,21.4-11.3,31.6-17.9c1.5-1,3.1-1.1,4.8-1
          c0.4,1.3-0.5,2-1.3,2.7c-10.9,9.6-21.7,19.2-32.9,28.5c-7,5.9-13.7,12.1-20.7,18.1c-1.1,0.9-2,2.2-3.6,1.9c-1.6-0.6-2.7,0.4-4,1
          c-12.9,7.1-24.4,16.1-36.4,24.5c-36.6,25.5-72.7,51.5-108.6,77.9c-10.7,7.9-21.7,15.4-32.5,23.8c12.7-7.3,24.8-14.7,37-22.1
          c16.9-10.3,33.8-20.5,50.3-31.5c5-3.3,9.8-6.7,14.7-10.1c1-0.7,2-1.9,3.5-1.2c0.7,1.8-1,2.4-1.7,3.5
          c-9.4,7.6-19.5,13.9-29.6,20.4c-19.2,12.3-38.8,24-58.2,36c-6.3,3.9-12.4,7.9-18.7,11.8c-1.2,0.7-2.4,1.7-3.9,0.6
          C253.1,582.3,243.9,574.1,235.3,565.2z"/>
        <path fill="#D6A243" d="M193.8,294c4.7-10.5,10.9-20.1,17.6-29.3c33.5-45.9,77.7-76,132.7-90.2c7.5-1.9,15-3.7,22.8-4.2
          c4.1-0.6,8.2-0.8,12.2-1.4l0,0c6.2-0.2,12.4-1.3,18.7-1c2.6,0.1,3.1,1,1.8,3.3c-1,1.6-2.2,3.1-3.5,4.5
          c-7.7,8.3-15.2,16.6-23.4,24.4c-7,6.6-13.4,13.8-20.8,20c-0.8,0.7-1.6,1.4-2.7,1.8c-6.7,1.7-13.1,4.5-19.3,7.4
          c-7.5,3.5-15.3,5.8-22.8,9.1c-11.7,5.2-23.6,10.3-35.2,15.7c-15.9,7.5-31.6,15.6-47.1,24c-8.7,4.7-17,10-25.9,14.5
          C197.5,293.2,195.9,294.7,193.8,294z"/>
        <path fill="#D6A243" d="M263.4,589.2c3.6-0.5,6-3.2,8.9-4.9c20.1-12.2,40-24.6,60-37c13-8.1,25.9-16.2,38.3-25.2
          c1-0.7,1.9-1.4,2.8-2.1c10.2-7.9,21.5-14,32.3-21c23.2-14.9,46.3-30.2,68.9-46c13.7-9.5,27.4-19.1,40.9-28.8
          c19.9-14.4,39.8-28.6,56.7-46.7c8.9-9.6,17.3-19.7,25.8-29.6c5.7-6.7,11.4-13.4,17.8-19.5c1.4-1.3,2.7-3.2,5.1-2.1
          c2,7.7,5.4,15,6.7,23c0.2,0.9,0.3,1.9,0.4,2.8c0.4,2.8-0.8,4.9-2.9,6.8c-6.4,6.1-12.2,12.7-18.4,18.9
          C592.2,392,576.6,405,560,417c-21.3,15.4-43.3,29.8-65.7,43.7c-23.9,14.8-48.3,28.9-72.2,43.5c-18.9,11.6-37.8,23.3-56.4,35.3
          c-22,14.3-43.5,29.2-64.6,44.8c-6.6,4.9-13,9.9-19.5,14.9c-0.5,0.4-1.3,0.6-1.9,0.9C273.8,597.1,268.5,593.4,263.4,589.2z"/>
        <path fill="#CF9A5B" d="M620.9,326.2c-4.9,1.3-7.4,5.5-10.5,8.8c-5.6,6.1-10.9,12.5-16.3,18.8c-9.5,11.1-18.7,22.4-29.4,32.4
          c-11.2,10.6-23.3,20.1-35.8,29.2c-23.5,17.1-47.3,33.7-71.2,50.3c-25.4,17.6-51.6,33.8-77.5,50.5c-2.2,1.4-4.5,2.5-6.8,3.8
          c0.7-1,1.4-1.9,2.1-2.9c-0.4-1.9,1.2-2.4,2.2-3.2c11.4-8.6,22.5-17.6,33.5-26.6c12.8-10.4,25.8-20.6,37.9-31.9
          c0.6-0.6,1.2-1.2,2.1-1.3c3.1-1,5-3.5,7.2-5.6c13.2-12.4,27.7-23.3,40.9-35.7c3.4-3.2,7.2-6.1,10.5-9.5
          c15.1-11.9,30.5-23.6,45.4-35.9c14.2-11.8,27.1-24.8,39.5-38.5c5.4-6,11.1-11.6,16.7-17.4c1.1-1.1,2.4-2,2.2-3.9
          C616.9,313.5,619.2,319.7,620.9,326.2z"/>
        <path fill="#CF9A5C" d="M349.1,221.1c8.9-7,16.5-15.6,24.6-23.5c3.5-3.4,6.9-6.8,10.2-10.3c4.8-5.2,9.6-10.5,14.3-15.8
          c0.7-0.8,1.6-1.7,1.2-2.8c-0.5-1-1.7-0.5-2.6-0.6c-5.9-0.3-11.8,1.3-17.7,0.6c3.8-1.3,7.7-1,11.6-1.1
          c19.4-0.7,38.7,0.7,57.7,4.8c0.6,0.1,1.1,0.4,1.6,0.6c-1.5,0-2.9,0-4.4,0c-2.8,0.2-5.4-0.7-8.1-1.1c-2.1-0.3-3.9-0.1-5.4,1.7
          c-10.7,13-21.8,25.6-33.1,38.1c-0.1,0.2,0,0.4,0.1,0.6c-5.2,4.8-10.9,9-16.5,13.3c-14.7,11.3-30.2,21.3-46,30.8
          c-15,9-30.2,17.9-45.3,26.8c-9.6,5.7-19.1,11.3-28.7,17c-0.3-2.1,1.4-2.8,2.7-3.7c10.6-8.1,21-16.5,30.4-26
          c6.1-5.5,12.7-10.3,18.9-15.7c6.4-5.6,12.8-11.3,19-17.2c4.6-4.3,8.9-9,12.8-14C347.2,222.7,348,221.7,349.1,221.1z"/>
        <path fill="#A37E4E" d="M178.2,331.9c1.9-8.4,5.7-16.2,8.7-24.3c13.1-7.1,25.5-15.4,38.7-22.3c12.4-6.4,24.8-12.6,37.4-18.7
          c12.1-5.9,24.4-11.3,36.9-16.4c6.3-2.6,12.4-5.5,18.8-7.7c1.1-0.4,2.3-0.8,3.5-0.9c2.3-0.2,3.1,0.8,2.2,3
          c-0.5,1.4-1.6,2.4-2.6,3.4c-9.4,9-19.6,17-30.5,24.1c-23.4,15.4-48.1,28.6-72.3,42.7c-11.9,7-24,13.7-35.8,20.8
          c-1.6,1-3.4,2.7-5.2,1.4C176,335.6,178.3,333.6,178.2,331.9z"/>
        <path fill="#D3A046" d="M633,390.5c-0.2,10.9-0.2,11-9.2,18.1c-11.8,9.3-23,19.3-34.8,28.7c-12.8,10.1-25.7,20.2-39.3,29.3
          c-10.5,7.1-21.8,13-33,18.9c-13.1,7-26.4,13.5-39.7,20.2c-3.2,1.6-6.6,2.9-9.9,4.4c-0.2-0.3-0.3-0.6-0.5-0.9
          c5.2-3.4,10.3-7,15.6-10.3c12.6-7.9,25.3-15.5,37.8-23.4c11.1-6.9,22-14.1,32.8-21.3c13.8-9.2,27.2-19,40.2-29.3
          c9.9-7.9,19.5-16.3,28.5-25.3c3.5-3.5,6.7-7.7,11.4-9.8C633,390,633,390.2,633,390.5z"/>
        <path fill="#CF9A5C" d="M168.3,387c1.4,1,2.7,0.5,4-0.3c18.4-11.2,36.7-22.7,55.4-33.6c12.3-7.1,24.1-15.1,36.6-22
          c1.1-0.6,2.1-1.7,4-0.9c-5.1,4.7-10.3,9-15.5,13.1c-10.8,8.5-21.4,17.2-32.1,25.9c-9.4,7.6-18.8,15.2-28.2,22.8
          c-7.5,6.1-15,12.3-22.6,18.4c-1.5,1.2-1.6,2.8-1.7,4.5c-1.2-6.7-0.5-13.4-0.6-20.2C167.6,392.1,167.4,389.5,168.3,387z"/>
        <path fill="#B78C4B" d="M178.2,331.9c0.6,1.6-1.6,3.8,0,4.6c1.7,0.9,3.4-1,5-1.9c15.7-9.1,31.4-18.1,47.1-27.3
          c13.9-8,27.8-15.9,41.5-24.1c9.5-5.7,18.9-11.4,27.7-18c7.7-5.7,15.5-11.4,22.1-18.4c1.6-1.7,1.6-1.7,2.2-4.3
          c-1.5-0.1-2.8,0.2-4.1,0.8c-8.2,3.3-16.5,6.6-24.7,10c-8.3,3.5-16.7,6.9-24.8,10.8c-13,6.2-25.8,12.6-38.6,19.2
          c-7.8,4-15.6,8.1-23,12.7c-5.1,3.2-10.4,6.2-15.5,9.4c-1.9,1.2-3.8,2.5-6.2,2.3c0.8-1.7,1.6-3.4,2.4-5.1
          c6.7-5.2,14.2-9.1,21.5-13.3c14.2-8.2,28.8-15.7,43.6-22.9c22-10.6,44.2-20.6,67.1-29.1c2.6-1,5.1-2,7.6-3.1
          c1.2-0.5,2.5-0.9,3.8-0.9c1.1,0,2.2,0,2.8,1.1c0.7,1.2-0.1,2-0.9,2.8c-0.3,0.4-0.6,0.8-0.8,1.2c-5.3,6.1-11.6,11-17.6,16.4
          c-6.5,5.8-13.5,11-20.3,16.5c-9,7.3-19.2,12.7-29.1,18.7c-14.2,8.6-28.6,16.9-43,25.3c-14.8,8.6-29.7,17-44.4,25.8
          c-1.3,0.8-2.6,1.8-4.3,1.1C175.8,338.4,176.8,335.1,178.2,331.9z"/>
        <path fill="#C79341" d="M175.4,341.9c7.7-3.5,14.6-8.3,21.9-12.4c13.9-7.9,27.8-15.8,41.6-24c18.7-11.1,37.6-21.7,55.7-33.7
          c0.5-0.3,1.1-0.4,1.6-0.6c-5,6.1-11.5,10.6-17.2,15.8c-5.2,4.8-11.4,8.4-16.4,13.5c-10.4,6.6-20.7,13.4-31.2,19.8
          c-18.2,11.1-36.6,22-54.9,33c-2.8,1.7-3.3,0.2-3.3-2.2c0,0,0,0,0,0c0.7-2.1,0.8-4.4,1.4-6.5
          C174.7,343.7,174.6,342.7,175.4,341.9z"/>
        <path fill="#BC9048" d="M334.1,238.2c0.1-0.5,0.2-0.9,0.4-1.3c0.5-0.8,1.4-1.6,0.6-2.5c-0.7-0.8-1.9-0.6-2.7-0.3
          c-2.7,0.9-5.3,2-8,3c-28.5,10.8-56.3,23.1-83.3,37c-15.8,8.1-31.5,16.5-46.5,26c-1.6,1-3.4,1.6-5.2,2.4c1.3-2.9,2.4-6,4.5-8.5
          c10.7-4.8,20.5-11.4,30.9-16.9c16.2-8.6,32.4-17.1,49-24.8c6.8-3.1,13.7-6,20.4-9.2c13.7-6.6,28-11.6,42-17.4
          c4.3-1.8,8.3-4.2,13-4.7C345.1,227.6,340,233.2,334.1,238.2z"/>
        <path fill="#CF9A5C" d="M194,424.1c-3.9,4-8.8,6.5-13.8,8.5c-4.3,1.7-7.2,5.7-7.6,11.3c-0.1,1.1-0.1,2.1-0.1,3.2
          c-1.4-4.2-1.9-8.6-2.4-12.9c1.2,1.5,2.5,0.7,3.7,0c5.6-3,11.3-5.9,17-8.8C191.8,424.9,192.9,424.5,194,424.1z"/>
        <path fill="#CF9A5C" d="M379.1,168.8c-4,1.1-8.1,1.7-12.2,1.4C370.9,169,375,168.7,379.1,168.8z"/>
        <path fill="#BA9464" d="M174.6,344.7c0.2,2.3-0.1,4.5-1.4,6.5C173.2,348.9,173.4,346.7,174.6,344.7z"/>
        <path fill="#A88352" d="M414,585.5c-0.9,3.2-3,4-4.7,5.1c-14.8,9.8-29.8,19.4-45,28.7c-4,2.5-8.2,4.8-12.1,7.5
          c-3,2.1-5.6,0.4-8-0.7c-1.5-0.7,0.4-1.9,1.2-2.4c4.6-3.1,9.3-6.2,14-9.1c14.8-9.1,29.8-17.8,45.4-25.3
          C407.7,587.9,410.6,586.9,414,585.5z"/>
        <path fill="#C99546" d="M399.2,212.5c-0.8-2.6,1.5-3.7,2.7-5.1c10.4-11.4,20.3-23.1,30.1-35c0.9-1.1,1.7-1.5,3-1.4
          c3.6,0.3,7.3,0.5,10.6,2.1c-2.8,4-7.1,6.2-10.6,9.4c-6.1,5.6-12.5,10.8-18.8,16.1C410.7,203.4,405.2,208.3,399.2,212.5z"/>
        <path fill="#CF9A5C" d="M204,418.4c-2.6,3.2-6.4,4.2-10,5.7C196.8,421.3,200.6,420.2,204,418.4z"/>
        <path fill="#A8814D" d="M451.4,454.1c-4.5,5.4-10.1,9.6-15.5,14.1c-9.9,8.4-20,16.6-30.2,24.7c-9.2,7.4-18.6,14.6-27.9,21.9
          c-0.9,0.7-1.7,1.2-2.2,2.2c-6.4,3.6-12.1,8.2-18.3,12.2c-21,13.8-42.6,26.8-64.1,39.7c-6.6,4-13.2,8-19.8,11.9
          c-1.6,1-3.3,1.7-5.3,2.8c-0.3-2,1.1-2.4,2-3.2c10.9-8,21.8-15.9,32.7-23.9c14.8-10.8,29.6-21.8,44.5-32.5
          c20-14.4,40-28.8,60.3-42.8c13.3-9.2,26.1-19.4,40.5-27C449,453.7,450.2,451.9,451.4,454.1z"/>
        <path fill="#AF864B" d="M294.8,518.8c0.1,0,0.8,0.2,1.1,0.9c0.5,0.9-0.1,1.5-0.6,2.2c-2.7,3.2-6.1,5.6-9.5,8
          c-7.5,5.4-14.6,11.3-22.7,15.8c-0.6,0.4-1.3,0.7-1.9,0.9c-1,0.4-2.2,0.7-3,0c-0.9-0.8-0.6-2-0.2-3c2-5.5,5.5-10,10.3-13.2
          c7.3-4.9,15.1-9,23.7-11.2C292.7,519.1,293.4,519.1,294.8,518.8z"/>
      </g>
    </g>
    <path fill="#998576" d="M791.9,85.2c-16.8-21-119.6,31.7-255.1,126c9.8,7.1,19,15,27.6,23.6c80.4-57.1,103.4-62.3,110-54.1
      c11,13.7-35,66.7-254.6,244C204,598.8,138.4,632.9,127.4,619.2c-6.6-8.3,2.5-28.4,75.7-94.5c-6.5-10.2-12.2-20.9-17-32
      C64.7,604.5-8.9,693.4,7.9,714.4c23.7,29.6,233.3-75,449.8-248.8S815.6,114.8,791.9,85.2z"/>
  </g>
</g>
</svg>
