<?xml version="1.0" encoding="utf-8"?>
<!DOCTYPE svg PUBLIC "-//W3C//DTD SVG 1.1//EN" "http://www.w3.org/Graphics/SVG/1.1/DTD/svg11.dtd">
<svg version="1.1" xmlns="http://www.w3.org/2000/svg" xmlns:xlink="http://www.w3.org/1999/xlink" x="0px" y="0px"
   viewBox="0 0 800 800" enable-background="new 0 0 800 800" xml:space="preserve">
   <g id="Jupiter">
     <g>
       <path fill="none" d="M78.1,449C78,449,78,449.1,78.1,449L78.1,449l-0.1,0c-0.3-1-0.6-3-0.8-4.5c1.1,7.8,2.4,15.6,4,23.2
         C79.8,461.6,78.8,455.3,78.1,449C78.1,449,78.1,449,78.1,449z"/>
       <path fill="none" d="M92.8,509.2c3.6,10,7.6,19.8,12.1,29.3c-4-8.6-7.6-17.5-10.8-26.5C93.6,511.1,93.1,510.2,92.8,509.2z"/>
       <path fill="none" d="M74.9,378.9C74.9,378.9,74.9,378.9,74.9,378.9c0.2-3.6,0.4-7.2,0.7-10.8c-0.3,3.6-0.6,7.1-0.9,10.7
         C74.8,378.9,74.8,378.9,74.9,378.9L74.9,378.9z"/>
       <path fill="none" d="M92,506L92,506c-3-8.2-5.6-16.5-7.8-24.9c2.4,9.2,5.1,18.3,8.3,27.1C92.2,507.5,92,506.8,92,506L92,506z"/>
       <path fill="none" d="M108.6,546.3c-1-2-2-4-3-6C106.6,542.3,107.6,544.3,108.6,546.3z"/>
       <path fill="none" d="M725.2,376.9c-0.1-1.6-0.2-3.2-0.4-4.8C724.9,373.7,725,375.3,725.2,376.9
         C725.2,376.9,725.2,376.9,725.2,376.9z"/>
       <path fill="none" d="M79,346c0,0,0-0.1,0-0.1c2-15.1,5.9-29.7,10.2-44.2c-5.3,16.9-9.4,34.5-11.9,52.5C77.7,351.4,78.3,349,79,346
         L79,346z"/>
       <path fill="none" d="M113.9,243.8c0-0.1,0-0.1,0-0.2c-0.5,0.9-1,1.8-1.5,2.7C112.9,245.5,113.4,244.7,113.9,243.8L113.9,243.8z"/>
       <path fill="none" d="M75.9,435c-0.2-1.6-0.3-3.2-0.5-4.8C75.6,431.8,75.7,433.4,75.9,435z"/>
       <path fill="none" d="M91.5,294.8L91.5,294.8c2.3-6.2,4.6-12.3,6.8-18.5c-2.7,6.6-5.2,13.4-7.5,20.2
         C91,295.9,91.2,295.3,91.5,294.8L91.5,294.8z"/>
       <path fill="none" d="M104.1,263c-0.8,1.7-1.6,3.5-2.4,5.3c0.3-0.6,0.7-1.1,1.1-1.6C103.2,265.4,103.6,264.2,104.1,263z"/>
       <path fill="none" d="M663.8,591.5c2.9-4,5.8-8.1,8.5-12.3c-2.5,3.6-5,7.2-7.6,10.7C664.4,590.5,664.1,591,663.8,591.5z"/>
       <path fill="none" d="M709.3,502.1L709.3,502.1c-0.3,2.5-1.2,4.7-2.3,6.9l0,0h0c-0.4,1-0.7,2-1.1,3.1l0,0l0,0
         c-2.8,7.8-5.8,15.5-9.2,23.1c8.4-18.5,15.2-37.9,20.1-58.1C714.8,485.5,712.3,493.8,709.3,502.1
         C709.3,502.1,709.3,502.1,709.3,502.1z"/>
       <path fill="none" d="M637.4,623.2L637.4,623.2L637.4,623.2L637.4,623.2c-1.4,1.3-2.9,2.6-4.3,3.9v0c-2.3,2.5-4.7,5-7,7.4
         c0,0.1,0.1,0.2,0.1,0.3c5.8-5.6,11.3-11.3,16.7-17.3C641.1,619.4,639.2,621.3,637.4,623.2L637.4,623.2z"/>
       <path fill="none" d="M659.9,596c-1.6,2.5-3.2,4.9-5,7.2c2.6-3.3,5.1-6.6,7.6-9.9C661.7,594.2,660.8,595.1,659.9,596z"/>
       <path fill="none" d="M682.2,563.3c3.8-6.5,7.3-13.1,10.6-19.8c-1.5,2.9-3.1,5.9-4.7,8.7C686.2,555.9,684.3,559.6,682.2,563.3z"/>
       <path fill="none" d="M724,436.3c0.4-3.3,0.7-6.6,1-9.9c-0.3,2.6-0.7,5.1-1,7.7C724,434.8,724,435.5,724,436.3z"/>
       <path fill="none" d="M723.2,441.2L723.2,441.2c0,0.7,0,1.5-0.1,2.2c0.1-1.1,0.3-2.2,0.4-3.3C723.4,440.5,723.3,440.8,723.2,441.2
         L723.2,441.2z"/>
       <path fill="none" d="M718.8,468.5c1.5-7.1,2.8-14.2,3.8-21.5c-0.1,0.3-0.2,0.7-0.4,1C721.3,454.9,720.2,461.7,718.8,468.5z"/>
       <path fill="none" d="M122.7,571.1c-0.2-0.4-0.5-0.7-0.7-1.1l0,0c-0.7-1.3-1.5-2.6-2.2-3.8c0,0,0,0,0,0c0,0,0,0,0,0
         c-3.9-6.4-7.6-13-11-19.6c6.3,12.5,13.4,24.5,21.2,36C127.4,578.9,125,575,122.7,571.1L122.7,571.1z"/>
       <path fill="none" d="M157.4,617.7c2.3,2.6,4.7,5.1,7,7.6c-0.6-0.7-1.2-1.4-1.7-2.2C160.8,621.4,159.1,619.5,157.4,617.7z"/>
       <path fill="none" d="M168.9,629.9c1.3,1.3,2.6,2.5,3.8,3.8c-0.2-0.3-0.4-0.5-0.5-0.8C171.1,631.9,170,630.9,168.9,629.9z"/>
       <path fill="none" d="M206.8,662.3c-0.2,0-0.4-0.1-0.6-0.1c1.7,1.2,3.3,2.4,5,3.6c-0.1-0.1-0.2-0.3-0.3-0.4
         C209.5,664.3,208.2,663.3,206.8,662.3z"/>
       <path fill="none" d="M132.4,586.2c2,2.9,4,5.7,6.1,8.5c-0.3-0.5-0.5-1-0.8-1.5C135.8,590.9,134.1,588.6,132.4,586.2z"/>
       <path fill="none" d="M141.3,598.4c1.7,2.2,3.4,4.3,5.1,6.5c-1.5-1.9-3-3.8-4.4-5.8C141.7,598.8,141.5,598.6,141.3,598.4z"/>
       <path fill="none" d="M204.6,661c0.1,0.1,0.3,0.2,0.4,0.3c0,0,0-0.1-0.1-0.1C204.8,661.1,204.7,661,204.6,661z"/>
       <path fill="none" d="M178.7,639.4c1.7,1.6,3.4,3.1,5.1,4.6c-1-0.9-2-1.9-3-2.9C180.2,640.5,179.4,639.9,178.7,639.4z"/>
       <path fill="none" d="M192.9,651.8c1.5,1.3,3.1,2.5,4.7,3.8c-0.2-0.2-0.4-0.4-0.6-0.5C195.6,653.9,194.2,652.8,192.9,651.8z"/>
       <path fill="none" d="M718.6,469.2c-0.4,1.9-0.8,3.7-1.2,5.6C717.8,472.9,718.2,471,718.6,469.2z"/>
       <path fill="none" d="M655.1,198L655.1,198c1.2,0.2,1.2,1.4,1.8,2.1c1.8,1.9,3.4,3.9,5.1,5.9c-2.6-3.5-5.2-6.9-7.9-10.2
         C654.5,196.5,654.8,197.2,655.1,198L655.1,198z"/>
       <path fill="none" d="M119.9,233.8c0.9-1.8,1.8-3.5,2.8-5.2c-2.6,4.2-5.1,8.4-7.5,12.7c0.1-0.1,0.2-0.2,0.3-0.3
         C117,238.5,118.4,236.2,119.9,233.8z"/>
       <path fill="none" d="M721.8,347.5c-0.9-5.4-1.9-10.8-3-16.2c1,4.8,1.8,9.7,2.4,14.6C721.4,346.3,721.6,346.9,721.8,347.5z"/>
       <path fill="none" d="M165.1,174.1c0,0,0-0.1,0-0.1c-1.3,1.3-2.5,2.7-3.8,4C162.6,176.7,163.9,175.4,165.1,174.1
         C165.2,174.1,165.2,174.1,165.1,174.1z"/>
       <path fill="none" d="M722.9,357c0.3,1.6,0.6,3.2,0.9,4.8c-0.5-4.1-1-8.2-1.7-12.3C722.3,352,722,354.6,722.9,357L722.9,357z"/>
       <path fill="none" d="M652.1,193.3c-0.1-0.1-0.2-0.2-0.3-0.3c0,0,0,0.1,0,0.1C651.9,193.1,652,193.2,652.1,193.3z"/>
       <path fill="none" d="M153.8,186.3c-1.5,1.8-3,3.5-4.5,5.3c0.1,0,0.1,0,0.2,0C150.9,189.8,152.4,188,153.8,186.3z"/>
       <path fill="none" d="M699.9,273c0.4,1,0.8,1.9,1.3,2.9l0,0c0.7,1.2,1.3,2.4,1.9,3.7c-2.3-5.9-4.9-11.7-7.5-17.4
         C697.1,265.8,698.6,269.4,699.9,273L699.9,273z"/>
       <path fill="none" d="M265,237C265,237,265,237,265,237C265,237,265,237,265,237C265,237,265,237,265,237z"/>
       <path fill="none" d="M705.9,288c0.7,2,2.1,3.8,2.1,6c1.8,4.2,3.3,8.4,4.1,12.9c1.6,4.7,3,9.4,4.3,14.2c-3.1-12.7-7-25-11.6-37
         C705.2,285.4,705.6,286.7,705.9,288L705.9,288z"/>
       <path fill="none" d="M686.7,244.7c-4.2-7.8-8.8-15.4-13.6-22.8c1.8,2.9,3.6,5.8,5.3,8.6C681.2,235.2,684,239.9,686.7,244.7z"/>
       <path fill="none" d="M129.4,218.1c-0.8,1.2-1.6,2.4-2.4,3.7c0.8-1.2,1.6-2.3,2.5-3.5C129.4,218.3,129.4,218.2,129.4,218.1z"/>
       <path fill="#9E7750" d="M130.8,216.6c0.5,1.9,1.6,3.5,3.5,3.9c7.9,1.7,15.7,4.8,23.9,4.5c12.2-0.5,24.2,1.9,36.4,2.2
         c2,0.1,4.2,0.3,5.8,1.3c9.5,5.7,18.8,2.4,27.9-0.5c5.4-1.8,9.8-2.5,13.4,3c1.6,2.4,4.6,2.6,7.3,2.1c1.6-0.3,3.2-1.1,4.8-1.4
         c8.3-1.4,16.5-2.6,21.1-11.4c1.5-2.7,5.6-2.7,8.7-3.1c5.5-0.6,10.9-0.9,16.4-1.3c-3.9-0.8-7.8-1.6-11.7-2.4
         c-2.2-0.5-4-1.5-4.8-3.9c-0.5-1.7-0.5-3.5,0.8-4.7c1.8-1.8,2.5,0.5,3.5,1.3c2.4,2,4.2,1.6,5.4-1.3c1.4-3.3,3.9-6.4,1.2-10.3
         c-1-1.4-2.1-2.6-4-2.5c-1.7,0.1-2.5,1.4-3.1,2.9c-0.5,1.3-0.2,3.4-2.1,3.5c-1.8,0.1-2.1-1.9-2.8-3.1c-0.8-1.6-1.6-3.1-3.7-2.5
         c-1.9,0.5-2.5,2-2.4,3.9c0.1,1.5,0.4,3.2-1.6,3.7c-2,0.5-3.1-0.7-4-2.2c-0.6-1.1-0.9-2.8-2.6-2.6c-1.9,0.2-1.9,2.1-2.2,3.5
         c-0.4,1.7-1.4,2.9-3.1,2.5c-3.1-0.7-6-1.9-9.2-0.2c-0.9,0.5-2-0.7-1.7-1.8c2.6-7.6,2.8-16.2,9.1-22.4c2.8-2.8,5.8-4.7,9.8-5.5
         c6.2-1.2,12.4-2.6,18.4-4.7c5.6-1.9,6-5.9,1.4-9.6c-2.2-1.8-4.5-3.4-6.6-5.3c-2.8-2.6-6.5-2.9-9.7-0.8c-4.2,2.7-8,2.5-11.9-0.5
         c-1.9-1.5-4.2-1.8-6.6-1.9c-1.4,0-3.4,0.6-3.8-1.4c-0.3-1.7,1.7-2.3,2.9-3.1c8.7-5.7,18.6-8.8,28.2-12.5
         c19-7.5,39.5-9.2,58.7-16.1c7.9-2.9,16.6-2.2,25.1-0.3c22.5,5.2,45.4,8.5,68.2,12.5c13.2,2.3,26,6,37.9,12.1
         c8.5,4.3,15.2,11.2,22.6,17.1c3.3,2.7,2.4,5.7,0.3,8.9c-1.4,2.1-4.6,3.5-3.2,6.8c1.7,3.8,4.6,6.7,8.6,7.8
         c9.2,2.4,17.8,6.4,26.8,9.3c2,0.7,2.4,1.6,1,3.2c-1.1,1.3-2.2,2.5-3.2,3.8l0,0c13.8-2.6,27.8-1.9,41.6-2.9
         c9.8-0.7,19.6,0,29.2,2.4c4.1,1,8.2,0.5,12.3-0.2c10-1.6,20-2.5,30.2-1.8c4,0.3,8-0.1,11.5-2.2c0.3,0.2,0.6,0.5,0.9,0.7
         c0,0,0-0.1,0-0.1C596.6,125.9,515.1,81.3,423.1,74.8c0,0,0,0,0,0c-3.1,0.3-6.2,0.4-9.2-0.5c-4.6-0.2-9.2-0.3-13.9-0.3
         c-4.3,0-8.5,0.1-12.8,0.3c-3.1,1-6.2,0.9-9.4,0.6c0,0,0,0,0-0.1c-83.4,5.6-158.2,42.6-212.8,99.2c0,0,0,0.1,0,0.1c0,0,0,0,0,0
         c0.1-0.1,0.2-0.2,0.3-0.3c7.2-3.2,14.8-4.4,22.7-4.2c1,0,2-0.4,2.9-0.2c2.3,0.6,5.1,1.4,5.1,4c0,2.5-3,3.5-4.9,3.2
         c-13.4-2.3-19.7,8.4-27.5,15.5c-7.9,7.1-7.3,7.8-15.2,0.6c0.3-0.4,0.6-0.8,0.9-1.2c-0.1,0-0.1,0-0.2,0
         c-7.1,8.5-13.7,17.4-19.9,26.6c0,0.1,0,0.1,0.1,0.2C129.9,217.7,130.4,217.2,130.8,216.6z"/>
       <path fill="#9C7752" d="M625,635.7c-1.4-2-3.5-1.9-5.4-1.5c-6.3,1.1-12.7-0.3-18.8,0.3c-11.9,1.1-23.5-1.9-35.3-1.5
         c-9.5,0.3-18.6-1-26.5-6.9c-3.5-2.6-7-1.6-10.3,0.2c-14.6,8-30.2,13.1-46.4,16.5c-16,3.3-32.2,5.2-48.4,6.3
         c-20.1,1.3-40.1,3.1-60.2,3.7c-19.6,0.6-39.3,1.7-58.8-2.1c-9.8-1.9-19.2,0.4-28.7,2.4c-17.3,3.6-34.5,7.5-51.7,11.4
         c-4.1,0.9-8.3,0.3-12.4,0.7c-2.6,0.3-5.4,0.2-7,3c-0.4-0.1-0.7-0.2-1-0.4C266.7,704.4,330.8,726,400,726
         c87.9,0,167.6-34.8,226.2-91.3c0-0.1-0.1-0.2-0.1-0.3C625.7,634.9,625.3,635.3,625,635.7z"/>
       <path fill="#AFA192" d="M77.7,449c0.1,0,0.3-0.6,0.3-0.9V448h0.3c0-1-0.1-1.3-0.1-2c0,0,0,0,0,0c3.5-6.2,9.9-6.5,15.8-7
         c7.4-0.5,15,0.8,22-2.1v0c3-2.3,6.9-4.7,10.4-6.8c6.5-4,13.5-1.9,19.8,0c6.8,2.1,13.2,3,19.9,0.4c1.4-0.5,3.2-0.9,4.4,0
         c5.5,4.2,12.9,3.2,18.4,6.6c10.7,6.4,24.7-2.5,25.7-13.3c0.6-6.6,3.7-8.6,9.3-9.3c1.8-0.2,3.5-1,5.2-1.5c5-2.9,11.1-2.9,16-6
         c-3.5,0.5-7.1,0.4-10.3,1.5c-9.8,3.3-20.1,1.8-30.1,4.2c-5.4,1.3-10.8-1.8-15.9-3.7c-11-4.1-22-2.7-32.9-1.5
         c-8.8,1-16.2,0.1-22-7.1c-1.2-1.6-2.7-2.9-4.8-3.4l0,0c-1.3,1-2.5,2.1-3.8,3.1c-2.3,1.7-4.7,2.4-7.3,0.6c-2.6-1.7-3-4.1-2-6.9
         c0.5-1.5,0.8-3.2,1.1-4.8c-13.3-2.4-25.7,1.6-38.1,5.3c-1.5,0.5-3.2,0.4-4.9,0.6c0,1.7-0.1,3.3-0.1,5c0,10.2,0.5,20.2,1.4,30.2
         c0.2,1.6,0.3,3.2,0.5,4.8c0.3,3.2,0.7,6.4,1.2,9.5C77.3,446,77.5,448,77.7,449L77.7,449z"/>
       <path fill="#AFA192" d="M78,449C78,449,78,449,78,449C78,449,78,449,78,449L78,449z"/>
       <path fill="#A8A5A3" d="M725,386C725,386,725,386,725,386C725,386,725,386,725,386c-11.8-1.1-23.6-1.8-35.3-3.3
         c-11.9-1.6-23.6-0.3-35.3,0.8c-7.9,0.8-16,0-23.8,2.3c-10.2,3-14.8,9.5-13.5,20.1c0.8,6.3,4.2,10.2,10.3,12.1
         c9.7,3,19.8,2.1,29.7,3c8.8,0.8,17.6-0.4,26.4,0.9c6.5,1,12.8,3,18.4,6c7,3.8,14.6,4.4,21.9,6.2v0c0.3-2.6,0.7-5.1,1-7.7
         c0.7-8.7,1.1-17.5,1.1-26.4c0-4.5-0.1-8.9-0.3-13.3C725.5,386.5,725.3,386.2,725,386z"/>
       <path fill="#AA8D70" d="M117,389.1C117,389.1,117,389.1,117,389.1c5.4-2.2,11.3-3.3,16-7c-12.9,5.6-27.1,1-40.2,4.9
         c-4.1,1.2-8.4,1.9-12.6,2.9c-1.8,0.4-3.2,1.4-5.2,0.1c0,0,0,0.1,0,0.1h0c-0.3,0-0.5,0-0.8,0c-0.1,1.7-0.1,3.3-0.1,5
         c1.6-0.2,3.3-0.2,4.9-0.6C91.4,390.7,103.7,386.6,117,389.1z"/>
       <path fill="#AFA192" d="M74.9,389.9c0.1-1.4,0.2-2.7,0.2-4.1c-0.1-2.3-0.2-4.6-0.3-6.9l0,0c-0.1,0-0.1,0-0.2-0.1
         c-0.2,3.7-0.4,7.4-0.5,11.1C74.4,390,74.7,389.9,74.9,389.9C74.9,389.9,74.9,389.9,74.9,389.9z"/>
       <path fill="#D8D0C8" d="M725,386C725,386,725,386,725,386c0.2,0.2,0.4,0.5,0.7,0.7c-0.1-3.3-0.3-6.5-0.5-9.8c0,0,0,0,0,0
         C725.1,379.9,725.1,383,725,386z"/>
       <path fill="#D3BCA5" d="M423.1,74.9C423.1,74.8,423.1,74.8,423.1,74.9c-3.1-0.2-6.1-0.4-9.2-0.5C416.9,75.3,420,75.1,423.1,74.9z"
         />
       <path fill="#CEB499" d="M387.2,74.3c-3.1,0.1-6.3,0.3-9.4,0.5c0,0,0,0,0,0.1C381,75.1,384.2,75.3,387.2,74.3z"/>
       <path fill="#A87744" d="M408.5,201c20.2,0.7,39.7-3.8,59.3-7.5c5.4-1,10.7-1,15.3,2.5c10.8,8.5,22.4,10.3,35.1,4.7
         c0.9-0.4,1.9-0.5,2.9-0.8l0,0c1.7-1,3.3-2,5-3l0,0l0,0c1.1-1.3,2.2-2.5,3.2-3.8c1.4-1.6,1-2.5-1-3.2c-9-2.9-17.6-6.8-26.8-9.3
         c-4.1-1.1-6.9-4-8.6-7.8c-1.5-3.2,1.8-4.7,3.2-6.8c2.1-3.1,3-6.2-0.3-8.9c-7.3-6-14.1-12.8-22.6-17.1
         c-11.9-6.1-24.8-9.7-37.9-12.1c-22.8-4-45.7-7.3-68.2-12.5c-8.6-2-17.2-2.6-25.1,0.3c-19.2,7-39.7,8.7-58.7,16.1
         c-9.6,3.8-19.5,6.8-28.2,12.5c-1.2,0.8-3.2,1.3-2.9,3.1c0.3,2,2.4,1.4,3.8,1.4c2.4,0.1,4.8,0.4,6.6,1.9c3.9,3.1,7.7,3.2,11.9,0.5
         c3.3-2.1,6.9-1.7,9.7,0.8c2.1,1.9,4.4,3.6,6.6,5.3c4.6,3.7,4.1,7.7-1.4,9.6c-6,2-12.2,3.4-18.4,4.7c-4,0.8-7,2.7-9.8,5.5
         c-6.3,6.2-6.5,14.7-9.1,22.4c-0.4,1.1,0.7,2.3,1.7,1.8c3.2-1.6,6.1-0.4,9.2,0.2c1.7,0.4,2.7-0.8,3.1-2.5c0.3-1.4,0.3-3.2,2.2-3.5
         c1.7-0.2,2,1.5,2.6,2.6c0.9,1.5,2,2.8,4,2.2c2-0.5,1.7-2.2,1.6-3.7c-0.2-1.9,0.5-3.3,2.4-3.9c2.1-0.6,2.9,0.9,3.7,2.5
         c0.6,1.3,1,3.2,2.8,3.1c1.9-0.1,1.6-2.2,2.1-3.5c0.6-1.5,1.3-2.7,3.1-2.9c1.9-0.2,3,1,4,2.5c2.7,3.8,0.2,7-1.2,10.3
         c-1.2,2.9-2.9,3.3-5.4,1.3c-1-0.8-1.7-3.1-3.5-1.3c-1.2,1.2-1.3,3-0.8,4.7c0.7,2.4,2.6,3.4,4.8,3.9c3.9,0.9,7.8,1.6,11.7,2.4
         c18,0.4,35.9-0.4,53.5-4c5.8-1.2,11.5-3.7,17.5-4v0h-0.1C383.1,204,395.5,200.6,408.5,201z M334,209c-0.5,0.2-1,0.4-1.4,0.4
         c-4.7,1.3-9.6,0.7-14.3,0.1c-3.5-0.4-4.6-2.8-3.4-6.3c0.8-2.5,1.5-5.2,1.6-7.8c0.2-4.3-1.2-7.3-5.9-9.1
         c-13.3-5.1-26.6-2.4-39.9-0.9c-0.8,0.1-1.6,0.4-2.5,0.4c-2.7,0.3-6.3,2.3-7.4-1.4c-1-3.3,1.7-6.1,4.7-7.4c6.7-3,13.4-5.8,20.8-6.8
         c3-0.4,5.9-1,8.8-1.7c6.8-1.6,8-3.2,8-10.1c0-1.6-0.4-3.6,1.4-4.5c1.9-1,3,0.9,4.1,2c2.1,2.2,4.2,3.3,6.8,0.8
         c0.8-0.8,1.7-1,2.7-0.4c3.3,1.9,6.1,0.8,8.5-1.7c1.4-1.5,3.1-0.9,4.7-0.9c2.5,0,4.2-1.2,4.5-3.8c0.3-2.4-0.9-4.2-3-5.3
         c-2.3-1.1-3.3,0.6-4.3,2.3c-1,1.7-1.9,2.4-3.9,1c-6.2-4-6.6-3.7-8.1,4.6c-1.6-2-3.2-3.6-4.4-5.4c-1.8-2.9-1.3-5.9,2.1-6.8
         c4-1.1,6.5-3.9,8.2-6.8c2.5-4.1,5.6-6.5,10-8.1c4.3-1.6,8.5-3.8,12.5-6.2c3.9-2.4,8.6-2.9,13.1-1.9c27.4,5.8,55.1,9.7,82.6,14.7
         c8.9,1.6,17.3,4.6,25.7,8c7.2,2.9,12.5,8.1,17.7,13.5c1.3,1.4,2.3,3,1.3,4.9c-1,2-2.7,1.8-4.7,2c-5.4,0.5-10.8,1.3-16.1,2.4
         c-2.3,0.5-4.5,1.1-6.8,1.2c-4,0.1-6.9,2-7.4,6c-0.4,3.4,4,7.9,7.6,7.8c11.6-0.2,22.4,3.6,33.5,6.2c5.9,1.4,7.8,6.2,12.1,10.8
         c-13.1-5.4-24.9-11.4-38.5-7.9c-22.9,6.8-46.2,10.8-70,12.2c-7.1,0.4-14.1,2.4-21.1,3.9C360.7,205.8,347.5,208.5,334,209z"/>
       <path fill="#A17D5B" d="M132.6,236.6c3.8,1,7.9,1,11.9,1.3c4.5,0.3,8.9,0.1,13.1-2.1c8.3-4.2,16.9-1.6,25.4-0.5
         c16.2,2.2,32.3,5.2,48.5,0.3c0.6-0.2,1.4-0.5,1.9-0.3c8.7,2.6,17.3-0.6,25.8-0.2c8,0.4,12.6-4.1,17.5-8.8c1.3-1.3,2.3-2.9,4.2-3.2
         l0,0l0,0c6.7-2.8,13.9-3.3,20.9-3.9c16.2-1.3,32.4-1.6,48.4-4.3c7.1-1.2,14.3-2.7,20.6-6.8l0,0c-6,0.3-11.6,2.8-17.4,4
         c-17.7,3.6-35.5,4.4-53.5,4c-5.5,0.4-11,0.7-16.4,1.3c-3.1,0.3-7.3,0.3-8.7,3.1c-4.6,8.7-12.8,9.9-21.1,11.4
         c-1.6,0.3-3.2,1.1-4.8,1.4c-2.7,0.5-5.8,0.2-7.3-2.1c-3.6-5.6-7.9-4.8-13.4-3c-9.1,3-18.4,6.2-27.9,0.5c-1.6-1-3.8-1.2-5.8-1.3
         c-12.1-0.4-24.1-2.7-36.4-2.2c-8.3,0.3-16-2.8-23.9-4.5c-1.9-0.4-3-2-3.5-3.9c-0.5,0.6-0.9,1.2-1.4,1.8c-0.9,1.1-1.7,2.3-2.5,3.5
         c-1.5,2.2-2.9,4.5-4.3,6.7c-1,1.7-2,3.4-2.8,5.2C123.4,237.7,128.4,235.5,132.6,236.6z"/>
       <path fill="#AB8A67" d="M650.9,192.3c-3.6,2.1-7.5,2.5-11.5,2.2c-10.1-0.7-20.2,0.2-30.2,1.8c-4.2,0.7-8.3,1.2-12.3,0.2
         c-9.6-2.3-19.4-3.1-29.2-2.4c-13.9,1-27.9,0.3-41.6,2.9l0,0c-1.7,1-3.3,2-5,3c17.1-2.2,34.3-3.5,51.6-3c2.1,0.1,4.3-0.2,6.3,1
         c5.1-0.3,9.9,0.6,14.6,2.4c9,3.4,18,4.2,27.1,0.1c3.3-1.5,7-1.5,10.7-0.9c7.9,1.2,15.9,0.5,23.6-1.6l0,0c-0.3-0.8-0.6-1.5-1-2.2
         c-0.7-0.8-1.4-1.7-2-2.5c-0.1-0.1-0.2-0.2-0.3-0.2C651.5,192.8,651.2,192.5,650.9,192.3z"/>
       <path fill="#87715A" d="M148.6,192.8c7.9,7.2,7.3,6.5,15.2-0.6c7.8-7.1,14.1-17.8,27.5-15.5c1.9,0.3,4.9-0.7,4.9-3.2
         c0-2.6-2.8-3.4-5.1-4c-0.9-0.2-2,0.2-2.9,0.2c-7.9-0.2-15.5,0.9-22.7,4.2c-0.1,0.1-0.2,0.2-0.3,0.3c-1.3,1.3-2.6,2.5-3.9,3.8
         c-2.5,2.7-5,5.5-7.5,8.3c-1.5,1.8-2.9,3.5-4.3,5.3C149.2,192,148.9,192.4,148.6,192.8z"/>
       <path fill="#9F8368" d="M222,665.1c4.1-0.4,8.3,0.2,12.4-0.7c17.2-3.8,34.4-7.8,51.7-11.4c9.4-2,18.9-4.2,28.7-2.4
         c19.5,3.7,39.2,2.6,58.8,2.1c20.1-0.6,40.1-2.4,60.2-3.7c16.3-1.1,32.5-3,48.4-6.3c16.2-3.3,31.8-8.5,46.4-16.5
         c3.4-1.8,6.9-2.8,10.3-0.2c7.9,6,17,7.3,26.5,6.9c11.8-0.4,23.4,2.6,35.3,1.5c6.1-0.6,12.5,0.8,18.8-0.3c1.9-0.3,4.1-0.5,5.4,1.5
         c0.4-0.4,0.8-0.8,1.1-1.2c2.3-2.5,4.7-5,7-7.4v0l0,0c-15.7,3.7-31.8,3.3-47.8,4c-2.1,0.1-4.3,0.2-6.3-1c-1.4,0-2.7,0-4.1,0l0,0
         c0,0,0,0,0,0c-6-0.4-12.1,1.1-17.9-1l-0.1,0c-4.5,0.4-8.2-1.7-11.5-4.1c-5.6-4-10.8-4.1-17.1-0.7c-16.6,8.8-34.9,12.8-53.2,16.8
         c-22.4,4.8-44.9,7.4-67.9,7.5c-11.1,0-22.3-0.2-33.4,1.2c-1.9,0.3-3.9-0.4-5.9-0.6c-3.6,1.8-7.5,0.7-11.3,1
         c-13.3,0.9-26.1-0.7-38.6-5.7c-6-2.4-12.5-3.2-19-4.1c-4.5-0.6-9,0.3-12.3,3.1c-12.4,10.4-27.6,13.3-42.6,16.8
         c-9,2.1-18.1,1.8-27.2,2.8c-2.3,0.3-4.7,0.1-6.2,2.4c0.1,0.2,0.2,0.3,0.3,0.4c0.9,0.7,1.8,1.3,2.8,1.9c0.3,0.1,0.7,0.3,1,0.4
         C216.6,665.3,219.4,665.4,222,665.1z"/>
       <path fill="#B39D84" d="M724,434L724,434c-7.4-1.8-14.9-2.5-21.9-6.2c-5.6-3-11.9-5-18.4-6c-8.8-1.4-17.7-0.2-26.4-0.9
         c-9.9-0.9-20,0-29.7-3c-6.1-1.9-9.6-5.8-10.3-12.1c-1.3-10.6,3.3-17.1,13.5-20.1c7.8-2.3,15.9-1.5,23.8-2.3
         c11.7-1.1,23.5-2.4,35.3-0.8c11.7,1.5,23.5,2.2,35.3,3.3c0,0,0,0,0,0c0-3,0.1-6.1,0.1-9.1c-0.1-1.6-0.2-3.2-0.3-4.8
         c-0.3-3.4-0.6-6.9-1-10.3c-0.2-1.6-0.5-3.2-0.9-4.8c-9.9,2.3-19.8,4.7-29.6,7c-4.1,1-7.1,3.7-10,6.4c-5.6,5.1-12,7.4-19.5,7.8
         c-19.4,1-38.9,2.1-58.4,1.8c-8.6-0.1-17.2-0.4-25.9-0.2c-17.3,0.3-34.1,3.1-51.1,5.7c-0.8,0.1-1.7,0.6-2.5,0.4
         c-12.1-2.3-23.8,1.9-35.6,2.1c-14.7,0.3-29.2,2.1-43.8,3.5c-11.3,1.1-22.6,0.9-33.9,0.2c-5.8-0.3-11.6-0.6-17.4-0.6
         c-15.3-0.1-30.7-0.2-46,0c-14.5,0.2-28.9-1.4-43.4-2c0,0,0,0,0,0l0,0c-7.7,0.1-15.3-0.2-22.9-1.4c-1,0-2.1,0-3-0.5
         c-15.7,0.2-31.4-1.3-47.1-2c-2.8-0.1-5.7-0.2-8,2c0,0.7,0,1.3,0,2h0c9.9,2.7,20.4,2.7,29.8,7.1c1.8,0.8,2.9,0.1,3.8-1.2
         c1.4-2.1,3.6-3.1,5.9-3.3c15.4-1.6,30.9-1.8,45.9,2.3c7.8,2.1,9.4,4.9,9.5,13.1c0.1,9.1,0.1,9,9.1,11.5c4.7,1.3,9.5,1.8,14.3,1.7
         c10.8-0.1,21.6-1.5,32.4-1.7c9.5-0.1,19.2,0.2,27.9,5.6c5.8,3.7,12.9,4.7,19.5,5.6c5.3,0.7,9.1-4,12.6-7.3
         c15.8-14.7,34.7-21.8,56-23.5c5.5-0.4,10.9-1.4,16.3,0.2c7.5,2.2,13,8.8,13.7,16.7c0.9,9.5-2.1,15.1-10.1,19.3
         c-6.9,3.7-14.7,4-22.1,6.1c-8.4,2.3-16.3,5.7-23.8,10.3c-4.5,2.8-9.3,5.1-14,7.6c0,0,0,0,0,0c-8.4,3.8-16.6,8.2-26,9
         c-3.9,0.9-7.7,1.9-11.4,3.6c-2,0.9-4.1,1.3-6.3,0.8c-1.6-0.4-3.4-0.6-4.9,0.2c-8.3,4.5-17.3,1.8-25.9,2.3
         c-1.7,0.1-3.2-0.7-4.5-1.9l0,0c-0.7-0.3-1.3-0.7-2-1h0c-3.3,2-6.3,1.8-9-1c-4.3-1-8.7-2-13-3l0,0h0c-17-5.5-35.1-6.2-52-12l0,0
         c-6.5-0.3-12.9-0.5-19.4-0.8c-1.8-0.1-3.2,0.4-4.7,1.3c-3,1.7-5.7,2.2-9-0.5c-3-2.4-7.4-0.8-11.1-1.9c-1.6-0.5-3.5-0.1-4.9-0.8
         c-10.9-5.5-22.9-5.3-34.6-6.1c-3.6-0.2-7.3,0.2-10.9,0.9c-6.8,1.4-13.2,0.6-19.7-1.4c-4.9-1.5-9.9-2.7-15.2-3
         c-5.3-0.4-10-2.2-14.7-5.2c-8.9-5.6-18.9-7.3-29.1-3.2c-2.5,1-5,1.9-7.7,1.7c-7.2,2.9-14.7,1.5-22,2.1c-6,0.4-12.3,0.7-15.8,7
         c4.1-2.1,8.6-3.1,13-3c12.9,0.3,25.6-0.5,38.2-3.2c6-1.3,11.6,0.1,16.9,2.8c14.6,7.2,30.5,9,46.3,11.4c7.7,1.2,15.2-0.2,22.9-0.2
         c10.1,0.1,20,1.4,29.4,5c13.3,5.1,26.5,6.3,40.6,2.8c11.6-2.9,23.2,0.5,34.5,3.4c13.7,3.6,27,8.4,40.8,11.5
         c23.3,5.2,45.8,3.2,68.3-3.9c23.6-7.4,46.4-16.4,68.9-26.4c25.1-11.2,51.1-19.8,78.4-24.8c15.3-2.8,30.4-2.7,45.6-0.6
         c11.9,1.6,23.9,0.9,35.8,3c10.3,1.8,20.8,3.6,30.5,7.4c9.2,3.6,18.6,4.9,28.1,6c2.3,0.3,5.2,0,6.3,3.1c0.2,0.3,0.3,0.7,0.5,1h0
         c0.1-0.3,0.3-0.7,0.4-1c0.2-1.3,0.3-2.6,0.4-3.9C724,435.5,724,434.8,724,434z"/>
       <path fill="#B77732" d="M722.2,448l-0.3,0.1l-0.3-0.1c0,0,0,0,0,0c-9.7-1.1-19.5-2.2-29.3-2c-6.1,0.1-11.2-2.9-16.5-5.1
         c-14-5.8-28.1-11.5-43.7-10.9c-3.6,0.1-7.3,0.6-10.9,1.3c-7.5,1.3-11.8,5.5-13,13.1c-0.6,3.7-2,6.6-5.2,8.7l0,0h0
         c10.5,3.8,21.4,5.5,32.6,4.6c7.7-0.6,15.4-2.7,23.2-0.6c3.8,1,7,2.4,7,7c0,4.8-3.6,5.9-7.3,6.7c-2.2,0.5-5.6-0.1-6.1,2.3
         c-0.6,2.9,3.4,2.3,5,3.8c1.3,1.2,3,2.1,4.5,3.1c0,0,0,0,0,0c8.5,4,12.1,11.1,13,20h0c4.3-0.2,8.4,0.5,12.5,2.2
         c5.6,2.2,11.5,2.8,17.4,0.6c1.3-0.5,2.9-0.4,4.4-0.6c0,0,0,0,0,0c3-8.2,5.4-16.6,7.5-25.1c0.2-0.7,0.4-1.5,0.5-2.2
         c0.4-1.9,0.9-3.7,1.2-5.6c0.1-0.2,0.1-0.5,0.2-0.7C720.2,461.7,721.3,454.9,722.2,448L722.2,448z"/>
       <path fill="#B28759" d="M680.9,551.6c-10.1,3.6-19.6,1.7-28.9-2.6c-1.7,1-3.3,2.1-5.1,2.9c-3.6,1.8-7,1-10.2-1.1
         c-2.6-1.7-3-4.1-1.6-6.9c-6.7,3.3-14.6,4.1-20.1,10c0,0,0,0,0,0l0,0c2.3,1.4,4.8,1,7.3,1c6.2-0.1,12.3-0.2,18.2,2.3
         c1.1,0.5,2.7,0.5,3.9,0.3c10.5-2.1,19.1,1.6,26.9,8.2c2,1.7,2.1,3.2,0.9,5.6c-2.6,5.4-6.7,8.2-12.6,9.4c-22,4.8-43.8,10-66.5,9.2
         c-10.3-0.4-20.5-2-30.8-2c-10.1,0-19.1,2.6-26.1,10.3c-3.3,3.6-7.4,4.5-11.8,2.3c-6-2.9-12.1-2.5-18.5-2c-10.6,0.9-21.3,1-31.8,3
         c-15.4,2.9-30.8,5.7-45.9,9.6c-21.2,5.4-42.7,5.5-64.5,4.2c-22.2-1.4-44.6-1.8-66.9-1.3c-7.7,0.2-15.3-0.7-22.7-2.5
         c-10.6-2.6-21.3-3.7-32.2-3.5l0,0c-2.7,0.7-5.3,1.3-8,2v0l0,0c1.6,1.7,4.1,1.7,6,3l0,0l0,0c1.7,0,3.4,0,5,0c0,0,0,0,0,0
         c0,0,0,0,0,0c9.1-3.6,18.2-1.7,27,0.6c21.6,5.6,43.5,8,65.8,7.3c25.9-0.9,51.9-0.3,77.6-4.1c17.3-2.6,34.2-7,51.3-10.8
         c8.5-1.9,17-3,25.7-3.1c6.5-0.1,13-0.3,19.4-1.2c5-0.7,9.2,0.5,13.3,3c6.7,4.1,10.1,3.8,16.1-1.4c0.8-0.7,1.6-1.3,2.1-2.1
         c7.5-10.8,18.4-11,29.9-9.9c13.7,1.2,27.5,1.8,41.4,1.6c8.8-0.1,17.6-0.5,26.4-0.7c8-0.2,15.7-3.5,23.8-2.2l0,0
         c2.6-3.5,5.2-7.1,7.6-10.7c3.4-5.2,6.7-10.5,9.9-16c2.1-3.6,4-7.4,5.9-11.1C685.8,550.6,683.2,550.7,680.9,551.6z"/>
       <path fill="#B4895A" d="M723.2,441c-0.2,0-0.3-0.6-0.5-0.9c-11.3-0.8-22.3-2.8-33.2-6c-18.2-5.2-36.1-11.2-55.7-10.4
         c-11.2,0.5-22.5-1.8-33.8-1.9c-15.2-0.1-29.6,4.1-44.3,7c-23.3,4.6-44.6,14.5-66,24c-27.3,12.2-55.4,22.3-84.8,27.5
         c-12.2,2.2-24.9,1.4-37.3-0.9c-15.1-2.8-29.8-6.8-44.4-11.4c-13.4-4.2-27.3-7.2-41.7-3.1c-11.9,3.4-23.7,1.4-35.3-2.4
         c-12.9-4.2-26.2-5.6-39.8-4.6c-12.8,0.9-25.1-2.6-37.4-5.2c-9.6-2-19.3-3.8-28.7-6.6c-8.1-2.4-16.3-2.5-24.7-1.4
         c-8.4,1.2-17-0.7-25.4,1.3c-3.9,1-7.7,2-11.8,2h0.1c-0.1,0-0.4,0.7-0.4,1.1c0,0,0,0,0,0c0,0,0,0,0.1-0.1c0,0,0,0,0,0
         c14.7-0.8,29.4-0.5,44.1-1.9c10.2-1,19.6,2.9,28.8,6.9h0h0c0.7,0,1.4,0,2.1,0.1c16.5,1.4,32.4,6,48.7,8.3
         c22.4,3.2,44.6,7.1,67.2,8.5c3,0.2,6-0.1,8.9-0.9c17.2-4.2,33.9-3.7,51,2.2c23.9,8.2,48.9,11.7,74.2,10.7
         c11.7-0.5,22.8-4.3,34.1-7.3c27.3-7.3,52.7-19.7,78.8-30.1c27.9-11.2,56.7-18.2,86.7-19.4c17.8-0.7,35.6-0.8,53.1,2.2
         c5.4,0.9,10.7,2.7,15.8,4.6c13.9,5,28.3,7.5,42.8,9.4c3.4,0.4,8-0.2,7.2,5.8c0,0,0.3,0,0.3,0s0,0,0,0l0.1,0l0.2-0.1h0
         c0.2,0,0.3-0.7,0.4-1c0.2-1.2,0.3-2.5,0.5-3.6C723.1,442.6,723.1,442,723.2,441L723.2,441z"/>
       <path fill="#B29D85" d="M705.9,512c-6.6,1.7-12.8-1.1-19.1-2c-8.2-1.1-8.9-1.2-13.7,5.6c-5.6,8.1-11.4,16-17.2,23.9
         c-2.1,2.8-4.2,5.6-4.1,9.4l0,0c9.3,4.3,18.9,6.2,28.9,2.6c2.4-0.8,4.9-1,7.2,0.5c1.7-2.9,3.3-5.8,4.7-8.7c1.3-2.7,2.7-5.5,3.9-8.3
         C700.1,527.6,703.1,519.8,705.9,512L705.9,512z"/>
       <path fill="#A49384" d="M594.5,595c-8.6-0.5-17.2-0.5-25.8-1.1c-6.2-0.4-10.9,1.7-14.8,6.4c-3,3.5-6.8,6.4-10.9,8.6l0,0
         c0.6,5.9-4.5,6.8-8,9.1c0.4,0.3,0.8,0.8,1.2,0.8c8.5,0.2,13.7,7.2,20.8,10.1c0,0,0,0,0,0l0.1,0c6,0.4,12-1.1,17.9,1l0,0
         c1.4,0,2.7,0,4.1,0c15.8,0.1,31.5-1,47.1-4.2c3.8-0.8,6.9-4.5,11.3-2.6c1.8-1.9,3.7-3.8,5.5-5.7c4.1-4.6,8.2-9.4,12-14.2
         c1.7-2.3,3.4-4.7,5-7.2C638.1,595.9,616.3,596.3,594.5,595z M627.1,613.5c-3.6,2.3-8.8,3-12.9,5.3c-15.2,8.2-31.8,7.3-48.2,7.1
         c-3.3,0-6.3-1.3-8.1-4.2c-2.2-3.5-4.1-7.1-8.5-8.7c-2.2-0.8-1.5-2.1,0.3-3.1c1.6-0.9,3.6-1.5,4.6-2.9c6-8.2,14.2-9.9,23.8-9.2
         c8.6,0.6,17.2,0.5,25.9,0.9c9.4,0.5,18.9-0.4,28.4-0.8c4.6-0.2,8.7,1.1,13.2,2.6C639.7,605.6,633.3,609.6,627.1,613.5z"/>
       <polygon fill="#A49384" points="637.4,623.2 637.4,623.2 637.4,623.2     "/>
       <path fill="#AB9077" d="M664.7,590c-8.1-1.3-15.8,2-23.8,2.2c-8.8,0.2-17.6,0.7-26.4,0.7c-13.8,0.1-27.6-0.4-41.4-1.6
         c-11.6-1-22.4-0.9-29.9,9.9c-0.6,0.8-1.4,1.4-2.1,2.1c-6,5.2-9.4,5.5-16.1,1.4c-4.1-2.5-8.2-3.7-13.3-3
         c-6.4,0.9-12.9,1.1-19.4,1.2c-8.7,0.1-17.2,1.3-25.7,3.1c-17.1,3.7-34,8.2-51.3,10.8c-25.7,3.8-51.7,3.3-77.6,4.1
         c-22.3,0.7-44.2-1.7-65.8-7.3c-8.8-2.3-17.9-4.2-27-0.6c0,0,0,0,0,0c-3.6,5.3-9.3,8-14,11.9v0c8.6-1.4,16.9-3.7,25-7h0
         c2.3-3.5,5.6-4.2,9.6-3.6c12.6,1.7,24.5,6.2,37.2,7.1c13.4,1,26.8,1.7,40.2,0.8c8.4-0.6,16.9,0.1,25.4-0.2
         c25.2-1.1,50.3-2.2,75.1-8.8c18.6-5,37.8-9.4,57.6-8.4c3.3,0.2,6.6-0.6,9.9-0.9c5.3-0.5,10.1,0.6,14.5,3.9
         c5.4,4.1,11.6,1.5,17.4,1.1v0l0,0c4.1-2.3,7.9-5.1,10.9-8.6c4-4.7,8.6-6.9,14.8-6.4c8.6,0.6,17.2,0.6,25.8,1.1
         c21.8,1.3,43.6,0.9,65.4,1c1-0.9,1.9-1.8,2.7-2.7c0.4-0.6,0.8-1.2,1.3-1.7C664.1,591,664.4,590.5,664.7,590L664.7,590z"/>
       <path fill="#A47355" d="M650.5,529.9c-12,10.6-25.8,16.9-41,20.6c-2.2,0.5-4.3,1.7-6.5,2.6c3.9,1.5,8,0.8,12,0.9c0,0,0,0,0,0
         c5.4-5.9,13.4-6.7,20.1-10c15.1-8.1,28.2-18.6,38.6-32.4c4.3-5.7,5.3-6,12.2-3.8c7,2.3,14.2,0.9,21.3,1.2l0,0
         c1.1-2.2,2-4.4,2.3-6.9l0,0c-1.5,0.2-3,0.1-4.4,0.6c-5.9,2.2-11.7,1.7-17.4-0.6c-4.1-1.6-8.2-2.4-12.5-2.2h0l0,0
         C671.1,513.5,660.4,521.2,650.5,529.9z"/>
       <path fill="#9A846F" d="M685.8,507.8c-6.8-2.2-7.9-1.8-12.2,3.8c-10.4,13.8-23.4,24.3-38.6,32.4c-1.4,2.7-0.9,5.2,1.6,6.9
         c3.2,2.1,6.6,2.9,10.2,1.1c1.7-0.9,3.4-2,5.1-2.9l0,0c-0.1-3.8,2.1-6.6,4.1-9.4c5.7-8,11.6-15.9,17.2-23.9
         c4.7-6.8,5.5-6.7,13.7-5.6c6.3,0.9,12.5,3.7,19.1,2l0,0c0.4-1,0.7-2,1.1-3.1h0C699.9,508.6,692.8,510,685.8,507.8z"/>
       <path fill="#A88D71" d="M585.3,631c16-0.7,32.1-0.2,47.8-4l0,0c1.4-1.3,2.9-2.6,4.3-3.9l0,0l0,0l0,0c-4.4-1.9-7.5,1.8-11.3,2.6
         c-15.5,3.2-31.2,4.3-47.1,4.2C581,631.2,583.2,631.1,585.3,631z"/>
       <path fill="#9D7751" d="M74.9,378.9c0.1,2.3,0.2,4.6,0.3,6.9c9.4-0.9,18.8-2,28.2-2.8c18.5-1.7,37.1-3.3,55.6-4.8
         c1.8-0.2,3.8-0.4,5.5,0.1c6.5,2.2,13.2,2.2,19.8,1.6c8.4-0.8,16.6,0.1,24.8,1.3c9.8,1.5,19.6-0.2,29.3,0.8
         c8.6,0.8,17.2,1.3,25.9,1.7c3.8,0.2,7.6-0.9,11.4-0.6c35.4,2.7,70.9,1.4,106.3,2.1c14.3,0.3,28.5,2.8,42.7,3.5
         c13.6,0.7,27.2-1.1,40.7-3c3.3-0.5,6.6-1.5,9.9-1.3c15.5,1,29.4-4.8,43.5-9.8c2.3-0.8,4.6-1.4,6.6,0.4c3.9,3.6,8.5,3.5,13.2,2.5
         c8.7-1.7,17.3-3.6,25.9-5.5c30.2-6.8,60.4-7.1,90.6-0.6c5.2,1.1,9-0.8,12-4.2c6.3-7.2,14.5-11.7,22.6-16.1
         c4.1-2.2,9.4-1.7,14.2-2.1c5.8-0.5,12,0.4,17.4-3.1c-0.6-4.9-1.5-9.7-2.4-14.6c-0.7-3.4-1.5-6.8-2.3-10.1
         c-1.2-4.8-2.7-9.5-4.3-14.2c-3.6,5-9.5,5.9-14.7,7.6c-18.3,5.9-37.3,8-56.4,9.5c-25.1,2-50.1,2.6-75.3,3.2
         c-8.5,0.2-16.9-0.5-25.4-0.4c-20.5,0.2-40.8,2.1-61.1,4.6c-9.5,1.2-19.2,1-28.9,1.5c-15.9,0.9-31.8,0.3-47.7-0.3
         c-13.1-0.5-26.1-2.4-39.2-3.3c-8.4-0.5-17-0.8-25.4-0.2c-10.4,0.7-20.9,0.5-31.3,1.7c-13.5,1.6-27.1,2.7-40.7,3.8
         c-12.6,1-25.2,1.8-37.8,2.3c-34.1,1.4-68.1,3.8-102.2,3.3c-14-0.2-27.8,3-41.1,7.3c-2.3,0.7-4.9,2.4-5.9-1.7l0,0
         c-0.6,2.7-1.1,5.4-1.6,8.2c-0.7,4.7-1.2,9.3-1.7,14C75.3,371.7,75,375.3,74.9,378.9C74.9,378.9,74.9,378.9,74.9,378.9z"/>
       <path fill="#B97630" d="M79,345.9c1,4,3.5,2.4,5.8,1.7c13.4-4.3,27.1-7.6,41.1-7.3c34.2,0.6,68.2-1.9,102.2-3.3
         c12.6-0.5,25.2-1.3,37.8-2.3c13.6-1,27.2-2.2,40.7-3.8c10.4-1.2,20.9-1,31.3-1.7c8.4-0.6,17-0.3,25.4,0.2
         c13.1,0.8,26.1,2.7,39.2,3.3c15.9,0.6,31.8,1.2,47.7,0.3c9.6-0.5,19.3-0.3,28.9-1.5c20.3-2.6,40.6-4.4,61.1-4.6
         c8.5-0.1,16.9,0.6,25.4,0.4c25.1-0.6,50.2-1.2,75.3-3.2c19.1-1.6,38.1-3.6,56.4-9.5c5.2-1.7,11.1-2.6,14.7-7.6
         c-0.8-4.5-2.3-8.8-4.1-12.9c-8.2-2-16.6-3.7-24.7-6.2c-9.8-3-19.9-4.6-29.9-5.5c-7.7-0.7-15,1.6-20.2,8.6
         c-4.8,6.4-11.1,10.4-19.6,11.5c-13.8,1.8-27.5,4.9-41.3,7.1c-8,1.3-16.1,1.8-24.3,0.4c-12.5-2.2-24.8-0.8-37,2.9
         c-13,4-18,2-24.9-9.5c-3.8-6.3-10.4-6.8-16.2-7.1c-17.6-0.9-35.3-0.4-52.9,1.4c-6.6,0.7-13.3,0.8-19.9,1.1
         c-24.6,1.1-49.3,1.3-73.9,2.3c-9.1,0.4-18.3,0.9-27.4,0.9c-23,0.1-45.8-2.8-68.6-5.4c-20.8-2.3-41.7-3.8-62.5,1.1
         c-9.2,2.2-18.2,1-26.7-3.2c-6.7-3.3-12.8-4.4-19.7,0.1c-4.6,3-10.3,3.8-15.9,2.7c-4.2-0.8-8,2.4-12.2,0.8c-0.4,1.2-0.7,2.3-1,3.5
         C84.9,316.2,81,330.8,79,345.9C79,345.9,79,345.9,79,345.9z"/>
       <path fill="#B39D85" d="M113.7,279.9c20,1.1,39.6,4.9,59.4,7.6c6.4,0.9,12.7,1.6,19.3,0.8c9.9-1.3,19.9,0.9,29.9,1
         c8.6,0.1,17.2,1.1,25.9,1.7c28.1,2,56.3,1,84.4,0.9c23.6-0.1,47.2-1,70.9-2c19.8-0.9,39.6-2,59.4-1.8c14.2,0.1,28.1,3.4,42.3,3
         c22.6-0.7,45.3,1.1,67.9,1.1c10.8,0,21.6-1.1,32.4-1.5c5.1-0.2,9-3.1,13-5.9c11.9-8.2,24.7-13.2,39.5-12.8c14,0.4,28,0.4,41.9,1.2
         c-1.3-3.7-2.8-7.3-4.4-10.8c-2.8-5.9-5.7-11.8-8.8-17.6c-2.7-4.8-5.4-9.5-8.3-14.2c-1.8-2.9-3.5-5.8-5.3-8.6
         c-3.5-5.4-7.2-10.7-11-15.8c-1.6-2-3.3-4-5.1-5.9c-0.9,1.1-2,1.7-3.4,1.8c-4.3,0.4-8.6,1.2-12.9,1c-9.6-0.5-19-0.6-28.2,3.3
         c-5.2,2.2-10.9,0.9-16-1.5c-9.5-4.5-18-2.5-26.4,2.9c-6.5,4.2-12.9,8.8-21,9.8c-1.9,0.2-3.2,1.6-4.7,2.7c-2.8,2.1-5.8,2.9-9.3,3
         c-8.6,0.2-17.1,0.8-25.7,0.9c-12.9,0.1-25.5-2.1-37.7-6.2c-25.2-8.6-49.6-7.9-73.1,5.5c-8,4.5-16.2,6.6-25.8,4.4
         c-21.1-4.7-42.5-4.4-64-2c-6.6,0.7-13.1,1.8-19.8,2.5c-4.8,0.5-9.5,1.8-13.8,3.9v0l0,0c-2.8,2.7-6.9,2.9-10,5c0,0,0,0,0,0
         c6.3-0.1,11.6-3.7,17.7-4.6c21.1-3.3,42.2-6.4,63.5-5.1c9.8,0.6,20,1.8,27.3,10.3c2.5,2.9,5.6,1.3,8-0.7
         c9.8-8.2,21-14.1,32.9-18.5c13.3-4.9,27-5.5,40.8-2.9c10.8,2.1,21.1,5.9,31.7,8.9c7,1.9,14.1,2.4,21.2,2.8
         c25.2,1.1,50.2-2.7,75.4-1.9c15.6,0.5,31.3,1.1,46.8,2.2c10.1,0.7,21.8,8,20.6,22.3c-0.3,3.6-1.5,6.3-3.9,8.9
         c-8.5,9.4-19.7,14.6-30.3,20.8c-5.6,3.2-11.5,5.2-17.5,6.8c-4.9,1.3-10.1-0.3-15.2-0.4c-12.7-0.3-25.1,1.9-37.7,1.7
         c-17.5-0.2-35.1,3.9-52.6-0.2c-2-0.5-4.8-0.3-5.2-3c-0.5-3,2.4-3.8,4.4-4.6c3.6-1.4,7.3-2.4,10.9-3.7c1.9-0.7,5.3-0.3,4.8-3
         c-0.4-2.2-3.6-1.8-5.7-2c-12.2-1.1-24.1-3.2-35.5-7.6c-7.3-2.8-14.5-5.9-22.2-7.7c-4.1-0.9-8.3-1.2-12.4-0.5
         c-7.7,1.3-13.2,5.3-16.6,12.8c-5.1,11.3-14.5,15.5-25.7,12.5c-8.7-2.3-12.8-9-15.3-16.9c-0.2-0.8-0.3-1.6-0.5-2.5
         c-2-9.8-2.6-10-11.4-5.2c-7.8,4.3-16.6,3.4-24.9,3.8c-11.8,0.5-23.6,0.9-35.3,2.1c-4.9,0.5-9.5,2-13.8,4.1
         c-13.9,6.8-28.5,11.2-43.6,13.8c-2.8,0.5-5.5,1.3-8.2,2.2c-11.2,4-22.7,4.7-34.5,3.4c-5.1-0.6-10.3,0.5-15.4,0.5
         c-15.2,0.1-30.1-2.8-45-5.1c-2.8-0.4-5.6-0.8-8.4-1c-12-0.7-21.4-7.5-31.3-13.2c-0.4,0.5-0.7,1.1-1.1,1.6
         c-0.8,1.9-1.7,3.8-2.5,5.8c2.1,0.5,4.2,1,5.8,2.6C107.5,279,110.6,279.7,113.7,279.9z M413.3,279.6c2.3-3.5,4.1-7.2,5.4-11.2
         c2.5-7.3,7.9-11,15.8-11.5c8.6-0.6,16.5,1.5,24.2,4.9c11.8,5.2,24,8.8,36.9,10.2c1.3,0.1,3.2-0.3,3.4,1.4c0.2,2-1.9,2.2-3.2,2.3
         c-6.4,0.9-12.1,3.6-17.8,6.3c-4.9,2.4-10.1,1.5-15.2,1.9c-5.1,0.4-10.3,0.1-17.3,0.1c-8.5,0.7-18.8-1.2-29.1,0.8
         c-1.5,0.3-3.1,0.2-4.1-1.1C411.1,282,412.5,280.8,413.3,279.6z M247,281.8c9.6-2.1,19.4-3.3,28.4-7.4c5.1-2.3,10.4-4.5,15.6-6.6
         c10.2-4,20.7-5.1,31.7-5.1c15.1,0,30.3,0.5,45-4c2.1-0.6,3.6-0.3,4.3,2c2.3,7.5,5.1,14.7,11.2,20.3c2.3,2.1,0.7,3.7-1.8,3.9
         c-4.3,0.2-8.7,0.1-13,0.1c-16.2,1.9-32.6,1.2-48.8,1.7c-19.6,0.6-39.2,1.6-58.8-0.3c-4.6-0.4-9.2,1.4-13.8-0.3
         c-1.4-0.5-3.6-0.2-3.7-1.9C243.2,282,245.5,282.1,247,281.8z"/>
       <path fill="#A88B6C" d="M283.1,387.6c-1-0.2-2-0.3-3-0.5C281,387.5,282,387.6,283.1,387.6z"/>
       <path fill="#A88B6C" d="M703.8,348.9c-4.8,0.4-10.1-0.1-14.2,2.1c-8.1,4.4-16.3,8.9-22.6,16.1c-3,3.5-6.8,5.3-12,4.2
         c-30.2-6.5-60.4-6.2-90.6,0.6c-8.6,1.9-17.2,3.8-25.9,5.5c-4.7,0.9-9.3,1.1-13.2-2.5c-2-1.9-4.3-1.2-6.6-0.4
         c-14.1,5-28,10.8-43.5,9.8c-3.3-0.2-6.6,0.8-9.9,1.3c-13.5,1.9-27.1,3.7-40.7,3c-14.3-0.7-28.5-3.2-42.7-3.5
         c-35.4-0.7-70.9,0.6-106.3-2.1c-3.8-0.3-7.6,0.7-11.4,0.6c-8.6-0.4-17.3-0.9-25.9-1.7c-9.8-0.9-19.5,0.8-29.3-0.8
         c-8.1-1.3-16.4-2.1-24.8-1.3c-6.6,0.6-13.3,0.6-19.8-1.6c-1.6-0.6-3.6-0.3-5.5-0.1c-18.5,1.6-37.1,3.2-55.6,4.8
         c-9.4,0.8-18.8,1.9-28.2,2.8c-0.1,1.4-0.2,2.7-0.2,4.1c0,0,0,0,0,0c2,1.2,3.5,0.3,5.2-0.1c4.2-1,8.5-1.7,12.6-2.9
         c13.1-3.9,27.3,0.7,40.2-4.9c0,0,0,0,0,0c0.7,0,1.4,0,2,0c0,0,0,0,0,0c4.2-2,8.6-0.6,12.9-0.9c3.7,0,7.1,0,11.1,0V381
         c0,0,0.1,0,0.1,0c3.4,0,6.9,0.5,9.9,1v0v0c6,0,11.3,0,17,0c0.7,0,1,0,2,0v0c4-1.5,8-1,12,0c0,0,0,0,0,0h0c8.3,2,16.7,3.3,25,5l0,0
         c2.3-2.2,5.1-2.1,8-2c15.7,0.7,31.3,2.2,47.1,2c8.7-0.1,17.4-0.1,26,2l0,0c14.5,0.7,28.8,2.3,43.4,2c15.3-0.2,30.7-0.1,46,0
         c5.8,0,11.6,0.3,17.4,0.6c11.3,0.7,22.6,0.9,33.9-0.2c14.6-1.4,29.1-3.2,43.8-3.5c11.9-0.2,23.6-4.4,35.6-2.1
         c0.8,0.1,1.6-0.3,2.5-0.4c16.9-2.6,33.8-5.4,51.1-5.7c8.6-0.1,17.2,0.1,25.9,0.2c19.5,0.2,38.9-0.9,58.4-1.8
         c7.5-0.4,13.9-2.7,19.5-7.8c2.9-2.7,5.9-5.4,10-6.4c9.9-2.3,19.8-4.6,29.6-7h0c-0.9-2.4-0.6-4.9-0.8-7.4c-0.1-0.7-0.2-1.4-0.3-2.1
         c-0.1-0.6-0.3-1.1-0.6-1.7C715.8,349.3,709.6,348.4,703.8,348.9z"/>
       <path fill="#B48351" d="M325,299c0.7-0.2,1.4-0.4,2-0.5C326.3,298.5,325.7,298.6,325,299z"/>
       <path fill="#B48351" d="M102.4,297.3c5.6,1.1,11.3,0.3,15.9-2.7c6.9-4.5,13.1-3.4,19.7-0.1c8.5,4.2,17.5,5.4,26.7,3.2
         c20.8-4.9,41.7-3.4,62.5-1.1c22.8,2.6,45.6,5.4,68.6,5.4c9.2,0,18.3-0.5,27.4-0.9c24.6-1,49.3-1.3,73.9-2.3
         c6.6-0.3,13.3-0.5,19.9-1.1c17.6-1.8,35.2-2.3,52.9-1.4c5.8,0.3,12.5,0.7,16.2,7.1c6.9,11.5,11.9,13.4,24.9,9.5
         c12.1-3.7,24.4-5.1,37-2.9c8.2,1.4,16.3,0.9,24.3-0.4c13.8-2.2,27.4-5.4,41.3-7.1c8.5-1.1,14.8-5,19.6-11.5
         c5.2-6.9,12.5-9.3,20.2-8.6c10,1,20.1,2.6,29.9,5.5c8.1,2.5,16.5,4.1,24.7,6.2c0-2.3-1.4-4-2.1-6v0v0c-3.6-0.7-7.3-1.3-10.9-2l0,0
         c-6.3-1.5-12.7-2.7-18.8-4.5c-10.2-3.1-20.4-3.8-31-2.6c-7,0.8-12.2,4.6-16.9,8.8c-9,8.1-20,10-31.3,11.3
         c-23.1,2.8-46.1-1.4-69.1-1.5c-16.3-0.1-32.4-1.9-48.5-3.7c-21.9-2.3-43.5,0.9-65.2,1.2h0c-3.5,1.8-7.3,0.7-11,1c-1,0-2,0-3,0
         c-4.2,1.9-8.7,0.6-13,1c-4,0-8,0-12,0l0,0c-5.6,2-11.3,0.6-17,1c-4.7,0-9.3,0-14,0l0,0h0c-6.2,2.1-12.7,0.5-19,1c-16,0-32,0-48,0
         l0,0l0,0c-4-0.3-8.1,0.8-12-1c-12.7,0.1-25.1-2.4-37.7-3.4c-5.5-0.4-10.9-0.6-16.3-1.6h0v0c-4-0.4-8.8,1-13-1c-2.3,0-5,0-7,0v0
         c-4,1.8-7.3,0.7-11,1c-2,0-4,0-6,0c-0.2,0.1-0.4,0.2-0.6,0.3c-1.8,0.8-3.8,0.7-5.7,0.7c-14.3-0.3-28.2-3-41.7-8h-0.5H125v0v0
         c-6,1.9-10.9,5.5-16.4,8.2c-1.8,0.9-3.6,1.7-5.6,1.8c-2-0.1-4.1,0.2-6-1c-1.9-0.1-3.7-0.2-5.6-0.3c0,0,0,0,0,0
         c-0.2,0.6-0.5,1.2-0.7,1.8c-0.2,0.5-0.4,1.1-0.5,1.6C94.4,299.7,98.2,296.5,102.4,297.3z"/>
       <path fill="#B49879" d="M655.1,198L655.1,198c-7.8,2.1-15.7,2.8-23.6,1.6c-3.8-0.6-7.4-0.6-10.7,0.9c-9.1,4.1-18.1,3.3-27.1-0.1
         c-4.7-1.8-9.6-2.7-14.6-2.4c0,0,0,0,0,0c-5.1-0.2-9.9,0.7-14.2,3.7c-1.6,1.1-3.6,2-5.5,2.1c-9.2,0.5-18.1,4.2-27.5,1.8
         c-0.3-0.1-0.7-0.2-1,0c-5.8,3.5-12.5,2.4-18.6,4.1c-3.8,1.1-7.2,2.1-11.1,0.8c-2.6-0.9-5.3-0.6-7.7,1c-2.7,1.8-5,1.4-7.1-0.8
         c-2.6-2.7-5-2.6-7.7,0.2c-2.7,2.9-5.9,2.8-8.9,0.2c-1.5-1.2-3.1-2.4-5-1.6c-4.2,1.8-8.1,0.6-12.1-0.7c-5.7-1.9-11.7-0.6-17.3-0.3
         c-13.5,0.5-26.3,4.6-38.6,10.6c-7.1,3.4-15.3,4.4-23.3,3.7c-16.3-1.6-32.5-2.1-48.8-1c-13.3,0.9-26.6,1.2-39.7,4.1
         c-1.6,0.3-3.2,0.8-4.8,1.2c-2,1.3-3.7,3-5,5v0c4.4-2.2,9-3.4,13.8-3.9c6.6-0.7,13.2-1.7,19.8-2.5c21.5-2.4,42.9-2.7,64,2
         c9.6,2.1,17.8,0.1,25.8-4.4c23.5-13.4,47.9-14.1,73.1-5.5c12.2,4.1,24.8,6.3,37.7,6.2c8.6-0.1,17.1-0.7,25.7-0.9
         c3.5-0.1,6.6-0.9,9.3-3c1.5-1.1,2.8-2.5,4.7-2.7c8.1-0.9,14.5-5.6,21-9.8c8.4-5.4,16.9-7.5,26.4-2.9c5.1,2.4,10.8,3.8,16,1.5
         c9.2-4,18.6-3.8,28.2-3.3c4.3,0.2,8.6-0.6,12.9-1c1.4-0.1,2.5-0.7,3.4-1.8C656.3,199.4,656.3,198.1,655.1,198z"/>
       <path fill="#B29475" d="M91.5,294.8c1.9,0.1,3.7,0.2,5.6,0.3l0,0c1.9-0.1,3.5-0.9,4.6-2.6c6.2-9.3,15.8-10.1,25.3-9
         c16.3,1.9,32.5,4.8,48.8,7.1c2.9,0.4,6.1,0.8,8.9,0.3c8.2-1.5,16.2,0,24.3,0.1c16-0.2,31.8,2.5,47.7,3.6
         c13.9,0.9,27.9,1.7,41.9,1.4c22.5-0.5,44.9-0.3,67.4-1.2c34.9-1.3,69.7-4.5,104.6-3.8c16.1,0.3,32.2,2.1,48.3,2.1
         c20.8,0,41.4,3,62.2,2.9c9.2-0.1,18.2-1.3,27.3-2.3c4.6-0.5,8.5-3.1,12-5.9c10.3-8.3,21.6-12.7,35-11.9c13.3,0.8,26.6-0.8,39.9,1
         c2,0.3,4-0.2,5.8-1c-0.4-1-0.8-1.9-1.3-2.9l0,0c-14-0.8-27.9-0.8-41.9-1.2c-14.9-0.4-27.6,4.7-39.5,12.8c-4,2.7-7.9,5.7-13,5.9
         c-10.8,0.4-21.6,1.5-32.4,1.5c-22.6,0.1-45.3-1.8-67.9-1.1c-14.2,0.4-28.1-2.9-42.3-3c-19.8-0.1-39.6,1-59.4,1.8
         c-23.6,1-47.2,1.9-70.9,2c-28.1,0.1-56.3,1.1-84.4-0.9c-8.6-0.6-17.2-1.6-25.9-1.7c-10-0.1-20-2.3-29.9-1
         c-6.6,0.8-12.9,0.1-19.3-0.8c-19.8-2.7-39.4-6.5-59.4-7.6c-3.2-0.2-6.3-0.9-8.7-3.3c-1.6-1.5-3.7-2.1-5.8-2.6
         c-0.3,0.7-0.6,1.5-0.9,2.3C96,282.5,93.7,288.6,91.5,294.8L91.5,294.8z"/>
       <path fill="#B18D69" d="M701.2,275.9c-1.9,0.8-3.8,1.3-5.8,1c-13.3-1.9-26.6-0.2-39.9-1c-13.4-0.8-24.7,3.6-35,11.9
         c-3.5,2.8-7.3,5.4-12,5.9c-9.1,1-18.1,2.2-27.3,2.3c-20.8,0.2-41.5-2.9-62.2-2.9c-16.2,0-32.2-1.8-48.3-2.1
         c-34.9-0.8-69.8,2.5-104.6,3.8c-22.4,0.8-44.9,0.7-67.4,1.2c-14,0.3-27.9-0.5-41.9-1.4c-15.9-1.1-31.7-3.8-47.7-3.6
         c0,0.3,0,0.7,0,1l0,0c0.7,0,1.3,0,2,0v0c14.2-0.1,28.1,2.7,42.2,3.4c7.5,0.4,14.9,1.4,22.4,1.5c16.7,0.2,33.3,0.4,50,0
         c29.4-0.7,58.9-1.6,88.2-3.1c18.1-0.9,36.2-2.4,54.3-1.7c21.6,0.8,43.1,2.8,64.7,3.6c24.2,0.9,48.4,4.6,72.7,0.3
         c6.7-1.2,13.3-3.1,18.1-7.7c12.2-11.8,27.2-12.4,42.5-11c10,0.9,20.2,2.6,28.8,8.7c0,0,0,0,0,0l0,0c3.6,0.7,7.3,1.3,10.9,2v0
         c-0.3-1.3-0.7-2.6-1.1-3.9c-0.6-1.5-1.1-3-1.7-4.5C702.5,278.3,701.9,277.1,701.2,275.9L701.2,275.9z"/>
       <path fill="#B67733" d="M184.6,583.4c14.7-2,28.2,3.1,39.4,13.2c5.4,4.8,11.1,9,17.9,11.4c10.9-0.2,21.6,0.9,32.2,3.5
         c7.5,1.9,15,2.7,22.7,2.5c22.3-0.6,44.6-0.1,66.9,1.3c21.7,1.3,43.3,1.2,64.5-4.2c15.2-3.9,30.6-6.7,45.9-9.6
         c10.5-2,21.2-2.1,31.8-3c6.4-0.5,12.6-0.9,18.5,2c4.4,2.2,8.5,1.3,11.8-2.3c7.1-7.7,16-10.3,26.1-10.3c10.3,0,20.6,1.6,30.8,2
         c22.7,0.8,44.6-4.4,66.5-9.2c5.8-1.3,9.9-4,12.6-9.4c1.2-2.4,1.1-3.9-0.9-5.6c-7.8-6.6-16.5-10.3-26.9-8.2
         c-1.2,0.2-2.8,0.2-3.9-0.3c-5.9-2.5-12-2.3-18.2-2.3c-2.5,0-5,0.4-7.3-1h0c-4-0.1-8.1,0.6-12-0.9c-15.5,1.3-31,3.7-46.5,3.9
         c-9.1,0.1-17.8-1.3-23.4-10.2c-2.9-4.5-8-6.8-13-8.8c-4.1-1.7-8.1-3.9-12.1-5.9c0,0,0,0,0,0c-1.7-0.1-3.4,0.2-5-0.2
         c-3.6-0.9-6.3-0.8-8,3.3c-1.3,2.9-4.5,3.7-7.3,2.2c-2.9-1.5-5.6-1.7-8.6-0.7c-0.9,0.3-2.3,0.4-2.9-0.1c-3.6-2.9-6.6-2.1-9.5,1
         c-0.3,0.3-1.1,0.7-1.3,0.6c-5.8-3.6-9.5,2.7-14.5,3c-1.6,0.1-3.1,0.6-3.3,2.5c-0.3,2.1,1.4,2.9,2.9,3.6c3.7,1.5,7.3,3.5,11.1,4.4
         c5.6,1.3,10.2,4.9,15.8,6c1.4,0.3,3.1,1,3,2.9c-0.1,2.2-2.1,2.3-3.7,2.7c-13.5,3-26.9,6.2-40.5,9c-8.5,1.8-16.4,5.7-25.1,6.5
         c-5.6,0.5-11.3,1.4-16.9,1.4c-22.1,0.1-44.2,3-66.3,2.1c-15.8-0.6-31.5-2.4-47-5.5c-11.8-2.3-23.7-3.9-35.7-3.5
         c-13.5,0.5-26.9-1.3-40.4-1.1c-18.8,0.2-37.5,1.6-56.3,2.5c-6.3,0.3-12.8-1.9-19.2-2.8c-2-0.3-4-0.4-5.9-0.6
         c-0.2,0.1-0.4,0.1-0.6,0.1l0,0l0,0c2.4,3.9,4.7,7.7,7.3,11.5c0.8,1.2,1.7,2.4,2.5,3.6c1.7,2.4,3.4,4.7,5.3,6.9
         C152.2,584.6,168.9,585.6,184.6,583.4z"/>
       <path fill="#B39D84" d="M119.8,566.2c3-2.2,6.2-0.4,9.3-0.2l0,0c9.5,0,18.9,1.2,28.4,1.1c20.6-0.3,41.3-2.2,61.9-1
         c23.4,1.4,46.9-0.2,70.2,4.5c6.9,1.4,14.2,1.3,21.4,1.3c15.3,0,30.6,0.2,45.9,1c2,0.1,4-0.1,5.9-0.6c4-1.1,5.6-3.1,3.8-7.7
         c-5.8-14.9-2.3-22.7,12.3-29.1c1.8-0.8,4.2-1.1,4.4-3.5c0.1-2.3-1.9-3.4-3.5-4.5c-5.1-3.6-10.7-5.8-17-6.6
         c-11.4-1.4-22.7-3.8-33.7-6.9c-7.7-2.1-15.4-2.1-23.2-1.6c-17.1,1.1-34.3,1-51.4,0.1c-12.5-0.7-24.9-0.8-37.4,0
         c-1,0.1-2,0.4-3,0.4c-28.5-1-56.8,3.9-85.3,3.2c-9.7-0.2-19.2-1.4-28.8-2.4c-1.9-0.2-3.8-1.2-5.7-1.8c0,0,0,0,0,0
         c3.1,9.1,6.7,17.9,10.8,26.5c0.3,0.6,0.5,1.2,0.8,1.8c1,2,1.9,4,3,6c0,0.1,0.1,0.2,0.1,0.3C112.1,553.2,115.8,559.8,119.8,566.2
         C119.8,566.2,119.8,566.2,119.8,566.2z"/>
       <path fill="#A0764D" d="M92,506c21.6,2.5,43.3,4.2,65.1,5c4.9-1.9,10-0.6,15-1c4.1-1.8,8.9-0.7,13-3h0
         c-11.9,0.7-15.6-8.4-19.9-16.8c-0.6-1.2-1.2-2.4-1.7-3.6c-1.3-3.6-3.8-5.6-7.5-6.6c-8.5-2.5-9.9-4.4-10-13.5c0-1.7-0.1-3.3-0.2-5
         c-0.2-3.8,1.5-6.4,5.2-7.5l0,0c-9.2-4-18.6-7.8-28.8-6.9c-14.7,1.4-29.4,1.1-44.2,1.9l0,0c0.8,6.3,1.8,12.6,3.1,18.8
         c0.9,4.5,2,9,3.1,13.4C86.4,489.5,89,497.8,92,506L92,506z"/>
       <path fill="#B6834C" d="M127.5,569.6c20.4,2.6,40.8,2.2,61.2,0.6c10.4-0.8,21,0.6,31.4,0.5c25.4-0.2,50.5,1.5,75.5,5.9
         c10.8,1.9,21.8,1.6,32.8,1.6c4.5,0,9,0.7,13.4,0.7c21.8-0.2,43.6-0.7,65.3-2.1c4.6-0.3,9.4-1,13.7-2.5
         c14.5-5.2,29.6-7.8,44.2-12.3c1.4-0.4,3.2-0.6,3.3-2.5c0.1-2.1-1.9-2.5-3.4-3c-10.3-3.8-21.1-6.1-30.4-12.3c-3-2-7.6-3.1-1.8-8
         c3-2.5,1.7-7.9,1.8-12c0.1-2.6-2.1-1.1-3.1-0.1c-2.4,2.3-4.5,4-5.8-0.9c-0.5-1.7-2-2.2-3.6-1.8c-9.2,2.2-18.2,0.5-27.2-1
         c-22.1-3.7-44.2-7.9-66.3-11.7c-5.2-0.9-10.6-1.4-15.9-1.3c-11.3,0.1-22.4-1.9-33.9-0.7c-10.5,1.1-21.3,1.2-31.9-0.4
         c-3.7-0.5-7.3,0.7-10.9,0.8c-15.8,0.2-31.6-0.7-47.4,0.5c-1.1,0.1-2.3-0.4-3.4-0.6c-4,2.3-8.8,1.2-13,3
         c18.3-0.5,36.6-1.8,54.9-1.3c14.5,0.4,28.9,0,43.4,0.7c9.5,0.5,19.3-0.2,28.9-0.4c13.6-0.3,26.8,0.9,40,4.4
         c15.9,4.2,32.5,5.3,48.4,9.8c7.8,2.2,14.2,7,21,11.2c2.4,1.4,4.7,3.8,3.9,7c-0.8,3.1-4,2.3-6.3,2.7c-3.8,0.7-7.2,3.4-11.4,2.3
         c-0.5-0.1-1.6,0.6-2,1.3c-2.2,3.7-2.2,7.6-1,11.6c1.1,3.5,3.8,4.6,7.3,4.9c4.6,0.5,9.2,1.5,13.7,2.4c1.8,0.4,3.7,1,3.9,3.3
         c0.2,2.3-1.6,3.2-3.3,3.9c-3.4,1.5-7,2.1-10.7,2.2c-19.1,0.4-38.3,0.6-57.4,1.1c-26.5,0.7-52.8-1.5-78.9-6.2
         c-10.2-1.8-20.9-1.8-31.3-1.7c-16,0.3-31.9-1.3-47.8-0.3c-20.6,1.4-41.2,1.8-61.7-1.3c-2.1-0.3-3,0.3-3.3,2.4
         c0.2,0.4-0.1,0.7,0.9,1.1v0c0,0,0.1-0.1,0.3-0.1c0,0,0,0,0,0C124.1,569,125.8,569.4,127.5,569.6z"/>
       <path fill="#A0968F" d="M217.6,657.4c10.4-0.8,20.8-1.8,31.1-3.4c8.5-1.3,15.7-3.7,19.9-12.6c2.6-5.7,8.5-8.9,14.4-11.4
         c-8.3-5.5-16.4-11.6-27-12c-8.1,3.3-16.4,5.6-25,7v0l0,0c-8.6,2.4-17.2,0.3-25.8-0.4c-5.1-0.4-10.3-1.1-15.4-1.2
         c-7.6-0.2-13.4,3.4-17.6,9.6l0,0c0.2,0.3,0.3,0.5,0.5,0.8c2,1.9,3.9,3.8,6,5.7c0.7,0.6,1.5,1.1,2.1,1.7c1.3-2.7,2.4-5.4,3.8-8
         c0.8-1.6,1.9-3.1,3.7-3.9c6.2-3,20,2.4,22.4,8.8c2.5,6.6-1.6,13.3-8.7,14.1c-2.2,0.2-4.4,0.4-5.1,3c0.2,0.2,0.4,0.4,0.6,0.5
         c2.3,1.8,4.7,3.7,7.1,5.5c0.1,0.1,0.2,0.1,0.3,0.2C208.6,658,213.3,657.7,217.6,657.4z"/>
       <path fill="#A88D71" d="M214.2,660c13.2,0.4,26.2-1.8,39.1-4.2c8.7-1.6,16.3-4.9,22.4-11.8c6.9-7.8,16.5-7.7,26-6.7
         c9.4,0.9,18.2,3.5,26.5,8.1c4.5,2.5,9.6,3.7,14.9,3.6c8.3-0.1,16.6,0,24.9,0h0c2,0.2,4,0.8,5.9,0.6c11.1-1.5,22.3-1.2,33.4-1.2
         c23,0,45.5-2.6,67.9-7.5c18.3-3.9,36.6-7.9,53.2-16.8c6.3-3.3,11.4-3.3,17.1,0.7c3.4,2.4,7.1,4.5,11.5,4.1c0,0,0,0,0,0
         c-7.1-2.9-12.3-9.9-20.8-10.1c-0.4,0-0.8-0.5-1.2-0.8c-11.2,6.3-23.2,10.7-35.7,13.9c-23.5,6.1-47.2,11.3-71.6,11.9
         c-12.7,0.3-24.9-3.7-37.4-5.4c-10.6-1.5-21.1-1.6-31.7-1.7c-21.3-0.2-42.8,0.6-63.6-5.8c-3.9-1.2-7.9-0.9-11.9-1l0,0
         c-5.9,2.5-11.8,5.7-14.4,11.4c-4.1,8.9-11.4,11.3-19.9,12.6c-10.3,1.5-20.7,2.6-31.1,3.4c-4.3,0.3-9,0.6-12.7,3.8
         c0,0,0,0.1,0.1,0.1c0.4,0.3,0.8,0.6,1.2,0.9c0.2,0.1,0.4,0.1,0.6,0.1C208.8,660.1,211.5,659.9,214.2,660z"/>
       <path fill="#B4895B" d="M125.5,567.6c20.5,3.1,41.1,2.6,61.7,1.3c16-1.1,31.9,0.5,47.8,0.3c10.4-0.2,21.1-0.2,31.3,1.7
         c26.2,4.7,52.4,6.9,78.9,6.2c19.1-0.5,38.3-0.7,57.4-1.1c3.7-0.1,7.3-0.7,10.7-2.2c1.7-0.7,3.4-1.7,3.3-3.9
         c-0.2-2.3-2.1-2.9-3.9-3.3c-4.6-0.9-9.1-1.9-13.7-2.4c-3.5-0.4-6.2-1.4-7.3-4.9c-1.2-4-1.2-7.9,1-11.6c0.4-0.6,1.5-1.4,2-1.3
         c4.2,1.1,7.6-1.6,11.4-2.3c2.4-0.4,5.5,0.4,6.3-2.7c0.8-3.2-1.5-5.6-3.9-7c-6.8-4.2-13.2-9-21-11.2c-15.9-4.5-32.5-5.6-48.4-9.8
         c-13.2-3.5-26.5-4.7-40-4.4c-9.6,0.2-19.4,0.9-28.9,0.4c-14.5-0.7-28.9-0.4-43.4-0.7c-18.3-0.5-36.6,0.8-54.9,1.3
         c-5,0.4-10.1-0.9-15,1c14.3,0,28.6,0.1,43-0.1c8.6-0.1,17.2-1.1,25.9-1c18.5,0.2,36.9,1.9,55.3,1.7c12-0.1,23.9-0.4,35.9-0.7
         c3.9-0.1,7.6,0.3,11.4,1.4c12.6,3.8,25.7,5.5,38.6,8c7.9,1.5,16.1,3.1,22.2,9.4c3.3,3.4,3,5-1.5,6.7c-1.1,0.4-2.3,0.6-3.3,1
         c-13,4.7-16.6,18.4-7.5,28.9c4.7,5.5,4.4,6.4-2.7,7.9c-5.9,1.2-11.8,1.8-17.8,1.8c-20.6-0.2-41.3,0.6-61.8-2.1
         c-5.8-0.7-11.6-1.6-17.2-3.1c-8.5-2.2-17.2-2.6-25.8-2.6c-19.6-0.2-39.3-1.7-58.9-1c-16.3,0.6-32.6,0.6-48.9,0.7
         c-5,0-9.9-0.6-14.7-2c-3.1-0.2-6.2-2-9.3,0.2c0,0,0,0,0,0c0.7,1.3,1.5,2.6,2.2,3.8l0,0C122.2,567.9,123.4,567.3,125.5,567.6z"/>
       <path fill="#AA8967" d="M94.1,512c1.9,0.6,3.8,1.6,5.7,1.8c9.6,1,19.1,2.1,28.8,2.4c28.5,0.7,56.8-4.2,85.3-3.2c1,0,2-0.3,3-0.4
         c12.5-0.9,24.9-0.7,37.4,0c17.1,0.9,34.3,1,51.4-0.1c7.9-0.5,15.6-0.5,23.2,1.6c11.1,3.1,22.3,5.5,33.7,6.9c6.3,0.8,11.9,3,17,6.6
         c1.6,1.1,3.6,2.3,3.5,4.5c-0.2,2.5-2.6,2.8-4.4,3.5c-14.6,6.3-18,14.1-12.3,29.1c1.8,4.6,0.2,6.6-3.8,7.7c-1.9,0.5-4,0.7-5.9,0.6
         c-15.3-0.9-30.6-1-45.9-1c-7.1,0-14.5,0.1-21.4-1.3c-23.2-4.7-46.8-3.1-70.2-4.5c-20.6-1.2-41.3,0.7-61.9,1
         c-9.5,0.1-18.9-1.1-28.4-1.1l0,0c4.8,1.4,9.8,2,14.7,2c16.3-0.2,32.6-0.1,48.9-0.7c19.6-0.7,39.2,0.9,58.9,1
         c8.5,0.1,17.3,0.5,25.8,2.6c5.6,1.4,11.4,2.3,17.2,3.1c20.5,2.6,41.2,1.9,61.8,2.1c6,0,12-0.6,17.8-1.8c7.1-1.5,7.5-2.4,2.7-7.9
         c-9.1-10.5-5.6-24.2,7.5-28.9c1.1-0.4,2.3-0.6,3.3-1c4.5-1.7,4.8-3.3,1.5-6.7c-6-6.3-14.3-7.9-22.2-9.4c-12.9-2.5-26-4.2-38.6-8
         c-3.7-1.1-7.5-1.5-11.4-1.4c-12,0.2-24,0.5-35.9,0.7c-18.4,0.2-36.9-1.6-55.3-1.7c-8.7-0.1-17.3,0.9-25.9,1
         c-14.3,0.2-28.6,0.1-43,0.1c-21.8-0.8-43.4-2.5-65.1-5l0,0c0.1,0.8,0.2,1.5,0.5,2.3c0.1,0.3,0.2,0.6,0.3,0.9
         C93.1,510.2,93.6,511.1,94.1,512C94.1,512,94.1,512,94.1,512z"/>
       <path fill="#9E7852" d="M159.8,591.6c9.2-2,16.6,3,18.1,12.4c1.6,10,1.6,10,11.5,10.1c12.8,0.1,25.5-1.1,38.2-3.4
         c2.1-0.4,4.3-0.4,6.4-0.6v0c2.7-0.7,5.3-1.3,8-2l0,0c-6.9-2.4-12.6-6.6-17.9-11.4c-11.2-10.1-24.8-15.2-39.4-13.2
         c-15.8,2.2-32.4,1.2-46.9,9.7c0.2,0.5,0.5,1,0.8,1.5c0.9,1.2,1.9,2.5,2.8,3.7c0.2,0.2,0.4,0.5,0.7,0.7
         C147.3,595.2,153.4,593,159.8,591.6z"/>
       <path fill="#9E7E60" d="M218.4,620.8c4.5,0.8,8.6-0.4,12.3-2.9c2.9-2,5.9-3.6,9.2-4.8l0,0c-1.9-1.3-4.4-1.3-6-3l0,0
         c-2.1,0.2-4.3,0.3-6.4,0.6c-12.6,2.2-25.3,3.5-38.2,3.4c-9.9-0.1-9.9,0-11.5-10.1c-1.5-9.3-8.8-14.4-18.1-12.4
         c-6.4,1.4-12.5,3.6-17.8,7.4c1.4,1.9,2.9,3.9,4.4,5.8c3.5,4.4,7.2,8.7,11,12.9c1.7,1.9,3.5,3.7,5.3,5.5
         C181.1,618.7,199.7,617.6,218.4,620.8z"/>
       <path fill="#A09B9A" d="M202.1,652c7.1-0.7,11.2-7.4,8.7-14.1c-2.4-6.3-16.2-11.7-22.4-8.8c-1.8,0.8-2.8,2.3-3.7,3.9
         c-1.4,2.6-2.6,5.4-3.8,8c1,1,2,2,3,2.9c3,2.6,6,5.2,9,7.8c1.4,1.1,2.7,2.2,4.1,3.2C197.7,652.4,199.8,652.2,202.1,652z"/>
       <path fill="#9F856C" d="M343,649c-5.3,0.1-10.4-1.1-14.9-3.6c-8.3-4.7-17.1-7.2-26.5-8.1c-9.5-1-19-1.1-26,6.7
         c-6.1,6.9-13.7,10.3-22.4,11.8c-12.9,2.3-25.9,4.6-39.1,4.2c-2.7-0.1-5.4,0.1-7.4,2.3c1.3,1,2.7,2,4,3.1c1.5-2.3,3.9-2.1,6.2-2.4
         c9.1-1,18.2-0.7,27.2-2.8c15.1-3.5,30.3-6.4,42.6-16.8c3.3-2.8,7.8-3.7,12.3-3.1c6.4,0.9,12.9,1.6,19,4.1
         c12.4,5,25.3,6.6,38.6,5.7c3.8-0.3,7.7,0.8,11.3-1h0C359.7,649,351.4,648.9,343,649z"/>
       <path fill="#9F8874" d="M172.2,632.9c4.2-6.2,10-9.7,17.6-9.6c5.1,0.1,10.3,0.8,15.4,1.2c8.6,0.7,17.1,2.8,25.8,0.4l0,0
         c4.7-3.9,10.4-6.7,14-11.9c0,0,0,0,0,0c-1.7,0-3.4,0-5,0l0,0c-3.3,1.2-6.4,2.8-9.2,4.8c-3.7,2.6-7.8,3.7-12.3,2.9
         c-18.8-3.2-37.3-2-55.8,2.4c0.5,0.7,1.1,1.5,1.7,2.2c1.5,1.6,3,3.1,4.5,4.6C170,630.9,171.1,631.9,172.2,632.9L172.2,632.9z"/>
       <path fill="#B0A08E" d="M134.1,279.9c2.8,0.2,5.6,0.6,8.4,1c15,2.3,29.8,5.2,45,5.1c5.1,0,10.4-1.1,15.4-0.5
         c11.8,1.3,23.3,0.7,34.5-3.4c2.7-1,5.4-1.7,8.2-2.2c15.2-2.6,29.8-7,43.6-13.8c4.3-2.1,8.9-3.6,13.8-4.1
         c11.8-1.1,23.6-1.5,35.3-2.1c8.4-0.4,17.1,0.5,24.9-3.8c8.8-4.8,9.4-4.6,11.4,5.2c0.2,0.8,0.2,1.7,0.5,2.5
         c2.5,8,6.7,14.6,15.3,16.9c11.2,3,20.6-1.3,25.7-12.5c3.4-7.5,8.9-11.5,16.6-12.8c4.1-0.7,8.3-0.4,12.4,0.5
         c7.7,1.7,14.9,4.9,22.2,7.7c11.5,4.4,23.4,6.5,35.5,7.6c2.1,0.2,5.3-0.3,5.7,2c0.4,2.8-3,2.3-4.8,3c-3.6,1.3-7.3,2.3-10.9,3.7
         c-2.1,0.8-4.9,1.5-4.4,4.6c0.4,2.7,3.2,2.5,5.2,3c17.5,4.1,35.1,0,52.6,0.2c12.6,0.1,25.1-2,37.7-1.7c5.1,0.1,10.3,1.7,15.2,0.4
         c6-1.6,12-3.6,17.5-6.8c10.6-6.2,21.8-11.4,30.3-20.8c2.4-2.6,3.6-5.3,3.9-8.9c1.3-14.3-10.4-21.7-20.6-22.3
         c-15.6-1.1-31.2-1.7-46.8-2.2c-25.1-0.8-50.2,3.1-75.4,1.9c-7.1-0.3-14.3-0.8-21.2-2.8c-10.6-3-20.9-6.8-31.7-8.9
         c-13.9-2.7-27.5-2.1-40.8,2.9c-11.9,4.4-23.1,10.3-32.9,18.5c-2.4,2-5.5,3.6-8,0.7c-7.3-8.4-17.5-9.7-27.3-10.3
         c-21.4-1.3-42.5,1.8-63.5,5.1c-6.2,1-11.4,4.6-17.7,4.6c0,0,0,0,0,0c0,0,0,0,0,0l0,0h0l0,0c-7.6,1.6-15.6,1.4-23,3.8
         c-23.7,7.5-48.5,10-72.6,15.7c-5.6,1.3-10.6,0.5-16-1.2c-9.1-2.8-17.4-7.5-26.7-9.7c-4.2-1-8.7,0.6-12.7-1.7
         c-0.5,0.8-1,1.7-1.5,2.5c-2.9,5.5-5.7,11-8.3,16.7c-0.5,1.2-0.9,2.4-1.3,3.6C112.7,272.4,122.1,279.2,134.1,279.9z M428.8,220
         c4.2-1.6,8.3,0.2,12.5-1c9.8-0.1,19.5,0.9,28.9,4c23.5,7.6,47.5,8.8,72,7.4c15.7-0.9,31.6-1,47.4,0.4c8.6,0.8,17.3,1,25.9,1.3
         c8,0.3,11.9,2.9,14.4,10.5c4.5,13.3-3.4,24.8-17.4,24.5c-13.3-0.3-26.6-2.4-39.8-1.7c-20.8,1.1-41.6,0.2-62.4,0.7
         c-16.1,0.4-31.3-3.3-46.3-8.9c-5.6-2.1-11.3-4-17.1-5.5c-12.3-3.2-23.4-0.9-32.9,7.8c-3.8,3.5-10.5,3.7-15.5,0.9
         c-5.7-3.2-9.1-8.8-8.3-14.1c1.3-9.2,8.6-16.1,17.5-19.4C414.7,224.1,421.9,222.6,428.8,220z M121.2,253.8
         c2.9-3.1,7.1-3.1,11.2-1.8c8,2.6,16.1,5.1,24.2,7.8c4.7,1.6,9.3,1.8,14.2,0.9c15.8-2.9,31.5-6.4,47.1-10.3
         c10.3-2.6,20.6-5.2,30.9-7.5c11.5-2.7,23.3-3.8,34.9-5.8c7.6-1.3,15.5-1.3,22.9-4c3.5-1.3,7.3-1.3,10.8-1.4
         c10.9-0.2,21.8-2.5,32.6,1.2c4.4,1.5,6.1,4.1,5.8,8.5c-0.7,9-5.5,13.6-14.4,13.8c-6.1,0.1-12.3-0.3-18.5,0.5
         c-15.9,0.9-31.6,1.5-46.6,8.9c-11.7,5.8-24.5,9.2-37.3,12.4c-8.4,2.1-16.9,2.7-25.4,3.7c-9,1.1-17.9,1.3-26.8,1.6
         c-13.6,0.5-27.2-0.3-40.6-3c-5.6-1.1-11.2-1.5-16.8-2c-6.3-0.6-8.9-4.8-10.7-9.7C117,262.5,117.7,257.5,121.2,253.8z"/>
       <path fill="#A7896B" d="M280,227c0.3-1.3,0.6-2.6,1-4l0,0c-2,0.4-2.9,2-4.2,3.2c-4.9,4.7-9.5,9.2-17.5,8.8
         c-8.5-0.4-17.1,2.8-25.8,0.2c-0.6-0.2-1.3,0.2-1.9,0.3c-16.2,4.9-32.3,1.9-48.5-0.3c-8.5-1.1-17.1-3.7-25.4,0.5
         c-4.2,2.2-8.6,2.4-13.1,2.1c-4-0.3-8.1-0.2-11.9-1.3c-4.2-1.1-9.2,1.1-12.7-2.9c-1.4,2.4-2.9,4.8-4.3,7.2c12.9,0,25,3.6,36.6,8.8
         c8,3.6,15.7,2,23.5,0.6c21.3-3.8,42.5-8.1,63.8-11.5c8.4-1.4,16.9-3.6,25.6-1.8h0l0,0c0,0,0,0,0,0c0,0,0,0,0,0c3.1-2,7.2-2.3,10-5
         l0,0C276.3,230,278,228.3,280,227z"/>
       <path fill="#B39D85" d="M113.9,243.8c4,2.3,8.5,0.8,12.7,1.7c9.3,2.2,17.6,6.9,26.7,9.7c5.4,1.7,10.4,2.5,16,1.2
         c24.1-5.7,48.9-8.3,72.6-15.7c7.5-2.4,15.4-2.2,23-3.8l0,0c-8.7-1.8-17.2,0.4-25.6,1.8c-21.3,3.5-42.5,7.8-63.8,11.5
         c-7.8,1.4-15.5,3-23.5-0.6c-11.6-5.2-23.7-8.8-36.6-8.8c-0.1,0.1-0.2,0.2-0.3,0.3c-0.4,0.8-0.9,1.6-1.3,2.4
         C113.9,243.7,113.9,243.8,113.9,243.8L113.9,243.8z"/>
       <path fill="#AFA091" d="M212.5,385.8c-5.6-1.8-10.8,0.4-15.8,2.7c-3.1,1.4-2.6,4.7-2.6,7.5l0,0c5.9-8.2,13.2-8.7,22.7-6.3
         c7.9,2,15.9,4.5,24.1,5.2c3.6,0.3,6.7,0.9,8.1,4.4c1.6,3.9-1.8,5.6-4,7.7l0,0c-4.9,3.2-11,3.1-16,6c8.3-1.1,16.1-3.8,24.1-6.2
         c2.3-0.7,3.9-1.3,4.5,1.5c2.5,12.1,11.7,14.1,21.8,14.7c0.8,0,1.7,0,2.5,0c11,0.1,12.8,2.8,9.2,13.3c-2.7,7.9,0,14.3,5.9,19.7h0
         l0,0c16.9,5.8,35,6.5,52,12h0c10.1-1.9,20.2-3.8,30.3-5.7c4.1-0.8,8-0.2,11.6,1.7c2.1,1.1,5.2,1.7,4.2,5.1
         c-0.6,2.2-6.8,4.7-8.9,3.9c-1.7-0.7-3.2-1.7-5-2.3c-3.2-1.1-5.8,0.7-8.3,2.3c1.3,1.2,2.8,2,4.5,1.9c8.7-0.6,17.6,2.2,25.9-2.3
         c1.5-0.8,3.3-0.6,4.9-0.2c2.2,0.5,4.3,0.1,6.3-0.8c3.7-1.7,7.5-2.6,11.4-3.6c8-4.9,16.7-7.9,26-9c0,0,0,0,0,0s0,0,0,0
         c4.7-2.5,9.5-4.8,14-7.6c7.5-4.5,15.3-7.9,23.8-10.3c7.4-2.1,15.2-2.4,22.1-6.1c7.9-4.2,10.9-9.8,10.1-19.3
         c-0.7-8-6.2-14.5-13.7-16.7c-5.5-1.6-10.8-0.6-16.3-0.2c-21.3,1.7-40.1,8.8-56,23.5c-3.6,3.3-7.4,7.9-12.6,7.3
         c-6.7-0.9-13.7-1.9-19.5-5.6c-8.7-5.5-18.4-5.8-27.9-5.6c-10.8,0.1-21.5,1.6-32.4,1.7c-4.9,0-9.6-0.5-14.3-1.7
         c-9-2.4-9.1-2.3-9.1-11.5c-0.1-8.2-1.7-11-9.5-13.1c-15.1-4.1-30.5-3.9-45.9-2.3c-2.3,0.2-4.5,1.2-5.9,3.3c-0.9,1.4-2,2.1-3.8,1.2
         c-9.5-4.3-20-4.4-29.8-7.1h0v0C220.8,388.1,216.6,387.2,212.5,385.8z M384.4,452.2c-8.7,3.8-18,6-27.5,6.7
         c-9.3-1-18.4-2.5-27.3-5.5c-1.4-0.5-2.9-1.1-4.3-1.1c-4.4,0-7.2-1.8-8.4-6.2c-1.1-4.3-0.1-7.2,2.7-11.1c5.5-7.8,13.5-6.8,20.8-8.4
         c10.6-2.3,21.3-3.6,32.1-1.7c8.2,1.4,13.5,6.8,17.5,13.6C392.6,442.8,389.7,449.8,384.4,452.2z M454.8,415.4
         c11.5-6.9,24-10.1,37.5-8.3c1.7,0.2,3.2,0.7,4.5,1.9c8.1,8,6.5,20.2-3.6,24.9c-8.9,4.1-17.9,7.9-27,11.6
         c-10.7,4.3-22.2-3.7-22.1-15.6C443.3,422.2,449.3,418.7,454.8,415.4z"/>
       <path fill="#B39D85" d="M291.1,436.3c3.6-10.5,1.8-13.2-9.2-13.3c-0.8,0-1.7,0-2.5,0c-10.2-0.6-19.3-2.6-21.8-14.7
         c-0.6-2.8-2.2-2.2-4.5-1.5c-7.9,2.4-15.8,5.1-24.1,6.2c-1.7,0.5-3.5,1.3-5.2,1.5c-5.6,0.7-8.7,2.7-9.3,9.3
         c-0.9,10.9-15,19.8-25.7,13.3c-5.5-3.3-12.9-2.3-18.4-6.6c-1.2-0.9-3-0.5-4.4,0c-6.7,2.6-13,1.7-19.9-0.4
         c-6.3-1.9-13.3-4.1-19.8,0c-3.5,2.2-6.9,4.6-10.4,6.9h0c2.7,0.2,5.2-0.7,7.7-1.7c10.3-4.1,20.2-2.4,29.1,3.2
         c4.7,3,9.4,4.8,14.7,5.2c5.2,0.4,10.2,1.5,15.2,3c6.5,2,12.9,2.8,19.7,1.4c3.6-0.7,7.3-1.1,10.9-0.9c11.7,0.7,23.7,0.6,34.6,6.1
         c1.4,0.7,3.3,0.3,4.9,0.8c3.7,1.1,8.1-0.5,11.1,1.9c3.3,2.7,6,2.2,9,0.5c1.5-0.9,2.9-1.4,4.7-1.3c6.4,0.3,12.9,0.5,19.4,0.8h0
         C291.1,450.6,288.4,444.3,291.1,436.3z"/>
       <path fill="#A5A4A6" d="M249,399.3c-1.5-3.6-4.6-4.1-8.1-4.4c-8.2-0.7-16.2-3.2-24.1-5.2c-9.5-2.4-16.8-2-22.7,6.3l0,0
         c0,0,0,0,0,0c-4.2,2.1-7.2,0.7-9.7-3c-1.6-2.4-2.6-5.4-5.4-7c-4.3-0.1-8.6,0-12.6,2.2c-2.4,1.3-5.2,0.7-7.8,0.3
         c-7.5-1.2-15-3-22.7-1.1c-6.4,1.6-7.6,3.2-6.8,9.7l0,0l0,0c2.1,0.4,3.6,1.8,4.8,3.4c5.8,7.3,13.2,8.2,22,7.1
         c10.9-1.3,22-2.7,32.9,1.5c5,1.9,10.4,5,15.9,3.7c9.9-2.4,20.3-0.9,30.1-4.2c3.2-1.1,6.9-1,10.3-1.5l0,0
         C247.2,404.9,250.6,403.3,249,399.3z"/>
       <path fill="#AF9172" d="M78.3,448L78.3,448c4.1,0,7.9-1,11.8-2c8.4-2.1,17-0.2,25.4-1.4c8.4-1.2,16.6-1,24.7,1.4
         c9.4,2.8,19.1,4.6,28.7,6.6c12.4,2.6,24.7,6.1,37.4,5.2c13.6-1,26.9,0.4,39.8,4.6c11.6,3.8,23.4,5.8,35.3,2.4
         c14.4-4.1,28.3-1.1,41.7,3.1c14.7,4.6,29.4,8.6,44.4,11.4c12.4,2.3,25,3.1,37.3,0.9c29.5-5.3,57.5-15.4,84.8-27.5
         c21.4-9.5,42.8-19.4,66-24c14.7-2.9,29.1-7,44.3-7c11.3,0,22.6,2.3,33.8,1.9c19.5-0.8,37.5,5.2,55.7,10.4
         c10.9,3.2,21.9,5.3,33.2,6c-1.1-3-4-2.8-6.3-3.1c-9.6-1.1-19-2.4-28.1-6c-9.7-3.8-20.2-5.5-30.5-7.4c-11.8-2.1-23.9-1.4-35.8-3
         c-15.2-2.1-30.3-2.2-45.6,0.6c-27.2,5-53.3,13.5-78.4,24.8c-22.5,10.1-45.4,19-68.9,26.4c-22.6,7.1-45.1,9.2-68.3,3.9
         c-13.8-3.1-27.2-7.9-40.8-11.5c-11.3-2.9-22.9-6.3-34.5-3.4c-14.1,3.5-27.3,2.3-40.6-2.8c-9.4-3.6-19.3-4.9-29.4-5
         c-7.6-0.1-15.2,1.3-22.9,0.2c-15.8-2.4-31.7-4.2-46.3-11.4c-5.3-2.6-10.9-4.1-16.9-2.8c-12.6,2.7-25.3,3.5-38.2,3.2
         c-4.5-0.1-8.9,0.9-13,3c0,0,0-0.1,0-0.1C78.2,446.7,78.2,447,78.3,448z"/>
       <path fill="#9D958E" d="M135.8,387.3c7.7-1.9,15.2,0,22.7,1.1c2.7,0.4,5.4,1,7.8-0.3c4-2.2,8.3-2.3,12.6-2.2
         c-5.5-3.2-12.3-0.1-17.6-3.9c-0.7-0.5-1.5-0.7-2.3-1c0,0,0,0,0,0c-3.7,0-7.4,0-11.1,0c-4.2,1.8-8.6,0.9-12.9,0.9c0,0,0,0,0,0
         c0,0,0,0,0,0c-0.7,0-1,0-2,0c0,0,0,0,0,0c-5,3.7-11,4.8-16,7c0,0,0,0,0,0c0,1.6-0.6,3.2-1.1,4.8c-0.9,2.8-0.5,5.2,2,6.9
         c2.5,1.7,5,1.1,7.3-0.6c1.3-1,2.5-2.1,3.8-3.1l0,0C128.2,390.5,129.5,388.9,135.8,387.3z"/>
       <path fill="#AF763B" d="M395,199.2c23.9-1.3,47.2-5.4,70-12.2c-5.2-1.5-10.6-1.9-15.9-1.4c-5.1,0.4-10.1-0.9-14.5-2.7
         c-4.8-2-4.8-7.7-5.1-12.2c-0.3-3.8,3.3-4.6,6.3-5.9c12-5,24.3-8.5,37-11c2.8-0.6,3.5-2.5,2-4.9c-1.9-3-4.6-5.2-7.8-6.8
         c-13.8-7-28.8-9.4-43.7-11.7c-19.6-3.1-39.2-6-58.8-8.8c-4.4-0.6-9-1.3-13.3,1.4c9.7,2.7,13.9,9.9,17,18.4
         c2.4,6.7,1.3,9.6-5.3,12.6c-1.4,0.6-3.8,0.6-3.5,2.8c0.2,1.7,2.3,1.6,3.7,2.1c2.7,1.1,5.9,2.2,4.5,5.9c-1.4,3.8-4.8,3.8-8,2.5
         c-18-7.6-35.2-3.8-52.2,3.2c-3.1,1.3-6.2,2.5-9.2,3.8c-1.2,0.5-2.6,1-2.4,2.7c0.2,1.4,1.4,1.8,2.5,2.1c3.4,0.7,6.9,1.3,10.3,1.9
         c2.6,0.5,5.3,0.8,7.8,1.4c9.9,2.4,13,7.3,11.2,17.5c-1.4,7.8-1.4,7.8,6.5,9.1c-0.5,0.2-1,0.3-1.4,0.4c0.5-0.1,1-0.2,1.4-0.4
         c13.5-0.5,26.7-3.2,39.9-6C380.9,201.6,387.9,199.6,395,199.2z M378.5,152.2c2.2-1.8,4.5-3.4,6-5.9c1.9-3.2,1.9-6.2,0.1-9.4
         c-3.5-6.2-2.6-7.9,4.6-8.7c1.2-0.1,2.3-0.1,4.5-0.2c10.5,1.8,22,3.6,33.5,5.6c9.2,1.6,18.4,3,27.3,6.1c1.4,0.5,2.9,1,4.2,1.7
         c1.5,0.8,3.9,1.4,3.4,3.7c-0.4,2-2.6,1.8-4.2,2c-3,0.4-5.9,0.8-8.9,1.1c-9.3,1.1-18,3.3-26.2,8.7c-13.5,8.9-28.3,8.5-43,2.8
         C374.8,157.7,374.4,155.5,378.5,152.2z"/>
       <path fill="#A87744" d="M327.5,199.9c1.8-10.2-1.2-15.1-11.2-17.5c-2.6-0.6-5.2-1-7.8-1.4c-3.4-0.6-6.9-1.2-10.3-1.9
         c-1.1-0.2-2.4-0.7-2.5-2.1c-0.2-1.7,1.2-2.2,2.4-2.7c3.1-1.3,6.1-2.6,9.2-3.8c17-7,34.3-10.8,52.2-3.2c3.2,1.3,6.6,1.3,8-2.5
         c1.3-3.7-1.8-4.8-4.5-5.9c-1.3-0.5-3.5-0.4-3.7-2.1c-0.2-2.2,2.1-2.2,3.5-2.8c6.6-3,7.7-5.9,5.3-12.6c-3-8.5-7.3-15.7-17-18.4
         c4.3-2.7,8.9-2.1,13.3-1.4c19.6,2.8,39.2,5.7,58.8,8.8c15,2.4,30,4.8,43.7,11.7c3.2,1.6,5.9,3.8,7.8,6.8c1.5,2.4,0.8,4.3-2,4.9
         c-12.7,2.6-25,6.1-37,11c-3.1,1.3-6.7,2.1-6.3,5.9c0.4,4.5,0.4,10.3,5.1,12.2c4.4,1.8,9.3,3.1,14.5,2.7c5.3-0.4,10.7,0,15.9,1.4
         c13.6-3.5,25.5,2.5,38.5,7.9c-4.3-4.6-6.1-9.4-12.1-10.8c-11.1-2.6-21.9-6.4-33.5-6.2c-3.6,0.1-8-4.5-7.6-7.8c0.5-4,3.4-5.9,7.4-6
         c2.4-0.1,4.6-0.7,6.8-1.2c5.3-1.1,10.7-1.8,16.1-2.4c1.9-0.2,3.7,0,4.7-2c1-2,0-3.5-1.3-4.9c-5.2-5.5-10.4-10.6-17.7-13.5
         c-8.4-3.4-16.9-6.4-25.7-8c-27.5-5-55.2-9-82.6-14.7c-4.5-1-9.2-0.5-13.1,1.9c-4,2.4-8.2,4.6-12.5,6.2c-4.4,1.7-7.5,4-10,8.1
         c-1.8,2.9-4.3,5.7-8.2,6.8c-3.5,0.9-3.9,3.9-2.1,6.8c1.1,1.9,2.8,3.4,4.4,5.4c1.4-8.3,1.9-8.6,8.1-4.6c2,1.3,3,0.7,3.9-1
         c0.9-1.7,2-3.4,4.3-2.3c2.1,1,3.3,2.8,3,5.3c-0.3,2.5-2,3.7-4.5,3.8c-1.6,0-3.3-0.5-4.7,0.9c-2.4,2.5-5.2,3.6-8.5,1.7
         c-1-0.6-1.9-0.3-2.7,0.4c-2.6,2.5-4.7,1.4-6.8-0.8c-1.1-1.1-2.2-3-4.1-2c-1.8,0.9-1.4,2.9-1.4,4.5c0,6.9-1.2,8.5-8,10.1
         c-2.9,0.7-5.9,1.3-8.8,1.7c-7.4,1-14.1,3.8-20.8,6.8c-3,1.3-5.7,4.1-4.7,7.4c1.1,3.7,4.7,1.7,7.4,1.4c0.8-0.1,1.6-0.4,2.5-0.4
         c13.3-1.5,26.6-4.2,39.9,0.9c4.7,1.8,6.1,4.8,5.9,9.1c-0.1,2.6-0.8,5.3-1.6,7.8c-1.2,3.5-0.1,5.9,3.4,6.3
         c4.8,0.5,9.6,1.1,14.3-0.1c0.5-0.1,1-0.3,1.4-0.4C326.1,207.6,326.1,207.6,327.5,199.9z"/>
       <path fill="#B38E67" d="M280,227c1.6-0.4,3.2-0.9,4.8-1.2c13.1-2.8,26.4-3.1,39.7-4.1c16.4-1.1,32.6-0.6,48.8,1
         c8,0.8,16.2-0.2,23.3-3.7c12.3-6,25.1-10.1,38.6-10.6c5.6-0.2,11.6-1.6,17.3,0.3c4,1.3,7.9,2.6,12.1,0.7c1.9-0.8,3.5,0.4,5,1.6
         c3,2.6,6.2,2.7,8.9-0.2c2.7-2.8,5.1-2.9,7.7-0.2c2.2,2.2,4.5,2.6,7.1,0.8c2.4-1.6,5-1.9,7.7-1c3.9,1.3,7.3,0.2,11.1-0.8
         c6.1-1.7,12.8-0.7,18.6-4.1c0.2-0.1,0.7,0,1,0c9.4,2.3,18.3-1.4,27.5-1.8c1.9-0.1,4-1,5.5-2.1c4.3-3,9.1-3.9,14.2-3.7c0,0,0,0,0,0
         c-2-1.2-4.2-0.9-6.3-1c-17.3-0.5-34.5,0.8-51.6,3l0,0c-1,0.3-2,0.4-2.9,0.8c-12.7,5.6-24.3,3.8-35.1-4.7
         c-4.6-3.6-9.9-3.5-15.3-2.5c-19.6,3.7-39.1,8.2-59.3,7.5c-13-0.4-25.4,3-37.6,7h0c-6.3,4-13.4,5.6-20.6,6.8
         c-16,2.7-32.3,3.1-48.4,4.3c-7,0.5-13.9,1.1-20.9,3.9v0C281,224.3,280.3,225.7,280,227z"/>
       <path fill="#A88D71" d="M575,630C575,630,575,630,575,630c-5.9-2-12-0.5-17.9-1C562.9,631,569,629.5,575,630z"/>
       <path fill="#B39D85" d="M381.3,470.7c1.7,0.6,3.3,1.6,5,2.3c2.1,0.9,8.3-1.6,8.9-3.9c0.9-3.4-2.2-4-4.2-5.1
         c-3.6-1.9-7.6-2.5-11.6-1.7c-10.1,1.9-20.2,3.8-30.3,5.7l0,0c4.3,1,8.7,2,13,3c3.4-3.6,6.1-0.4,9,1l0,0h0c0.7,0.3,1.3,0.7,2,1l0,0
         C375.5,471.4,378.1,469.6,381.3,470.7z"/>
       <path fill="#A59688" d="M200,382C200,382,200,382,200,382c-4,0-8,0-12,0l0,0c0,0,0,0,0,0c-0.7,0-1.3,0-2,0c-5.7,1.6-11,1.5-17,0v0
         c-3-0.5-6.5-1-9.9-1c0,0,0,0,0,0c0.8,0,1.6,0.6,2.3,1c5.3,3.7,12.2,0.7,17.6,3.9c2.8,1.5,3.7,4.6,5.4,7c2.5,3.7,5.7,5.1,9.7,3
         c0,0,0,0,0,0c0-2.8-0.5-6.1,2.6-7.5c5-2.2,10.3-4.5,15.8-2.7c4.1,1.4,8.3,2.2,12.5,3.2h0c0-1,0-1.3,0-2l0,0
         C216.7,385.3,208.3,383.7,200,382z"/>
       <path fill="#B39D85" d="M426,468c9.4-0.8,17.6-5.2,26-9c0,0,0,0,0,0C442.7,460.1,434,463.1,426,468z"/>
       <path fill="#A59688" d="M280,387c1,0.2,2,0.4,3,0.5c7.6,1.2,15.2,1.5,22.9,1.4l0,0C297.4,386.9,288.7,386.9,280,387z"/>
       <path fill="#AFA091" d="M362,471c2.7,2.8,5.8,3,9,1l0,0C368.1,470.6,365.4,467.4,362,471z"/>
       <path fill="#A85039" d="M639,471L639,471L639,471c-6.9-0.2-13.9,0.5-20.8-1c-5.9-1.3-10.9-3.9-14.2-9c-8.2-0.2-16.2,0.3-24,3
         c0,0,0,0,0,0c-1.2,5.5-5.7,7.6-10.2,9.4c-7.1,2.9-14.2,5.8-21.5,7.9c-12,3.5-21.5,10.7-30.9,18.6c-7.8,6.5-14.4,13.7-18.4,23.1v0
         c3,3,5.9,6,8.9,9c0,0,0.1,0,0.1,0v0c4,2,7.9,4.2,12,5.9c5,2,10.1,4.3,13,8.8c5.7,8.8,14.4,10.2,23.4,10.2
         c15.6-0.1,31-2.6,46.5-3.9c2.2-0.9,4.2-2,6.5-2.6c15.3-3.7,29.1-10,41-20.6c9.9-8.7,20.6-16.4,24.6-29.9l0,0
         c-1-8.9-4.5-16.1-13-20c0,0,0,0,0,0c0,0,0,0,0,0C654.2,477.4,646.5,474.5,639,471z"/>
       <path fill="#B77C3D" d="M178.5,467.1c7.9-0.1,14.8,3.2,21.5,6.9v0c23.4-1.2,46.7,3.6,70.2,2c11.4-0.8,22.9-1.6,34.3-2.6
         c6.7-0.6,12.8,1.3,18.9,3.4c5.8,2,11.4,4.7,17.6,5.3c8.6-3.1,17-3,25,2c14.4,2.9,29.1,3.9,43.7,2.7c11.1-0.9,22.2-1.1,33.3-2.7
         c6.6-0.9,13.1-2.9,19.6-2.9c6-0.1,11.8-1.5,18-0.8c5.2,0.6,10.7,0,16,0.8c4.3,0.6,8.7,0.4,12.4,3c4.5-0.9,8.5-2.9,12.3-5.3
         c12.2-7.4,25.8-11.4,38.8-17c11.8-5,24.6-5.2,37-7.7c1.9-0.4,3.9-0.7,5.9-1l0,0c3.2-2,4.6-4.9,5.2-8.7c1.2-7.6,5.5-11.8,13-13.1
         c3.6-0.6,7.2-1.1,10.9-1.3c15.6-0.6,29.7,5.1,43.7,10.9c5.4,2.2,10.4,5.2,16.5,5.1c9.8-0.2,19.6,1,29.3,2c0,0,0,0,0,0
         c0.8-6-3.9-5.4-7.2-5.8c-14.5-1.9-28.9-4.4-42.8-9.4c-5.2-1.8-10.4-3.6-15.8-4.5c-17.6-3-35.4-3-53.1-2.2
         c-30.1,1.2-58.9,8.2-86.7,19.4c-26.1,10.5-51.5,22.8-78.8,30.1c-11.3,3-22.4,6.9-34.1,7.3c-25.4,1.1-50.3-2.5-74.2-10.7
         c-17.1-5.8-33.8-6.3-51-2.2c-2.9,0.7-5.9,1.1-8.9,0.9c-22.6-1.5-44.9-5.3-67.2-8.5c-16.3-2.3-32.2-7-48.7-8.3
         C159.4,462.5,167.6,467.3,178.5,467.1z"/>
       <path fill="#AF773D" d="M145.8,461.5c0.1,1.7,0.2,3.3,0.2,5c0.1,9,1.5,11,10,13.5c3.6,1.1,6.2,3,7.5,6.6c0.4,1.2,1.1,2.4,1.7,3.6
         c4.3,8.4,8,17.5,19.9,16.8h0c1.1,0.2,2.3,0.7,3.4,0.6c15.8-1.3,31.6-0.3,47.4-0.5c3.7-0.1,7.2-1.3,10.9-0.8
         c10.6,1.5,21.4,1.5,31.9,0.4c11.4-1.2,22.6,0.8,33.9,0.7c5.3,0,10.7,0.4,15.9,1.3c22.1,3.8,44.2,8,66.3,11.7c9,1.5,18,3.2,27.2,1
         c1.6-0.4,3.2,0.1,3.6,1.8c1.3,4.9,3.4,3.2,5.8,0.9c1-1,3.2-2.4,3.1,0.1c-0.1,4,1.1,9.5-1.8,12c-5.7,4.9-1.2,6,1.8,8
         c9.3,6.2,20.1,8.5,30.4,12.3c1.5,0.6,3.5,0.9,3.4,3c-0.1,1.9-1.8,2-3.3,2.5c-14.6,4.5-29.8,7.1-44.2,12.3
         c-4.3,1.5-9.1,2.2-13.7,2.5c-21.8,1.4-43.5,1.9-65.3,2.1c-4.5,0-9-0.7-13.4-0.7c-11,0-22,0.4-32.8-1.6c-25-4.5-50.1-6.1-75.5-5.9
         c-10.4,0.1-21-1.3-31.4-0.5c-20.4,1.5-40.8,1.9-61.2-0.6c-1.6-0.2-3.4-0.6-4.2,1.4c0,0,0,0,0,0c2,0,4,0.3,5.9,0.6
         c6.4,1,12.8,3.1,19.2,2.8c18.8-0.9,37.5-2.2,56.3-2.5c13.5-0.2,26.9,1.6,40.4,1.1c12-0.5,23.9,1.1,35.7,3.5
         c15.5,3.1,31.2,4.9,47,5.5c22.2,0.9,44.2-2,66.3-2.1c5.6,0,11.3-0.9,16.9-1.4c8.7-0.8,16.6-4.7,25.1-6.5c13.5-2.9,27-6,40.5-9
         c1.6-0.4,3.6-0.5,3.7-2.7c0.1-1.8-1.6-2.6-3-2.9c-5.6-1.1-10.3-4.7-15.8-6c-3.8-0.9-7.5-2.8-11.1-4.4c-1.6-0.7-3.2-1.5-2.9-3.6
         c0.2-1.8,1.7-2.4,3.3-2.5c5-0.3,8.7-6.6,14.5-3c0.2,0.2,1-0.2,1.3-0.6c2.9-3.1,5.9-3.9,9.5-1c0.6,0.5,2,0.4,2.9,0.1
         c3-1,5.7-0.8,8.6,0.7c2.8,1.5,6.1,0.7,7.3-2.2c1.8-4.1,4.4-4.2,8-3.3c1.6,0.4,3.3,0.2,5,0.2c0,0,0,0,0,0c-3-3-6-6-8.9-9
         c-1.7-0.3-3.4-0.6-5.1-0.9c-5.3,4-13.1,3.5-17.8-1.2c-2.5-2.6-2-4.6,1.6-5.7c4.3-1.3,8.6-2.5,13.2-2.1c2.9-7.8,9-12.9,14.8-18.4
         c16.1-15.4,35.1-25,56.5-30.4c5.9-1.5,11.8-1.7,17.8-0.2v0c0,0,0,0,0,0c7.8-2.8,15.9-3.2,24-3c3.2-1.5,6.6-2,10.2-2
         c10.5-0.1,21,0.8,31.4-0.9c2.6-0.4,5.3,0,7.9,0.9c2.3,0.9,4.4,1.8,4.2,4.8c-0.2,2.7-2.1,4.2-4.5,4.7c-4.7,1-9.5,1.7-14.3,2.5l0,0
         c7.5,3.5,15.1,6.4,23,8.9c0,0,0,0,0,0c-1.5-1-3.2-1.8-4.5-3.1c-1.6-1.5-5.6-1-5-3.8c0.5-2.4,3.9-1.8,6.1-2.3
         c3.7-0.8,7.3-1.9,7.3-6.7c0-4.7-3.3-6-7-7c-7.8-2.1-15.5-0.1-23.2,0.6c-11.2,0.9-22.1-0.7-32.6-4.6h0c-2,0.3-3.9,0.6-5.9,1
         c-12.3,2.5-25.2,2.7-37,7.7c-13,5.5-26.6,9.6-38.8,17c-3.8,2.3-7.9,4.3-12.3,5.3c-1.9,2.9-4.7,4.4-7.8,5.9
         c-6.9,3.2-13.3,7.3-20.5,10c-8.3,3.1-16.5,6.6-25.3,8.3c-2,0.4-4.1,0.8-5.4,2.4c-2.9,3.7-6.8,4.2-11.1,4.5
         c-5.3,0.3-10.6,1.3-15.7,2.4c-15.1,3-29.7,1.4-44.3-2.7c-12.5-3.5-25.4-4.9-38.2-6.8c-15.3-2.2-30.8-2.1-46.2-3.3
         c-10.2-0.8-20.6,0.4-30.9,0.3c-16.8-0.3-33.6-1-50.4-1.5c-0.2,0-0.3,0-0.5,0c-11.4-0.3-13.5-2.3-13.8-14c-0.1-3.4-1-6.6-2-9.8
         c-1-3-0.1-4.9,3-5.6h0v0c-6.7-3.7-13.7-7.1-21.5-6.9c-10.9,0.2-19.1-4.5-25.4-13c-0.7,0-1.4,0-2.1-0.1l0,0
         C147.3,455.2,145.6,457.7,145.8,461.5z"/>
       <path fill="#B29C84" d="M283,630L283,630c4,0.1,8-0.2,11.9,1c20.8,6.4,42.2,5.6,63.6,5.8c10.6,0.1,21.2,0.2,31.7,1.7
         c12.5,1.7,24.8,5.7,37.4,5.4c24.4-0.6,48.1-5.9,71.6-11.9c12.4-3.2,24.5-7.5,35.7-13.9c3.6-2.2,8.6-3.1,8-9.1v0
         c-5.9,0.4-12,3-17.4-1.1c-4.4-3.3-9.2-4.4-14.5-3.9c-3.3,0.3-6.6,1.1-9.9,0.9c-19.8-1-39,3.5-57.6,8.4
         c-24.8,6.6-49.8,7.7-75.1,8.8c-8.5,0.4-16.9-0.3-25.4,0.2c-13.5,0.9-26.8,0.1-40.2-0.8c-12.7-0.9-24.7-5.5-37.2-7.1
         c-4-0.5-7.3,0.1-9.6,3.6h0C266.6,618.4,274.7,624.5,283,630z"/>
       <path fill="#A09B99" d="M632.4,598c-9.5,0.4-19,1.3-28.4,0.8c-8.6-0.5-17.3-0.3-25.9-0.9c-9.6-0.7-17.8,1-23.8,9.2
         c-1,1.4-3,2-4.6,2.9c-1.8,1-2.5,2.3-0.3,3.1c4.4,1.5,6.3,5.1,8.5,8.7c1.8,2.9,4.8,4.2,8.1,4.2c16.4,0.2,33,1,48.2-7.1
         c4.1-2.2,9.3-3,12.9-5.3c6.2-3.9,12.5-7.9,18.4-12.9C641.1,599.1,636.9,597.8,632.4,598z"/>
       <path fill="#B39D85" d="M246.9,286.1c4.6,1.6,9.3-0.2,13.8,0.3c19.6,1.8,39.2,0.8,58.8,0.3c16.3-0.5,32.6,0.1,48.8-1.7
         c4.3,0,8.7,0.1,13-0.1c2.5-0.1,4.1-1.8,1.8-3.9c-6-5.6-8.9-12.8-11.2-20.3c-0.7-2.3-2.2-2.6-4.3-2c-14.7,4.5-30,4-45,4
         c-11,0-21.5,1.1-31.7,5.1c-5.3,2.1-10.5,4.2-15.6,6.6c-9.1,4.1-18.8,5.3-28.4,7.4c-1.5,0.3-3.9,0.2-3.8,2.4
         C243.4,285.9,245.6,285.6,246.9,286.1z"/>
       <path fill="#B39D85" d="M416.4,284.8c10.3-2,20.6,0,29.1-0.8c7,0,12.2,0.3,17.3-0.1c5.1-0.4,10.3,0.5,15.2-1.9
         c5.7-2.8,11.4-5.4,17.8-6.3c1.4-0.2,3.5-0.4,3.2-2.3c-0.2-1.6-2.1-1.2-3.4-1.4c-12.9-1.3-25.1-5-36.9-10.2
         c-7.8-3.4-15.6-5.5-24.2-4.9c-7.9,0.5-13.3,4.1-15.8,11.5c-1.4,4-3.1,7.7-5.4,11.2c-0.8,1.2-2.2,2.4-1,4
         C413.3,284.9,414.9,285,416.4,284.8z"/>
       <path fill="#AA8D70" d="M186,382c-5.7,0-11.3,0-17,0c0,0,0,0,0,0C174.7,383.5,180.3,383.6,186,382z"/>
       <path fill="#AA8D70" d="M148,381.1c-4.3,0.3-8.7-1.1-12.9,0.9c0,0,0,0,0,0C139.4,382,143.8,382.9,148,381.1z"/>
       <path fill="#AA8D70" d="M200,382C200,382,200,382,200,382c-4-1.5-8-1.5-12,0l0,0C192,382,196,382,200,382z"/>
       <path fill="#B68B5E" d="M666.2,277.3c-15.3-1.4-30.3-0.8-42.5,11c-4.8,4.6-11.4,6.5-18.1,7.7c-24.3,4.3-48.5,0.6-72.7-0.3
         c-21.6-0.8-43.1-2.8-64.7-3.6c-18.1-0.7-36.2,0.8-54.3,1.7c-29.4,1.5-58.8,2.4-88.2,3.1c-16.6,0.4-33.3,0.2-50,0
         c-7.5-0.1-14.9-1.2-22.4-1.5c-14.1-0.7-28.1-3.5-42.2-3.4c0,0.3,0,0.7,0,1l0,0c5.4,0.5,10.9,1.1,16.3,1.6c12.6,1,25,3.6,37.7,3.5
         c4,0.3,8.1-0.8,12,1l0,0c16,0,32,0,48,0c0.7-0.4,1.3-0.5,2-0.5c5.6-1.2,11.3,0,17-0.5l0,0c4.7,0,9.3,0,14,0c5.6-2,11.3-0.6,17-1
         c0,0,0,0,0,0h0c4,0,8,0,12,0c4.2-1.9,8.7-0.6,13-1c1,0,2,0,3,0c3.5-1.8,7.3-0.7,11-1l0,0h0c21.7-0.3,43.4-3.5,65.2-1.2
         c16.1,1.7,32.2,3.6,48.5,3.7c23,0.1,46,4.2,69.1,1.5c11.3-1.3,22.3-3.2,31.3-11.3c4.8-4.3,9.9-8.1,16.9-8.8
         c10.6-1.2,20.8-0.4,31,2.6c6.2,1.9,12.5,3,18.8,4.5c0,0,0,0,0,0C686.4,279.9,676.2,278.3,666.2,277.3z"/>
       <path fill="#B68B5E" d="M174,293c-0.2,0.1-0.4,0.2-0.6,0.3C173.6,293.2,173.8,293.1,174,293z"/>
       <path fill="#B68B5E" d="M209,292L209,292L209,292c0-0.3,0-0.7,0-1c-8.1-0.1-16.2-1.6-24.3-0.1c-2.9,0.5-6,0.1-8.9-0.3
         c-16.3-2.4-32.5-5.2-48.8-7.1c-9.5-1.1-19.1-0.3-25.3,9c-1.1,1.6-2.7,2.4-4.6,2.6l0,0c1.8,1.2,3.9,0.9,6,1
         c5-4.2,10.3-7.8,16.7-9.6c1.7-0.5,3.3-1.3,5.3-0.4v0h0.5l0.5,0c6.7-0.1,13.1,1.8,19.5,3.2c9.4,2.1,19,2.6,28.5,3.8c2,0,4,0,6,0
         c3.5-1.7,7-0.7,11-1v0v0c2,0,4.7,0,7,0C201.7,292,205,292,209,292z"/>
       <path fill="#B48453" d="M145.5,289.2c-6.4-1.4-12.8-3.4-19.5-3.2c13.6,4.5,27.4,7.7,41.7,8c1.9,0,3.9,0.2,5.7-0.7
         c0.2-0.1,0.4-0.2,0.6-0.3C164.5,291.8,154.9,291.3,145.5,289.2z"/>
       <path fill="#B48453" d="M119.7,286.4c-6.3,1.8-11.7,5.4-16.7,9.6c2-0.1,3.8-0.9,5.6-1.8c5.5-2.7,10.5-6.3,16.4-8.2l0,0
         C123.2,285.1,121.4,285.9,119.7,286.4z"/>
       <path fill="#B48453" d="M327,298.5c-0.7,0.1-1.4,0.3-2,0.5c6.3-0.5,12.8,1.1,19-1h0C338.4,298.4,332.6,297.3,327,298.5z"/>
       <path fill="#B48453" d="M358,298c5.7-0.4,11.4,1,17-1c0,0,0,0,0,0C369.3,297.4,363.6,296,358,298z"/>
       <path fill="#B48453" d="M387,297c4.3-0.4,8.8,0.9,13-1C395.7,296.4,391.2,295.1,387,297z"/>
       <path fill="#B48453" d="M211,292L211,292c-0.7,0-1.3,0-2,0h0c-3.7,0-7.3,0-11,0c4.2,1.9,8.7,0.6,13,1v0
         C211,292.7,211,292.3,211,292z"/>
       <path fill="#B48453" d="M265,298c3.9,1.8,8,0.7,12,1l0,0C273.1,297.2,269,298.3,265,298z"/>
       <path fill="#B48453" d="M403,296c3.7-0.3,7.5,0.8,11-1l0,0C410.3,295.3,406.5,294.2,403,296z"/>
       <path fill="#B48453" d="M180,293c3.7-0.3,7.5,0.8,11-1l0,0C187.3,292.3,183.5,291.2,180,293z"/>
       <path fill="#A8A5A6" d="M390.3,246.1c-0.7,5.3,2.6,10.9,8.3,14.1c5,2.8,11.7,2.5,15.5-0.9c9.6-8.7,20.7-11,32.9-7.8
         c5.8,1.5,11.5,3.4,17.1,5.5c14.9,5.6,30.2,9.3,46.3,8.9c20.8-0.5,41.6,0.4,62.4-0.7c13.2-0.7,26.5,1.4,39.8,1.7
         c14,0.3,21.9-11.2,17.4-24.5c-2.6-7.6-6.4-10.2-14.4-10.5c-8.6-0.3-17.3-0.5-25.9-1.3c-15.8-1.4-31.7-1.3-47.4-0.4
         c-24.5,1.4-48.5,0.2-72-7.4c-9.4-3-19.2-4.1-28.9-4c-4.2,1.2-8.3-0.6-12.5,1c-6.9,2.6-14.1,4.1-21.1,6.7
         C398.9,230,391.6,236.9,390.3,246.1z"/>
       <path fill="#AEA194" d="M129.6,277.1c5.6,0.5,11.2,0.9,16.8,2c13.4,2.7,26.9,3.5,40.6,3c8.9-0.3,17.9-0.5,26.8-1.6
         c8.5-1.1,17-1.6,25.4-3.7c12.8-3.1,25.6-6.6,37.3-12.4c15-7.4,30.7-7.9,46.6-8.9c6.1-0.8,12.3-0.5,18.5-0.5
         c8.9-0.1,13.7-4.7,14.4-13.8c0.4-4.4-1.4-7-5.8-8.5c-10.8-3.7-21.8-1.4-32.6-1.2c-3.6,0.1-7.3,0.1-10.8,1.4
         c-7.4,2.7-15.3,2.8-22.9,4c-11.6,1.9-23.4,3.1-34.9,5.8c-10.3,2.4-20.6,5-30.9,7.5c-15.6,3.9-31.3,7.4-47.1,10.3
         c-4.9,0.9-9.5,0.7-14.2-0.9c-8-2.7-16.1-5.1-24.2-7.8c-4.1-1.3-8.3-1.3-11.2,1.8c-3.5,3.7-4.2,8.7-2.4,13.6
         C120.7,272.3,123.3,276.5,129.6,277.1z"/>
       <path fill="#A9A4A1" d="M372.5,424.8c-10.8-1.9-21.6-0.6-32.1,1.7c-7.3,1.6-15.3,0.6-20.8,8.4c-2.8,3.9-3.8,6.8-2.7,11.1
         c1.2,4.4,4,6.2,8.4,6.2c1.4,0,2.9,0.6,4.3,1.1c8.9,3,18,4.5,27.3,5.5c9.5-0.7,18.7-2.8,27.5-6.7c5.4-2.4,8.3-9.3,5.6-13.8
         C386,431.7,380.7,426.3,372.5,424.8z"/>
       <path fill="#ABA39D" d="M466.1,445.5c9.1-3.7,18.1-7.5,27-11.6c10.1-4.7,11.7-16.9,3.6-24.9c-1.3-1.2-2.8-1.7-4.5-1.9
         c-13.5-1.8-26.1,1.4-37.5,8.3c-5.4,3.3-11.5,6.8-10.7,14.5C443.9,441.7,455.4,449.8,466.1,445.5z"/>
       <path fill="#B67733" d="M379.6,159.6c14.8,5.8,29.5,6.2,43-2.8c8.2-5.4,16.9-7.6,26.2-8.7c3-0.4,5.9-0.7,8.9-1.1
         c1.6-0.2,3.8,0,4.2-2c0.5-2.3-1.9-2.9-3.4-3.7c-1.3-0.7-2.7-1.2-4.2-1.7c-8.8-3.1-18.1-4.4-27.3-6.1c-11.5-2.1-23-3.9-33.5-5.6
         c-2.2,0.1-3.3,0.1-4.5,0.2c-7.2,0.8-8.1,2.5-4.6,8.7c1.8,3.2,1.8,6.3-0.1,9.4c-1.5,2.5-3.8,4.1-6,5.9
         C374.4,155.5,374.8,157.7,379.6,159.6z"/>
       <path fill="#8E6551" d="M517.4,499.9c9.4-7.9,18.9-15.1,30.9-18.6c7.3-2.1,14.5-5,21.5-7.9c4.4-1.8,9-3.9,10.2-9.4v0
         c-5.9-1.5-11.8-1.3-17.8,0.2c-21.4,5.4-40.4,15-56.5,30.4c-5.8,5.6-12,10.6-14.8,18.4c0,3.3,1.2,6.3,3,9.1c0,0,0,0,0,0
         c1.7,0.3,3.4,0.6,5.1,0.9h0C503.1,513.6,509.6,506.4,517.4,499.9z"/>
       <path fill="#95704B" d="M618.3,470c6.9,1.5,13.8,0.8,20.8,1l0,0c4.8-0.8,9.5-1.5,14.3-2.5c2.4-0.5,4.3-2,4.5-4.7
         c0.2-3-2-3.9-4.2-4.8c-2.6-1-5.2-1.3-7.9-0.9c-10.5,1.6-21,0.7-31.4,0.9c-3.6,0-7,0.5-10.2,2C607.4,466.1,612.4,468.7,618.3,470z"
         />
       <path fill="#B67733" d="M480.6,480.2c-6.2-0.7-12,0.7-18,0.8c-6.5,0.1-13,2-19.6,2.9c-11,1.6-22.2,1.8-33.3,2.7
         c-14.6,1.2-29.2,0.2-43.7-2.7c-8.4,0.3-16.7-1.2-25-2c-6.2-0.6-11.8-3.3-17.6-5.3c-6.1-2.1-12.3-3.9-18.9-3.4
         c-11.4,1-22.8,1.8-34.3,2.6c-23.4,1.6-46.7-3.2-70.2-2h0c-3.1,0.8-3.9,2.6-3,5.6c1,3.2,1.9,6.4,2,9.8c0.4,11.7,2.5,13.7,13.8,14
         c0.2,0,0.3,0,0.5,0c16.8,0.5,33.6,1.2,50.4,1.5c10.3,0.2,20.6-1.1,30.9-0.3c15.4,1.2,30.9,1.1,46.2,3.3
         c12.8,1.9,25.7,3.3,38.2,6.8c14.7,4.1,29.2,5.8,44.3,2.7c5.1-1,10.4-2.1,15.7-2.4c4.3-0.2,8.2-0.7,11.1-4.5c1.2-1.6,3.4-2,5.4-2.4
         c8.8-1.7,17-5.2,25.3-8.3c7.2-2.7,13.6-6.8,20.5-10c3.1-1.5,5.9-3,7.8-5.9c-3.8-2.6-8.2-2.4-12.4-3
         C491.2,480.3,485.7,480.8,480.6,480.2z"/>
       <path fill="#AF773D" d="M366,484c-8-5-16.4-5.1-25-2C349.3,482.8,357.6,484.3,366,484z"/>
       <path fill="#AF7F50" d="M490.9,513c-4.6-0.3-8.9,0.9-13.2,2.1c-3.6,1.1-4.1,3.1-1.6,5.7c4.7,4.7,12.5,5.3,17.8,1.2c0,0,0,0,0,0
         C492.2,519.3,491,516.3,490.9,513z"/>
     </g>
   </g>
</svg>