<?xml version="1.0" encoding="utf-8"?>
<!DOCTYPE svg PUBLIC "-//W3C//DTD SVG 1.1//EN" "http://www.w3.org/Graphics/SVG/1.1/DTD/svg11.dtd">
<svg version="1.1" xmlns="http://www.w3.org/2000/svg" xmlns:xlink="http://www.w3.org/1999/xlink" x="0px" y="0px"
   viewBox="0 0 800 800" enable-background="new 0 0 800 800" xml:space="preserve">
   <g id="Neptune">
     <g id="mr9hiz_1_">
       <g>
         <path fill="#2E43B4" d="M263,106c22.7-11.3,46.8-18.8,71.5-24c15.3-3.2,30.7-5.5,46.3-6.1c3.3-1,6.8,0.4,10.1-0.8
           c10.3,0,20.7,0,31,0c7.2,2.1,14.6,1.8,21.9,2.9c22.6,3.2,44.7,8.1,66.1,16.2c3.1,2.7,0.8,4.5-1.2,5.9c-4.3,3.1-9.2,4.6-14.4,5.3
           c-22.3,3.1-44.6,4.7-67.1,2.4c-1.2-0.1-2.3-0.1-3.5-0.1c-25,0.7-49.9-0.6-74.8-1.4c-15.7-0.5-31.2,0.5-46.8,0.6
           c-10.3,0.1-20.6,1-30.8,2.3c-2,0.3-4,0.6-6,0.2C263.8,108.8,262,108.4,263,106z"/>
         <path fill="#344DC8" d="M727,417c-1.5,6-0.8,12.3-1.9,18.4c-0.3,1.9,0,3.9-1,5.7c-6.1,0.6-11.9-1.4-17.8-2.2
           c-4.5-0.6-8.9-1.1-13.4-0.1c-5,1.1-9.9-0.2-14.8-1.3c-7.5-1.8-14.9-3.4-22.7-3c-3,0.2-6-0.3-8.9-0.9c-7.2-1.4-14.5-2.6-21.8-2
           c-7.9,0.6-15.6-1.3-23.3-2.2c-12.6-1.4-25.3-0.4-37.9-1.8c-15.9-1.7-31.9-1.4-47.8-2.3c-27.3-1.5-54.6-0.2-81.9-0.9
           c-4.9-0.1-9.5,1.9-14.3,1c-1.4-1.4,0-2.1,0.8-2.7c1.9-1.4,4.2-2,6.6-2.1c7,0,13.9-0.7,20.9-1.1c7.5-0.4,14.9,0,22.4-0.9
           c5.4-0.6,11-0.6,16.4,1c1.8,0.5,3.7,0.7,5.4,0.2c8.5-2.4,16.9-0.7,25.3,0.3c8.6,1.1,17.3-0.5,25.9,0.9c2.4,0.4,3-1.5,3.7-3.3
           c3.7-2.2,7.9-1.6,11.7-1.1c10.3,1.4,20.6,1.3,30.9,1.5c18.3,0.3,36.6,0.8,54.9,1.6c15,0.7,30-0.2,44.9,1.3
           c1.2,0.1,2.3,0.2,3.5-0.3c0.6-0.2,1.3-0.5,1.3-1.3c0.1-0.8-0.5-1.2-1.1-1.5c-1.8-0.9-3.9-0.9-5.8-1.3c-17.9-3.2-35.8-6-53.8-8.2
           c-7.4-0.9-9.4-3.3-8.4-10.5c0.8-5.3,0.2-10.2-1-15.3c-1.3-5.5,0.5-8.1,6.1-8.2c18.4,0,35.9,2.7,49.9,16.4c2.8,2.8,6,5.3,9.5,7.3
           c11.5,6.8,23.4,4.1,30.9-7c1.3-2,2.1-4.7,5.2-4.8c2.1,0.9,0.3,3.2,1.6,4.4C727,399.7,727,408.3,727,417z"/>
         <path fill="#3651D1" d="M380.9,726.1c-16.5-1-33-2.8-49-7.1c0.7-2,2.3-2.9,4.2-3.2c11.8-1.5,22.6-7,34.5-7.9
           c23.4-1.9,46.9-5.4,70.2-3.1c16.3,1.6,32.5,2.4,48.8,2.8c3.6,0.1,7.8-0.1,10.6,3.3c-16.1,5.9-32.8,9.3-49.7,12
           c-10.5,1.7-21,2.9-31.7,3.2c-1,0-2-0.1-2.8,0.8c-8.3,0-16.7,0-25,0C387.7,725.7,384.2,727.2,380.9,726.1z"/>
         <path fill="#3F62FB" d="M75,388c2-5.2-0.2-10.9,1.8-16.1c0.6-0.4,1.2-0.8,1.8-0.7c7.2,1.2,14.2-0.7,21.3-0.6
           c8.3,0.2,12,3.3,13.5,11.6c0.7,3.9,1.9,7.7,2.6,11.6c1,5.4-0.6,9.8-5.5,12.1c-10.3,4.9-21.5,7.9-32.2,11.8
           c-0.8,0.3-1.6,0-2.4-0.5c-1.3-2.3,0.3-5-1-7.3C75,402.7,75,395.3,75,388z"/>
         <path fill="#94A1E0" d="M727,391c-1.3-1.1-0.7-2.7-1.1-4c-1.6-2.4-1.8-4.8,0.2-7.1c0.3,0,0.6,0,0.9,0.1
           C727,383.7,727,387.3,727,391z"/>
         <path fill="#8894D2" d="M391,75c-3.3,1.7-6.7,1-10.1,0.8c0.1-0.3,0.1-0.6,0.1-0.8C384.3,75,387.7,75,391,75z"/>
         <path fill="#9CACF7" d="M75,410c1.8,2.1,0.5,4.7,1.2,7c0.7,1.1,0.7,2.2-0.4,3.1l-0.4,0L75,420C75,416.7,75,413.3,75,410z"/>
         <path fill="#9CAAEB" d="M380.9,726.1c3.4-0.1,6.9-0.9,10.1,0.9c-3.3,0-6.7,0-10,0C381,726.7,381,726.4,380.9,726.1z"/>
         <path fill="#3048BE" d="M419,425c8.9-2.9,18.1-1.9,27.2-2c17.3-0.1,34.6-0.3,51.9,0c19.4,0.4,38.8,0.6,58.1,2.2
           c12.3,1,24.6,0.4,36.7,2.1c19.2,2.6,38.6,1.6,57.7,5.4c7.7,1.5,15.9,0.1,23.7,2.3c8,2.2,15.9,2.3,24.3,1.7
           c8.3-0.6,17.3,1.3,25.5,4.5c-1.1,7-2.1,13.9-3.2,20.9c-2.7,1.6-5.6,0.7-8.3,0.5c-9.4-0.7-19-0.1-28-3.9c-1.8-0.8-3.9-1-5.9-1
           c-12.8,0.3-25.6-0.4-38.4-1.1c-47.4-2.6-94.9-2.4-142.3-1.8c-24.6,0.3-49.2,1-73.8,2.5c-10.9,0.7-21.9,1.6-32.8,2.2
           c-0.6,0-1.2,0.1-1.2,0c2.2,0.4,4.7-0.1,7.2,0c27.3,1.1,54.5,2.1,81.8,3.3c31.9,1.4,63.7,4.3,95.6,6.3c31.4,2,62.1,7.6,92.9,12.9
           c11.8,2,23.8,2.6,35.5,5.6c2.6,0.7,5.2,1.1,7.7,2c2.2,0.8,3.3,2.2,2.2,4.6c-0.8,2.6-1.5,5.2-2.3,7.9c-2.4,1.9-4.7,0.7-7.1,0
           c-12.5-3.8-25-4.7-37.7-1c-6,1.3-12.2,1.7-18.4,1.9c3.8,1.7,7.8,2.8,11.9,3.7c3.4,0.7,6.8,1.5,9.9,3.4c1.2,0.7,2.2,1.7,1.9,3.2
           c-0.3,1.6-1.7,1.9-3.1,2.1c-2.8,0.4-5.6,0.2-8.5-0.3c-13.7-2.2-27.4-3.6-41.2-4.6c-1.8-0.1-3.7-0.3-5.3-1.2
           c-3.2-1.6-3.7-3.8-1.9-7.5c0.7-1.4,2.7-2.8,1.6-4.4c-1.3-1.8-3.9-1.4-5.6-0.5c-7.9,4.5-16.5,4.7-24.9,4.7
           c1.9,8.8,8.8,9.2,15.9,10.4c17.9,3.1,35.9,5.1,53.9,7.9c2.9,0.4,6.8,0.3,7.6,3.7c0.7,3.1-2.8,4.5-4.8,6.4
           c-5.6,5.3-11.6,6-18.8,3.3c-17.8-6.6-36.1-11.6-53.9-18.4c-18.9-7.2-39.3-8.5-59.3-11.3c-14.5-2-29.1-2.3-43.8-1.3
           c-18.1,1.2-36.3-0.6-53.6,1.5c3.4,0.9,7.7,1.7,12,2.5c1.8,0.3,3.6,0.8,5.1,1.9c2.5,1.9,2.3,3.9-0.7,5.2c-2.3,1-4.9,1.2-7.4,1.1
           c-17.3-0.6-34.6,0.4-51.9,1.2c-18.4,0.9-36.9,2.2-55.3,3.5c-16.3,1.2-32.5,2.7-48.8,3.5c-12.5,0.6-24.9,2.3-37.4,1.9
           c-2-0.1-4.1,0.3-6-0.4c-12.1-4.6-25.2-1.2-37.5-4.5c-2.4-0.6-5,0.1-7.4,0.5c-5.4,0.7-10.7,1.5-16.2-0.9
           c-3.7-1.6-7.9-0.9-11.9-0.2c-3.8,0.7-7.3,0.3-10.6-1.7c-2.8-1.8-6-1.9-9.2-1.8c-4.4,0.1-8.7-0.3-12.7-2.1c-2.5-1.1-5-2.5-5-5.6
           c0-2.9,2.5-4.2,4.8-5.2c10.7-4.8,22-6.5,33.5-6.9c13.7-0.5,27.2-1.5,40.8-3.4c5-0.7,9.8-2.2,13.9-5.1c2.2-1.6,2-2.9-0.5-3.8
           c-3.4-1.2-6.9-0.9-10.4-0.5c-9.6,1-19.1,2.8-28.8,2.8c-1.6,0-3.6,0.8-4.4-1.3c-0.6-1.6,1.1-2.6,1.8-3.9
           c5.9-11.8,17.4-16,28.3-20.8c22.2-9.7,45.3-16.8,68.7-22.8c8.7-1.3,17.3-3.3,25.9-4.8c0.6-0.2,1.1-0.3,1.7-0.4
           c11.8-1.3,23.6-3,35.5-2c8.1,1.8,16.2,0.6,24.3-0.5c7.7-1.1,15.2-0.5,22.7,1.2c2.8,0.6,5.5,1.3,8.3,1.7c7.3,1,14.2,0.5,20.5-3.9
           C413.7,426.7,415.8,424.5,419,425z"/>
         <path fill="#334BC9" d="M419,425c-7.8,5.6-15.7,10.8-26,9c-5.5-1-11.1-1.8-16.6-3.1c-8-2-15.8,0.1-23.7,0.7
           c-5.6,0.5-11.2,1.3-16.7-0.6c-6.3-1.7-12.8-0.7-19.1-0.3c-6,0.3-12.1,0.8-17.9,2.3h0c-8.8,1.2-17.4,2.8-26,5
           c-16.3,4.6-32.5,9.4-48.5,15c-12.4,4.3-24.5,9.6-36,15.8c-4.1,2.2-8,4.8-9.3,9.8c-0.7,2.6-3.9,3-5.1,5.7
           c11.1,0.1,21.6-1.6,32.1-2.9c4.7-0.6,9.3-0.8,13.7,1.1c1.2,0.5,2.7,0.9,2.7,2.6c0,1.4-1.5,1.6-2.3,2.3
           c-7.8,6.1-17.2,6.7-26.4,7.5c-14.7,1.4-29.4,1.8-44.1,3.2c-7.4,0.7-14.6,3.3-21.4,6.3c-3.7,1.7-3.7,4.5-0.2,6.6
           c3.8,2.2,8,3.1,12.4,2.9c4.8-0.2,9.5-0.3,13.7,3.1c2.2,1.7,5,0.9,7.7,0.5c5.4-0.8,10.8-1.5,16,1.5c4,2.3,8.1-0.2,12.1-0.4
           c4-0.3,7.8-0.7,11.8,0.2c3.9,0.9,7.8,1.4,11.8,1.3c7-0.3,13.7,0.7,20.6,2.3c7.3,1.6,15.3,1.3,22.8,0.4c6.1-0.8,12.3-1.1,18.3-1.4
           c16.7-0.7,33.4-2.7,50.1-3.5c16.2-0.8,32.4-2.1,48.6-3c19.9-1.1,39.8-2,59.7-1.8c2.1,0,4.4,0.4,6.4-0.7c1-0.6,3.1,0.3,3-1.7
           c-0.1-1.5-1.8-2-3-2.3c-5-1.2-10-2.2-15-3.3c-1.6-0.4-3.1-0.9-4.8-1.4c1.6-1.7,3.3-1.6,4.9-1.7c17.8-1.4,35.6-0.8,53.3-1
           c5.5-0.1,10.9-1,16.4-1c17.3,0.1,34.3,2.9,51.3,5.4c10,1.5,20,2.9,29.7,5.8c11.8,3.5,22.8,9,34.7,12.3
           c10.4,2.9,20.6,6.3,30.9,9.7c3.3,1.1,5.7,0.5,8.3-1.5c3.2-2.5,6.9-4.5,9.6-8.1c-4.6-3-9.8-2.6-14.5-3.4
           c-15.5-2.4-31.2-3.7-46.6-7c-3-0.6-6.3-0.4-9.3-1.4c-2.9-1-6.8-1-5.9-6.2c0.4-2.3-3.2-2.4-4.5-4.2c2.6-2.3,5.7-1.2,8.6-1.4
           c6.3-0.3,12.5,0,17.9-4.4c1.5-1.2,4.4-1,6.7-1c1.4,0,3.1,0.3,3.7,2c0.5,1.5-0.5,2.5-1.4,3.5c-1.6,1.8-4.2,3.7-2.7,6.3
           c1.2,2.3,4.2,2.3,6.7,2.5c14.4,0.9,28.7,2.2,42.8,4.8c2.1,0.4,4.3,0.2,6.5,0.2c1.1,0,2.7,0.5,2.9-1.1c0.2-1.3-1.3-1.9-2.4-2.2
           c-6.7-1.9-13.4-3.7-20.1-5.6c-1-0.3-1.9-0.5-2.8-0.9c-0.9-0.4-1.9-0.9-1.6-2.1c0.2-1.1,1.3-0.9,2.1-0.9c6.8,0.3,13.6-0.4,20.4-1
           c8.2-1.1,16.4-1.8,24.7-1.5c5.4,0.2,10.5,1.3,14.7,4.9c1.8,1.5,3.6,3,2.6,5.8c-3.7,11.2-8.6,22-13.4,32.7
           c-4,3.4-5.4,8.1-6.7,12.9c-4.6,8.5-9.4,17-15,24.8c-4.5-0.1-8.2-2.7-12.2-4.1c-3.7-1.3-6.5-1-9.4,2.1c-6,6.4-13.6,6.1-19.5-0.5
           c-0.9-1-1.9-2-2.3-3.2c-2.6-7.2-8.3-9.6-15.3-10.9c-22.1-4.1-44.2-7.3-66.5-9.8c-33.7-3.8-67.6-5.3-101.5-4.9
           c-5.5,0.1-10.9-1.1-16.4-1.1c-9.3,0.1-18.6,0.2-29.2,1.6c6.8,1.7,12.6,2.6,18.3,3.4c47.5,6.5,94.8,14.9,141.5,25.5
           c30.7,7,61.3,14.2,91.7,22c1.8,0.4,3.6,0.7,4.9,2.2c-0.5,1.8-2.2,2.6-3.3,3.9c-7.8-0.9-15.1-3.7-22.7-5.5
           c-19.8-4.7-40-6.9-60.2-8.9c-14.1-1.4-28.1-3.1-42.2-4.3c-15.4-1.3-30.9-2.2-46.1-5.2c-15.8-3.2-31.5-7.2-47.6-9
           c-9.7-1.1-19.5-2-29.4-1.6c-1.2,0-2.4-0.1-3.4,0.6c-8.1,5.4-16.9,4.3-25.9,3.6c-9.8-0.7-19.6-0.2-29.5-0.2
           c-29.5,0-58.1,5.3-86.4,13.2c-17.7,5-34.8,11.5-51.6,18.7c-9.7,4.1-20,6.2-29.5,10.8c-4.8,2.3-9.5,4.8-14.3,7.1c-1-1-2-2-3-3
           c-0.4-2.9,2-3.6,3.7-4.6c17.7-10.7,35.6-20.3,55.9-26.1c27.2-7.9,54.4-15.6,82.4-20c10.7-1.7,21.4-2.9,32.8-3.4
           c-5.3-0.9-10.1-1.3-14.9-1.5c-20.3-0.9-40.5-1.8-60.8-0.5c-15.4,0.9-30.9,1.7-46.3,2.4c-5.6,0.2-11.2,1.2-16.9,1
           c-4.3-0.1-7.9-0.9-10.3-4.8c-0.8-1.3-2-2.3-3.4-2.9c-6.8-2.5-12-7-17-12c-2.3-2.3-5.4-3.2-8.2-4.6c-5.1-2.5-10-5.2-11.6-11.5
           c-0.9-3.6-4.2-3.4-7-3c-7.3,1.1-14.2,3.5-21.3,7.3c7.6,3.4,4.9,9.9,5,15.3c0.1,3.8-1.9,7.4-6,9c-5.6-8.8-10.2-18.2-14.1-27.9
           c-0.3-3.5,2.6-3.9,4.8-4.7c4.8-1.9,9.9-2.8,14.7-4.7c4.5-1.8,4.7-3.5,1-6.6c-1.7-1.4-3.7-2.3-5.4-3.6c-4.6-3.5-4.8-6.8-0.6-10.7
           c3.5-3.2,7.6-5.4,11.7-7.6c12.8-6.6,24.9-14.1,35.8-23.5c11.6-9.9,25.6-15.5,39.4-21.3c31.6-13.3,64.9-19.5,98.6-24.3
           c14.3-2.1,28.5-1,42.7-0.7c9.6,0.2,19.2-1.3,28.9-1.2c7.3,0.1,14.6,1.4,21.9,1.2c5.3-0.1,10.3-1,14.6-4.2
           c7.6-5.6,16.2-7.4,25.5-6.9c12.8,0.6,25.6-1.2,38.4-1c19.8,0.4,39.6,1.3,59.4,1.1c3.9,0,8,0.1,11.5,2.3c2.1,3.7,1.4,5.5-2.6,4.9
           c-12.8-1.9-25.9,0.5-38.5-2.7c-0.8-0.2-1.7-0.3-2.5-0.1c-10.8,2.7-21.6-0.6-32.4,0.1c-14.7,0.9-29.5,1.6-44.2,2
           C423.9,422.1,421.1,422.9,419,425z"/>
         <path fill="#4164FD" d="M195,653c-3-2-5.7-4.3-8.2-6.9c3.8-3.1,8.5-2.6,12.8-3.2c10.3-1.4,19.2-4.9,27.4-11.8
           c12.8-10.7,28.1-17.7,43.3-24.5c22-9.9,45.1-14.7,69.1-16.1c13.9-0.8,27.9-1.3,41.8-2c31.2-1.6,61.7,2.8,92,9.5
           c6.2,1.4,12.2,3.6,17.5,7.2c9.5,6.5,19.7,10.9,31,13.2c6.7,1.4,13.2,3.4,18.6,8c1.4,1.2,3.3,1.6,5,2.2
           c17,6.1,34.2,11.1,51.9,14.3c5.1,0.9,10.5,1.7,14.3,6.1c-4.6,5-10.2,8.9-15.7,12.8c-30.5-2-61-4.8-91.5-6.9
           c-20.9-1.5-41.8-3.2-62.7-4.6c-20-1.3-39.9,0.6-59.9,0.6c-19.6,0-39.2,2.3-58.6,5c-18.8,2.6-36.3,9.6-53.8,16.6
           c-9,3.6-18.3,6.3-28.1,6.1c-1.3,0-2.7,0-4-0.3c-2.9-0.7-3.7-2.4-1.8-4.7c7.1-8.5,1.6-16.7-0.7-24.8c-0.9-3.2-4.7-3.3-7.8-2.8
           c-8.9,1.3-17.7,3.1-26.3,5.9C198.9,652.4,197.1,653.2,195,653z"/>
         <path fill="#3651D1" d="M267,697.8c-8-3.3-15.7-7.1-23.1-11.6c0.3-3.3,3.1-3.1,5.2-3.5c5.8-1.1,11.3-2.9,16.5-5.7
           c19.9-10.6,41.5-15,63.5-18.5c36.2-5.6,72.6-6.8,109.1-6c19.5,0.4,38.9,2,58.3,3.6c14.6,1.2,29.2,2.3,43.8,3.4
           c14.3,1,28.6,1.8,42.8,3.3c2.3,0.2,6-0.3,6,4c-14.9,11.2-31,20.6-48,28.2c-8-2.5-16.4-1.6-24.7-2.4c-18.7-1.8-37.5-1.8-56.3-2.9
           c-10.6-0.6-21.3-0.9-31.9,0.4c-1.3,0.2-2.6,0.3-4,0.3c-27.8-0.3-55.6,1.8-83.3,1c-1.5,0-3,0-4.5-0.2
           c-10.8-1.5-15.1-11.8-8.6-20.4c0.5-0.6,1.4-1,1.2-2.5c-15.6,2.7-31.3,4.4-46,10.3c-6.5,2.6-10.1,8.4-13.3,14.4
           C268.8,694.6,268.6,696.6,267,697.8z"/>
         <path fill="#344DC9" d="M267,697.8c1.6-9.6,6.9-16.8,15.5-20.6c12.3-5.4,25.8-6.9,39-9.1c3.8-0.7,7.7-2,12.1-0.5
           c-2.3,2-4.8,3.4-6.2,5.9c-4.2,7.3,0.8,16.4,9.4,16.5c16.5,0.3,33,0.7,49.4-0.2c8.6-0.5,17.3-0.8,25.9-0.6
           c9.3,0.2,18.5-1.1,27.8-1.2c21.8-0.1,43.4,1.5,65.2,2.2c10.1,0.3,20.1,1.7,30.2,1.9c2.1,0,4.8,0,5.7,2.9
           c-11.6,5.5-23.5,10.5-35.6,14.7c-1.7,0.6-3.5,0.9-5.2,1.4c-5.2-1.2-10.3-2.1-15.7-2.1c-13.9,0-27.7-0.3-41.5-2.5
           c-11.1-1.7-22.8-1.4-34.2,0.3c-5.1,0.8-10.2,0.7-15.3,1c-16.2,0.7-32.3,2.2-47.7,7.8c-4.5,1.6-9.6,0.8-13.8,3.5
           c-17-2.9-33.3-8.4-49.4-14.6C277.2,702.5,272.2,700,267,697.8z"/>
         <path fill="#354ED3" d="M164.9,625.3c2.6-4.9,7.9-5.9,12.3-7.6c22.8-9,45.7-17.9,68.9-26c22.9-8,46.5-12.8,70.6-15.7
           c19.2-2.4,38.4-1.9,57.5-1.7c6.1,0.1,12.1,1,18.2-0.1c2.8-0.5,6,0.8,7.4-3.1c0.5-1.3,2.4-1,3.7-0.9c6.8,0.3,13.6,0.4,20.4,0.7
           c14.4,0.6,28.2,3.6,42.1,6.5c12.3,2.6,24.6,4.9,37.1,6.6c9,1.2,18.1,1.5,27.2,2.2c11.9,0.9,23.7,2.5,35.5,3.7
           c10.4,1,20.7,2.1,31.1,3.3c18.1,2.1,35.9,5.9,53.4,11c1.2,0.4,2.3,1.3,3.4,1.9c-9,12.2-19.4,23.1-30.8,33.1
           c-6.8-0.4-13.6-1.4-20-3.8c-21-8-41.8-16.6-62.2-26.2c-14.5-6.8-29.3-12.8-44-19c-12.1-5.1-25.4-7-38.6-7.4
           c-16.6-0.5-33.3-0.5-49.9-1.4c-21.1-1.1-42.1-3.3-63.3-2.7c-19.2-0.4-38,2.6-56.7,6.5c-22,4.5-43.4,11.2-64.3,19.3
           c-1.1,0.4-2.1,0.9-3.1,1.5c-7.9,3.2-15.7,6.6-23.8,9.4c-8.3,1.7-16.6,3.4-23.6,8.6c-2.4,1.5-4.7,3.2-7.8,2.4
           C165.5,625.8,165.2,625.5,164.9,625.3z"/>
         <path fill="#344DC8" d="M713.1,494.1c0.1-1.9-0.7-2.9-2.8-3.3c-11.2-2.3-22.2-5.2-33.7-6c-8.2-0.6-16.3-2.9-24.4-4.2
           c-16.5-2.6-32.9-5.7-49.5-7.7c-17.3-2.1-34.7-2.4-52-4c-15.3-1.4-30.7-2.4-46.1-3.1c-13.7-0.7-27.5-1.3-41.2-2
           c-16.6-0.8-33.2-0.7-49.7-2.1c-8.5-0.7-17.2,0-25.7-2.4c10.1-2.2,20.4-3,30.7-3.5c21.7-0.9,43.5-1.3,65.2-2.2
           c38-1.5,75.9-0.6,113.8-0.6c16.9,0,33.8,1.2,50.7,2c10.3,0.5,20.6,0.4,30.9,0.8c1,0,2.1,0,3,0.3c10.9,4.3,22.3,4.4,33.7,4.7
           c1.6,0,3.2,0.6,4.9,1C719.2,472.9,716.7,483.7,713.1,494.1z"/>
         <path fill="#3C58EB" d="M611.7,648.9c-12.2-5.5-25.7-6.4-38.4-10c-10.9-3.1-22.1-5.8-32-10.8c-7-3.5-13.7-7.5-21.3-8.9
           c-11.2-2.1-20.8-7.3-30.3-13.2c-11.3-7.1-24.5-8.9-37.4-11c-16.8-2.7-33.7-4.9-50.8-5.3c-14.8-0.4-29.4,0.5-44.1,1.1
           c-9.6,0.4-19.2,1.1-28.7,2c-16.4,1.6-32.3,5-47.8,11c-18.4,7.2-36.1,15.6-51.8,27.5c-7.5,5.7-14.7,10.7-24,12.2
           c-6,0.9-12.1,1.7-18.2,2.6c-4.2-3.3-8.3-6.8-11.9-10.9c-0.1-3.9,3.3-4.3,5.6-5.4c15.8-7.6,32-13.9,49-18
           c25.9-6.3,51.4-14.1,77-21.5c14.9-4.3,30.3-6,45.8-6.9c8.5-0.5,17-0.8,25.4-0.8c16.3-0.1,32.5,2,48.7,3.4
           c9.3,0.8,18.6,1.7,27.8,2.5c8.2,0.6,16.3,1.8,23.8,5.1c17.7,7.8,36.4,12.8,54.5,19.7c4.2,1.6,8.3,3.5,12.1,5.9
           c10.4,6.5,21.6,11.5,33.5,14.1c10.8,2.4,21.1,6.1,31.8,8.3c2.4,0.5,5,0.8,6.2,3.5C615.4,647.2,612.7,647,611.7,648.9z"/>
         <path fill="#3C58EB" d="M589,666.8c-1.1-2.8-3.9-2.4-5.9-2.6c-8.5-0.9-17.1-1.7-25.7-2.1c-17.5-0.8-35-2.6-52.5-3.9
           c-11.6-0.8-23.2-1.4-34.7-2.4c-24.2-2-48.5-2-72.7-1.7c-21.7,0.3-43.2,2.5-64.7,5.6c-16.6,2.4-32.9,5.6-48.9,10.8
           c-10,3.3-18.7,9.3-28.8,12.5c-3.7,1.2-8.1,0.2-11.2,3.2C226.5,676.8,210,666,195,653c6.8-4.2,14.6-5.1,22.1-6.9
           c3.2-0.8,6.5-1.2,9.7-1.9c6-1.2,9.6,1,11,7c1.2,5,2.1,10,3,15.1c0.5,3.1-0.6,5.5-3.4,7.1c-1,0.5-2.2,1.4-1.9,2.6
           c0.4,1.5,1.9,0.9,3,1c14.4,0.8,27.3-4.6,40.2-9.9c15.5-6.4,31.5-11,48.2-13.3c17.2-2.3,34.5-3.3,51.8-4.8c0.3,0,0.7,0,1,0
           c12.8-0.1,25.6-0.3,38.4-0.8c17.7-0.7,35.4,0.9,53.1,2.7c14.8,1.5,29.7,2,44.6,3.2c19.1,1.5,38.2,3.3,57.3,4.9
           c5.9,0.5,11.9,0.7,17.9,1c1.8,0.1,3.7-0.2,4.9,1.7C593.6,663.4,591.3,665.1,589,666.8z"/>
         <path fill="#3A57E5" d="M616.3,645.1c-12.4-3.4-24.7-7.4-37.3-10.2c-12.6-2.8-24.6-7.9-35.6-15.1c-5.5-3.6-11.7-5.6-17.8-7.8
           c-15.6-5.5-31.6-10.1-46.8-17c-10.1-4.6-21.2-5.1-32-6.1c-13.8-1.2-27.6-2.8-41.5-3.8c-16.7-1.3-33.4-1.9-50.2-0.5
           c-13.9,1.1-27.6,2.6-41.3,5.2c-7.4,1.4-14.5,3.5-21.5,5.9c-21.3,7.4-43.5,11.9-65.1,18.1c-9.9,2.8-20.1,5.2-29.3,9.5
           c-6.7,3.1-13.5,5.9-20.1,9.1c-1.2,0.6-2.4,1.2-2.9,2.6c-2-1.4-3.6-3-5-5c-0.4-2.1,1.2-2.5,2.5-3.1c17.6-8.9,36.1-15.3,55-20.6
           c31.4-8.8,63.6-14.9,95.2-23.2c23-6,46.4-5.7,70-3.1c11.2,1.2,22.5,2.3,33.8,2.4c37.5,0.5,73.4,7.6,107.1,24.5
           c14.4,7.2,29,14.3,44,20.3c11.4,4.5,22.9,9.2,35,11.6c2.4,0.5,5,0.7,6.6,3C618.7,643.6,617.6,644.4,616.3,645.1z"/>
         <path fill="#3048BE" d="M657.1,602c-10.2-1.4-20-4.7-30-7c-39.5-9.2-78.8-19.2-118.7-26.6c-22.7-4.2-45.5-8.3-68.4-11.5
           c-12.3-1.7-24.5-3.9-36.7-5.9c-1.9-0.3-3.9-0.7-5.7-2.1c0.7-1.4,2-1.8,3.2-1.8c13.7-0.6,27.4-1.6,41.2-0.3
           c12.9,1.1,26-0.3,39,0.4c18.5,1,37,1.9,55.5,3.6c19.1,1.8,38,4.9,57,7.3c9.4,1.2,18.6,3.1,27.8,5.2c3.5,0.8,5.9,2.8,7.4,6.1
           c1.4,3.2,3,6.2,5.7,8.7c5.1,4.5,12.4,4.2,16.1-1.4c2.6-4,5.5-4.3,9.3-2.8c4.5,1.7,9.1,3.1,13.1,5.9
           C668.5,587.8,663.1,595.1,657.1,602z"/>
         <path fill="#3751D7" d="M619.1,642c-26.7-5.7-51.2-17-75.6-28.7c-17.8-8.5-35.6-17.2-55-21.6c-16.1-3.7-32.3-6.4-49-7
           c-16.7-0.6-33.3-1.6-50-3.6c-29.2-3.6-57.9,0-86,8.2c-21.5,6.3-43.6,9.7-65.2,15.6c-14.3,3.9-28.2,8.5-42.2,13.3
           c-8.5,2.9-16.1,7.6-24.4,10.5c-0.7,0.3-1.2,1-1.9,1.5c-1.7-1.1-3-2.5-4.1-4.1c2.4-1,4.8-2.1,7.2-3.1c7.3-4.9,15.9-6.4,24-9
           c7.7-3,15.3-6,23-9c27.9-10.3,56.3-18.5,85.7-23.2c13-2.1,26.1-4.1,39.3-4.8c13.9,0,27.9-0.4,41.8,1c14.2,1.5,28.5,1.3,42.7,2.3
           c10.6,0.7,21.1-0.7,31.6,0.8c14.9,2.1,29.7,4.1,43.6,10.6c21.3,10,43.1,19,64.7,28.3c10.5,4.5,21.2,8.6,31.7,13.2
           c5,2.1,10.2,2.7,15.4,3.7c2.3,0.5,4.5,1.2,6.5,2.2C622.1,640.5,620.9,641.7,619.1,642z"/>
         <path fill="#344DC8" d="M708.1,509.3c-2.3-7-12.8-11.2-19.1-10c-2.5,0.5-4.8,0.7-7.2-0.1c-1.5-0.5-3.3-0.5-4.8,0.4
           c-3.6,2.2-7.3,1.5-11,0.4c3.8-2.9,8.7-3,12.8-2.7c8.9,0.6,18.3-0.4,26.7,3.9c1.7,0.9,3.5,0.7,5.3,0.8
           C710.1,504.5,709.6,507.1,708.1,509.3z"/>
         <path fill="#344DC8" d="M688,554.9c-1.1-5.2,2-11,6.7-12.9C692.8,546.5,690.8,550.9,688,554.9z"/>
         <path fill="#3956DF" d="M75.8,420.1c0.1-1,0.2-2.1,0.4-3.1c10.9-3.8,22-7.4,32.7-11.6c5.8-2.3,7.1-6,5.7-12.1
           c-1-4.3-2.3-8.6-2.8-13.1c-0.6-4.8-4.8-8.1-9.8-8.2c-3.8-0.1-7.5-0.1-11.4,0.7c-4.5,1-9.2,0.2-13.8-0.8
           c1.5-24,6.4-47.3,14.1-70.1c13.8-2,26.1-8.8,39.5-12.4c33.2-8.9,67-14.8,101-19.1c20.8-2.6,41.7-4,62.6-5.6
           c6.8-0.5,13.6-0.8,20.4-1.1c37.6-1.5,75.3-1.7,112.9-0.9c17.1,0.4,34.3,0.7,51.4,0.5c9.6-0.1,18.8,2.4,28,4.9
           c9.3,2.6,18.3,3.3,27.3-0.8c6.3-2.9,12.8-1.2,19.2-0.3c36.2,4.8,72.1,11.2,107.7,19.1c9.6,2.1,19.4,2.8,29.1,4.5
           c7.2,1.3,14.4,3.1,20,8.3c5.8,14.8,8.8,30.4,11.9,46c1.9,9.9,3.1,19.9,3.8,30c-6.1,3.5-12.5,3.8-19.3,3
           c-12.5-1.6-25.2-2.1-37.7-3.4c-16.2-1.6-32.2-5.3-48.5-6.6c-4.3-0.4-8.6-0.5-13-0.4c-10.1,0.3-20.2,0-30.3,0c-4.5,0-8.2-1.7-11-5
           c-6.1-7.4-13.9-11.1-23.2-12.3c-8.6-1.2-15.3-6.2-22.1-11.1c-6.6-4.9-13.7-8.7-21.7-11c-6.6-1.9-12.9-3-19.2,0.9
           c-6.7-0.2-13.2-2.2-19.9-3c-8.2-3.2-16.9-4.4-25.5-3.2c-7.1,1-13.9-0.2-20.8-0.6c-15.4-0.8-29.6,2.8-42.5,11.2
           c-3.9,3.4-8.7,5.6-11.8,9.9c-2,2.8-3.5,5.4-0.2,8.3c1.8,1.6,1.4,3.5,0.3,5.4c-3.5,6.2-23.8,15.2-30.7,13.2
           c-5.4-1.6-10.6,0-15.8,0.6c-2.1,0.2-3.2,1.6-2.9,3.9c0.1,1.1,0.9,2.3-0.7,3c-17.7-0.4-35.1,2.5-52.7,4.2
           c-25.8,2.6-51.6,5.7-77.4,8.6c-14.9,1.7-29.8,3.4-44.6,5.9c-5.9,1-8.2,3.5-9.2,10.1c-0.7,4.3,0.7,6.5,6,9.2
           c4.3,2.2,8.8,4,13.3,5.6c1.8,0.6,4.4,1,4.1,3.5c-0.3,2.3-2.8,2.6-4.8,2.9c-5.8,0.9-11.5,1.8-17.4,1.8c-7.9,0-15.6,1-23.1,3.5
           c-7.3,2.4-13.3,6.7-18.6,12.3c-1.6,1.7-3,4.3-6.2,2.9C76.9,438.8,76.2,429.5,75.8,420.1z"/>
         <path fill="#3148BF" d="M129,221.9c5.6-9.8,12.5-18.6,19.8-27c13.3-4.6,27-7.1,40.8-9.4c27.6-4.7,55.7-5.5,83.3-9.9
           c5.1-0.8,9.9-3.1,14.8-4.1c11.7-2.3,23.3-5.3,35.4-6.2c16.7-1.2,33.3-0.5,50-0.9c6.9-0.2,13.7-1.5,19.2-6
           c7.3-6.1,16.2-7.6,25.1-8.8c14.5-2,29.2-2.4,43.8-2.2c9,0.2,17.4,2.3,25.3,6.7c3.4,1.9,5.8,4.5,6.7,8.3
           c1.7,7.6,6.9,11.1,14.3,11.8c18.3,1.6,36.4,3.8,54.6,6.2c8.6,1.1,17.2,2.5,25.7,3.8c0.8,0.1,1.7,0.3,2.4,0.5c2,0.7,4.9,1,4.5,3.7
           c-0.3,2.2-2.9,2.4-4.9,2.7c-0.8,0.1-1.7,0.2-2.5,0.2c24.5,4.8,49.5,6.6,73.6,13.4c14.1,17.6,25.2,37.1,34.9,57.3
           c2.3,4.8,4.9,9.5,6.2,14.7c-4.1,5.2-10,5.2-15.8,5.1c-2.3,0-4.6-0.7-6.8-1.5c-15-5.6-30.8-8.6-45.8-14.3
           c-8.8-3.3-17.7-5.5-27.3-4c-8.2,1.3-16.3-1-24.2-3c-11.3-2.9-22.9-4.6-34.4-6.4c-4-0.6-7.6-0.3-10.6,2.9
           c-2.2,2.4-5.2,2.8-8.3,2.4c-17.4-2.1-34.8-3.9-52.2-5.2c-13.9-1-27.9-2.7-41.9-2.4c-20.3,0.4-40.6-1.7-60.9-2.1
           c-1.2,0-2.3-0.1-3.4-0.5c-0.8-0.3-1.6-0.7-1.7-1.6c-0.2-1.2,0.5-1.8,1.4-2.4c2.1-1.2,4.4-1,6.8-1c10,0.2,19.8-1.6,29.7-3.1
           c1.6-0.2,3.3-1,3.6-3c0.3-1.9-0.6-3.4-2.2-4.1c-6.1-2.8-11.7-6.2-15.6-12c-0.9-1.3-2.8-1.7-4.3-2.4c-4.6-1.9-9.4-3.5-14.1-5
           c-1.9-0.6-4.4-1.2-4.2-3.6c0.4-4.6-2.5-4.4-5.4-4.2c-26.4,2-52.9,2.5-79.2,4.7c-7.3,0.6-14.7,0.4-22,0.1
           c-23.3-0.9-46.2,2.1-69.1,5.7c-19.3,3-38.6,5.6-57.9,8C133.6,224.4,130.3,225.9,129,221.9z"/>
         <path fill="#3752D6" d="M78.9,448c2.7-0.2,3.9-2.3,5.4-4c8-9,18.2-13.4,29.9-15.1c10.3-1.5,20.9-0.3,31.1-2.9
           c1.1-0.3,2.8,0.1,2.9-1.3c0.2-1.9-1.7-1.4-2.9-1.8c-5.8-1.9-11.6-4.2-16.9-7.3c-3-1.7-5.9-4-4.7-8.3c1.4-5,1.5-11.1,8.3-12.1
           c13.2-1.9,26.4-4.1,39.8-5.3c13.1-1.2,26.2-3.3,39.3-4.7c13.6-1.5,27.3-2.8,40.9-4.2c16.3-1.7,32.5-3.2,48.8-5.2
           c3.4-0.4,6.1,0.9,9.2,1.2c8.3,0.4,16.4,1.7,24.4,4.1c2.7,0.8,5.6,1.2,8,2.8c2.9,1.9,3.3,4.8,0.5,6.4c-6.3,3.6-11.1,9-16.8,13.3
           c-3.5,2.6-7.3,3.7-11.6,3.9c-22.1,1.3-44.2,1.2-66.4,1.9c-28.2,0.9-55.4,7.2-82.4,14.4c-1.2,0.3-3,0.3-3,2.1
           c0,1.5,1.5,2.1,2.7,2.6c2.2,1,4.6,0.9,6.9,0.9c18.2-0.1,36.2-2.2,54.3-3.4c15.6-1,31.2-2.7,46.8-3.6c10-0.6,19.9-1.6,29.8-2.4
           c10.1-0.8,20.1-1.4,30.3,0.6c12.6,2.4,25.2,0.1,37.8-1.5c12.9-1.6,25.7-3.9,38.7-4.8c3.6-0.3,6.7-1.8,9.9-3.4
           c5.4-2.7,11-4.9,17.2-3.5c3.6,0.8,6.1-0.7,7.4-4.2c1.9-1.6,3.8-0.4,5.7,0c17.7,3.1,35.2,3.9,52.9-0.9c15.9-4.3,31.9-8.5,48.6-7.9
           c4.4,0.2,9-0.6,13.1-2.7c3-1.5,6.1-1.2,9.2-0.2c4.1,1.3,8.1,3.2,12.2,4.6c1.3,0.5,3.1,1.6,4-0.2c0.8-1.4-1-2.2-2-3.1
           c-3.1-2.6-6.1-5.2-9.8-6.9c-7.7-3.6-11.9-9.8-13.8-17.9c-1.5-6.3-5.7-11-11.3-12.3c-15.1-3.7-27.7-11.9-40.7-19.7
           c-8.2-5-17.5-6.2-26.8-6.9c-2-0.2-4.1,0.3-5.6-1.4c4.7-4,9.8-3.9,15.7-2.4c9.6,2.5,18.3,6.6,26.3,12.6c7.1,5.4,14.7,10,24.1,11.1
           c8.1,1,15.3,4.8,20.3,11.6c4.6,6.3,11.4,5.5,17.6,5.5c5.6,0,11.2-0.7,16.8,0.3c2.3,0.4,4.9-0.6,7.3-0.6c12-0.3,23.8,1.7,35.5,3.4
           c13.1,1.8,26,4.6,39.4,4.8c8.2,0.1,16.4,1.7,24.6,2.5c4.8,0.5,9.6,1.3,14.1-1.5c1.3-0.8,2.7-1.4,4.1-0.2c0,1,0.1,2,0.1,3
           c-4.1,3.7-7.3,8.2-10.8,12.3c-7.3,8.5-17.8,10-26.1,2.6c-14.5-13-32.1-17-50.4-19.5c-5.8-0.8-11.6-1.2-17.4-0.9
           c-5,0.3-6.6,2.5-4.2,6.8c4,7,4.6,14.1,2.7,21.7c-0.6,2.6-0.6,5.3-0.5,8c0.2,5.1-0.9,6.5-6,7.4c-11.1,2-22.3,1.4-33.4,0.7
           c-8.1-0.5-16.3-1.1-24.4-1.4c-32.4-1-64.9-3.3-97.3-2.1c-10.1,0.4-20.3,0.5-30.4,1.8c-1.5,0.2-3.1,0.3-4.4,1
           c-9.1,5.3-19.3,5.6-29.4,6.7c-17.4,1.8-34.7,3.6-52.2,4c-3.4,0.1-6.6-0.6-9.9-1.1c-11.9-1.6-23.6,0.8-35.3,1.9
           c-17.1,1.7-34.1,3-51.2,4.6c-16.4,1.5-32.8,3.1-49.2,4.6c-12.1,1-24.2,2.3-36.3,3.4c-3.3,0.3-6.3-0.4-8.3-3.4
           c-1.6-2.4-4-3.4-6.9-3.4c-9.5,0.1-19-0.4-28.4,0.9c-12.3,1.8-22.5,6.9-30.4,16.6c-1.5,1.9-2.7,4.4-5.8,4
           C78.4,452.9,79.1,450.4,78.9,448z"/>
         <path fill="#3148C1" d="M129,221.9c4.9,2.9,9.7,0.2,14.5-0.4c13.8-1.5,27.5-3.6,41.2-5.6c11-1.5,21.9-3.5,32.9-4.6
           c7.7-0.7,15.3-2.6,23.2-2.5c8,0.1,16,0,24,0c20.3,0.2,40.4-1.8,60.6-2.8c7.8-0.4,15.6-1.3,23.4-1.1c6.2,0.2,12.2-1.2,18.4-0.9
           c2.4,0.1,7.8-0.7,3.9,5.1c-1.4,2.1,1.3,2.3,2.5,2.6c5,1.3,9.8,3.1,14.6,5c3.8,1.5,6.9,3,8.9,7.2c1.9,4,6.8,5.2,10.8,6.6
           c3.6,1.3,4.6,3.7,4.7,6.8c0,3-2.8,3.7-5,3.9c-10.6,1.2-21,4.4-31.8,2.8c-1.8-0.3-2.5,0-5.9,1.8c0.1,0.8,0.7,1.1,1.4,1.1
           c9.8-0.6,19.6,0.7,29.4,1.2c14.5,0.8,29-0.2,43.3,1.1c18.4,1.6,37,1.7,55.4,4.5c10.2,1.6,20.8,1.6,31.1,3.2
           c2.2,0.3,4.9,0,5.9-1.9c2.8-5.3,7.5-4.4,11.8-3.9c15.6,2.1,30.9,5.7,46.2,9.1c4.3,1,8.8,1.4,12.9,0.5c10.1-2.2,19.1,1.1,28.1,4.4
           c9.3,3.5,19,5.9,28.6,8.6c6.6,1.8,12.8,4.6,19.4,6.3c7.1,1.8,13.1-0.4,19.1-3.2c1.2,1.4,1.7,3.2,2,5c-4.7,3.8-10.1,4.7-15.9,4
           c-10.4-1.4-20.5-4.5-30.6-6.9c-36-8.4-72.3-14.9-108.9-20.3c-2.8-0.4-5.9-1-8.4,0.5c-7.1,4.3-14.5,2.5-21.9,1.9
           c-16.7-1.4-33.4-3.3-50.2-3.9c-20.1-0.8-40.2-1.3-60.3-2.1c-15-0.6-29.9-0.8-44.8-0.4c-12.4,0.3-24.9,0.4-37.4,1.3
           c-9.9,0.7-19.9,1-29.9,1.3c-5.5,0.2-11.3-1.6-17.1-2c-13.8-0.8-27.6,0.3-41.4,1.2c-20.1,1.3-40.1,4-59.5,9.7
           c-6.9,2-13.6,4.4-19.6,8.5c-1.9,1.3-4.1,2.4-6.4,2.7c-11.8,1.6-22.1,7.2-32.5,12.5c-6.9,3.5-14,6.3-21.5,7.7
           c-1.9,0.3-4.5,1.7-4.8-1.9c4.7-14.8,10.7-29,18.1-42.7c10.1-5.5,21-8,32.2-10c17.4-3.1,35.2-2.5,52.7-4.4
           c16.5-1.8,33.1-3.5,49.7-4.6c2.3-0.2,4.6-0.5,7-0.5c43.1-0.3,86.2-1.6,129.4-1c2.7,0,5.3,0.1,7.9-0.7c1.4-0.5,2.5-1.3,1.3-2.9
           c-2.6-3.8-4.8-8.1-10.2-8.7c-8.3-1-16.5-2.3-24.9-1.3c-4.7,0.5-9.3,0.8-14,0.7c-19.5-0.6-38.9,0.8-58.4,1.3
           c-23.4,0.5-46.8,2.4-70.2,4c-15.6,1.1-30.3,6.2-44.8,11.6c-8.8,3.3-17.6,6.1-27,6.9c-2.5,0.2-5,0.3-7.5,0.2
           c-9.4-0.7-12.1-4.3-10.3-13.6C125.2,226.9,127,224.3,129,221.9z"/>
         <path fill="#3652D5" d="M80,455c3.8-2.3,5.7-6.4,8.8-9.4c7.6-7.5,16.8-11,27-12.6c9.8-1.6,19.6-0.8,29.4-1
           c3.6-0.1,6.7,0.9,7.9,4.7c0.8,2.6,2.9,2.4,4.9,2.3c8.4-0.7,16.8-1.4,25.2-2.2c9.4-0.9,18.8-1.9,28.1-2.8
           c13.3-1.3,26.7-2.7,40-3.9c9.2-0.8,18.5-1.3,27.7-2.2c13-1.2,26-2.4,39-3.9c5.5-0.6,11,0,16.3,1.1c9.9,2.1,19.5,0,29.3-0.4
           c8.9-0.4,17.8-1.5,26.6-2.8c10.5-1.5,21.5-0.4,31.3-6.4c3-1.9,7.3-2.2,11.1-2.4c25.1-1.4,50.3-1.6,75.4-0.9
           c16.1,0.5,32.2,1.3,48.2,2c15.2,0.7,30.5,1.9,45.8,1.9c4.2,0,8.2-0.8,12.4-1.2c2.5-0.2,4.2-1.6,3.6-4.3c-1.1-5,0-9.8,1.1-14.6
           c1.3-5.8-0.5-10.7-3.3-15.6c-3.6-6.1-1.7-9.4,5.3-9.4c19.6,0,38.6,2.9,56.5,11.7c3.8,1.9,6.9,4.6,10,7.3c10.2,9.1,21,8,28.7-3.3
           c2.5-3.7,4.7-7.8,9.7-8.7c0.1,0.6,0.2,1.3,0.3,1.9c-0.1,2.4-0.1,4.7-0.2,7.1c-2.2,0.2-2.9,2.2-3.7,3.7
           c-7.9,14.5-24.9,17.4-38.4,5.6c-8.8-7.7-17.5-15.4-29.5-17.7c-8.3-1.5-16.6-2.9-25.1-2.7c-3.8,0.1-5.6,1.4-4.3,5.6
           c1.7,5.6,2.5,11.1,1.3,17.1c-1.3,6.6,0,7.3,6.8,8.4c16,2.6,32.2,3.3,47.9,7.6c3.5,0.9,7.2,0.8,10.8,1.3c2.3,0.3,5.3,0.7,5,3.7
           c-0.3,3-3.5,3.7-5.9,3.2c-7.3-1.5-14.6-0.9-21.9-0.8c-15,0.1-29.9-0.8-44.8-1.4c-11.3-0.4-22.6-0.2-33.9-0.7
           c-14.4-0.6-28.8-1.3-43.2-2c-16.6-1.7-33.3-0.2-49.8-1.2c-9.8-0.6-19.7-1.4-29.3-0.5c-14.3,1.3-28.6-0.5-42.8,1.6
           c-4.4,0.7-7.9,2.9-11.1,5.3c-8.7,6.4-18.3,5.2-27.8,4.3c-9.1-0.8-18.3-0.9-27.4-0.1c-8.6,0.7-17.2,1-25.8-0.1
           c-8.4-1.1-17-0.2-25.3,0.9c-20,2.6-39.8,6.1-59.5,10.8c-20.3,4.8-39.4,12.7-58.4,21c-13.4,5.8-23.8,15.5-35.3,23.8
           c-9.5,6.8-20,11.8-30.1,17.6c-0.4,0.2-0.9,0.4-1.3,0.7c-7.3,5.7-10.6,7.6,0.2,13.6c2.8,1.5,6.3,3.5,6.2,6.5
           c-0.1,3.3-4.3,3.6-7,4.5c-5.3,1.9-10.7,3.4-16.1,5.2c-1.2,0.4-1.9,1.2-2.4,2.4c-1.1-1.2-1.9-2.6-1.9-4.3c2.1-3.4,6.1-3,9.1-4.5
           c2.6-1.3,6.7-1.3,7.2-4.5c0.6-3.2-3.4-4-5.5-5.6c-4.8-3.8-5.1-6.8-0.4-10.9c2-1.8,4.2-3.2,6-5.2c2.2-2.5,2-4.8-0.4-6.9
           c-2.3-2-4.8-3.5-7.6-4.8c-8.5-3.9-9.2-5.3-6.8-14c0.2-0.6,0.4-1.3,0-2.3c-3.4,0.4-6.2,2.4-9.4,3.4c-3.5,1.1-6.9,2.6-10.5,0.4
           C82,468.5,80.2,461.9,80,455z"/>
         <path fill="#3148C1" d="M661,205c-2.6,1.9-5.2,0.6-7.6-0.1c-13.8-4.4-28.2-5.4-42.4-7.8c-9.4-1.6-19-2.4-28.3-5.3
           c3.5-3.1,8.2-0.3,11.8-3.2c-2.8-3.1-6.7-2.8-10-3.3c-19.3-2.5-38.6-5.8-58-7.3c-7.6-0.6-15.1-1.7-22.6-2.8
           c-6.9-1.1-10.7-5.4-11.8-12.2c-0.5-3.2-2.4-5.4-5.2-6.9c-7.9-4.5-16.5-6.8-25.6-6.9c-18.1-0.2-36.2,0.3-54,4
           c-4.8,1-9.1,2.8-12.9,6.1c-5.8,4.9-12.9,6.7-20.3,6.9c-9.2,0.2-18.3,0-27.5,0.1c-16.9,0.1-33.7,1-50.2,5.6
           c-16.6,4.6-33.6,7.9-50.9,9.2c-11.2,0.8-22.4,1.9-33.6,3.2c-18.4,2.2-36.8,4.7-54.6,9.8c-2.8,0.8-5.5,1.4-8.3,1
           c1.4-1.6,2.8-3.3,4.3-4.9c15.2-4.9,30.9-8.2,46.5-11.5c6.7-1.4,13.4-2.7,21-5c-4.2-1.6-7.7-1.3-10.9-2.3
           c-1.6-0.5-3.6-0.8-3.5-2.9c0.1-1.7,1.9-2.2,3.3-2.6c5.3-1.6,10.6-2.8,16-3.8c28.7-5.1,57.6-8,86.7-9.8
           c26.9-1.7,53.8-2.3,80.8-2.8c14-0.2,27.8-3,41.7-4.2c12.8-1.1,25.6-1.4,38.3,0.8c4.7,0.8,8.7,3.3,12.9,5.2
           c10.7,4.8,22.2,5.8,33.5,7.2c18.9,2.4,38.1,3.5,56.1,11.1c4.5,1.9,9.4,3.3,12.3-2.9c0.7-1.4,2.5-1.8,4-1.5
           c14.6,2.1,29.4,3.6,43,10C644.9,183.9,653.3,194.2,661,205z"/>
         <path fill="#3752D5" d="M204.9,141c5.4-4.5,11-8.6,17.1-12c9.3,0.1,18.5-1.8,27.7-2.9c21.5-2.4,43.1-4.1,64.7-5.7
           c11.9-0.9,23.8-2.6,35.8-3.5c12.5-0.9,25-0.2,37.5-0.3c14-0.1,28-0.5,42,0.2c14,0.6,27.9,0.9,41.9,2.4c1.3,0.1,2.7,0.4,4,0.1
           c12.5-3.5,24.9-0.1,37.2,1c23.9,2,47.5,6.7,70.8,12.3c0.5,0.1,1,0,1.5-0.1c2.7,1.5,5.2,3.2,7.2,5.7c-3.7,2.7-7.7,1.6-11.5,0.7
           c-14.5-3.1-28.8-7-43.4-9.6c-11.8-2.2-23.6-3.8-35.5-4.5c-25.9-1.7-51.9,0.9-77.8-0.1c-12.1-0.5-24.3-0.5-36.4-1.7
           c-8.4-0.8-16.7,0.1-24.9,1.2c-14.7,1.9-29.5,2-44.3,2.7c-22.6,1-45.2,2.4-67.6,5.8c-1.5,0.2-3,0.4-5,1.2c6.9,2.1,13.4,2.7,19.9,3
           c31.2,1,62.2-2.1,93.4-2.2c18.4-0.1,36.9-1.7,55.4-1.7c5.8,0,11.7-0.4,17.4-1.2c14.6-2,28.2,1.4,41.3,7.2
           c11.6,5.2,23.8,7,36.4,8.1c30.5,2.6,61.1,4.4,91.2,10.9c6.5,1.4,13.2,1.8,19.7,3.4c3,2.1,6.2,3.8,8.2,7c-1.9,2-4.3,1.6-6.5,1
           c-18.1-4.7-36.4-8.4-55-9.7c-15.4-1.1-30.7-3.7-46.1-4.7c-15.6-1.1-31.1-3.1-45.8-8.7c-14.2-5.5-29.1-4.8-43.9-3.6
           c-9.5,0.8-19,0.9-28.4,1.1c-16.5,0.3-33,1-49.4,1.4c-14.4,0.4-28.9,0.5-43.2,3.5c-5.5,1.1-11.3,0.9-16.9,1.2
           c-15.2,1-30.5,2.4-45.7,3.3c-8.4,0.5-16.8,1.8-25.3,1.9c-2.5,0-5-0.1-7.5-0.5c-6.7-1.2-7.4-1.9-8.3-8.7
           C206.1,143.7,205.2,142.4,204.9,141z"/>
         <path fill="#3248C2" d="M263,106c1,3.5,3.9,2.1,5.8,1.9c16.3-2.1,32.7-2.7,49.1-3.1c6.8-0.2,13.6-1.4,20.3-0.7
           c14.1,1.5,28.3-0.2,42.3,1.1c15.1,1.3,30.3-0.2,45.3,1c13,1,25.9,1.2,38.8,0.7c11.2-0.4,22.3-2.4,33.4-3.9
           c3.7-0.5,6.9-2.4,10.1-4.1c1.9-1,3.4-2.4,1.8-4.8c20.7,7.1,40.5,16.3,59,28c0.9,2.9-1.5,2.9-3.1,3.2c-3.6,0.6-7.3,0.3-10.9-0.4
           c-12.6-2.3-25.3-4.9-38-5.6c-13.6-0.8-27.1-2.1-40.8-1.1c-10.1,0.7-20.3-0.6-30.4-1c-3-0.1-6-0.7-9-0.6
           c-10.3,0.3-20.6-0.8-30.9-0.9c-18-0.3-36,0.1-53.9,1.2c-32.2,2-64.6,2.4-96.5,7.8c-7.4,1.2-14.7,2.5-22.2,3.5
           c-2.4,0.3-5.4,1.5-6.4-2.4C238.1,117.7,250.4,111.5,263,106z"/>
         <path fill="#3956DF" d="M620.2,160.9c-5.8,1.8-11.4-0.5-17-1.4c-17.3-2.8-34.5-6.1-52-7.7c-19.9-1.8-39.9-2.7-59.7-5.7
           c-9-1.4-17-5.5-25.4-8.6c-10.5-3.9-21-6-32.5-4.8c-7.7,0.8-15.5,1.6-23.3,1.3c-14.6-0.6-29.3,0.7-43.8,1.3
           c-12.8,0.5-25.6-0.3-38.4,0.8c-21.2,1.8-42.5,2-63.7,1.8c-7.7-0.1-15.2-1.8-23.5-3.8c2.9-2.3,5.4-2.8,8-3.2
           c18.3-2.7,36.8-4.1,55.3-5.1c15.1-0.8,30.2-1.1,45.2-2.1c12.5-0.8,25-3.6,37.6-2.8c19.7,1.4,39.5,2.1,59.2,1.9
           c7.1-0.1,14.2,0,21.3,0c4.6,0,9.3-0.5,13.9-0.8c11.6-0.8,23.1,1.1,34.7,2.3c22.8,2.3,44.9,8.2,67.1,13.3c2.9,0.7,6,0.2,9,0.2
           c1.9,0.7,3.6,1.6,4.8,3.2c-1.1,4.2-4.5,3-7.3,2.8c-11.9-0.8-23.2-4.2-34.6-7.4c-20.4-5.8-41.4-8.5-62.4-10.2
           c-4.9-0.4-9.9-2-14.8-0.1c-2.6,1-6.3,1.5-6.6,4.5c-0.3,3.1,3.5,3.4,5.8,4.5c11.1,5.8,23.3,6.6,35.4,7.1c25.5,1,50.8,3.4,75.8,8.1
           c8.7,1.6,17.4,2.7,26.1,4.3C616.7,156.4,618.3,158.8,620.2,160.9z"/>
         <path fill="#344CCA" d="M710.1,299c-8-3.3-15.8-6.8-24.6-7.6c-28.7-2.8-56.4-11.2-84.8-15.6c-19.1-2.9-38.2-5.7-57.3-8.7
           c-3.7-0.6-7.4,0.7-10.6,2.2c-7.6,3.5-15.2,3.4-22.8,1.1c-14.8-4.4-29.7-5.5-45.1-5.7c-39.6-0.6-79.2-0.9-118.8-0.7
           c-17.1,0.1-34.2,1-51.2,2c-16.5,1-33,2.2-49.4,4c-17.2,1.9-34.4,4.4-51.5,7.1c-20.1,3.2-40,7.6-59.7,12.6
           c-11.5,2.9-22.1,8.1-33.5,11.2c-3.1,0.9-6.3,3.4-9.8,0.7c0-1.1-0.3-2.2,0.8-3c14.5-2.7,27.2-10.6,41.1-15
           c22.3-7.1,45.2-11.4,68.4-14.3c24.6-3.1,49.3-5.9,74-7.8c17.6-1.3,35.2-2.4,52.8-3.4c34.8-1.9,69.6-2.6,104.3-1.6
           c19.3,0.6,38.7-0.6,57.8,1.8c12.7,1.6,25.4,3.7,38.2,3.9c2.9,0.1,5.5-0.4,8.2-1.7c5-2.5,10.5-1.7,15.7-1
           c36.1,5,71.9,11.7,107.4,19.9c9.1,2.1,18.1,4.3,27.3,5.8c6.2,1,12.2,1.2,18.2-0.9C706.8,289.5,708.5,294.2,710.1,299z"/>
         <path fill="#324BC7" d="M705.1,284.8c-3.3,5-8.5,3.6-12.8,3c-16.6-2.4-32.8-6.6-49.1-10.1c-22.6-4.9-45.3-9.5-68.2-12.8
           c-10-1.4-19.9-3.4-30-4.1c-2-0.1-4.4-0.4-5.8,0.5c-9.9,5.6-20.5,3-30.3,1.4c-19.6-3.2-39.1-3.1-58.8-3.8
           c-24-0.9-47.9-0.7-71.9-0.7c-13.8,0-27.6,0.7-41.4,1c-16.4,0.4-32.8,1.5-49.1,3c-20.1,1.9-40.2,3.2-60.2,5.8
           c-19.2,2.4-38.5,4-57.4,8.2c-17.3,3.8-34.9,6.7-51.2,14.1c-8.8,4-17.6,7.7-27.3,8.7c0.4-1.1-0.1-2.4,1.2-3.2c1,1.6,2.4,1.3,4,0.9
           c7.1-1.7,14.1-3.8,20.6-7.2c8.4-4.4,16.6-9.9,25.9-11.3c9.9-1.5,17.6-7.4,26.5-10.6c13.2-4.7,26.8-7.3,40.5-9.4
           c19.3-3.1,38.9-3.4,58.4-4.5c5-0.3,10.3,0.1,15.3,0.8c3.6,0.5,7.4-1.2,10.8,2.3c1.1,1.1,5.5-0.8,8.3-1.2
           c9.8-1.4,19.7-0.8,29.5-1.1c14.3-0.4,28.5-1.7,42.9-1.3c21.2,0.5,42.4,0.4,63.6,1.1c18,0.6,36.1,1.7,54.1,3
           c11.9,0.9,23.7,2.6,35.5,3.8c1.8,0.2,3.8,0.5,5.4-0.6c6.8-5.1,14.3-3.3,21.6-2.1c21.2,3.5,42.4,7,63.5,10.9
           c13.7,2.6,27.2,6,40.7,9c9.5,2.1,18.8,5.1,28.5,6.6c3.8,0.6,7.3-0.3,10.7-1.5c1.6-0.5,3-1.4,4.8-1.3
           C704.9,282.7,705.2,283.7,705.1,284.8z"/>
         <path fill="#344CCA" d="M635,175c-7.8-0.7-14.9-4.4-22.7-5.4c-6.9-0.9-13.7-2.3-20.5-3.4c-1.9-0.3-3.3,0.3-3.7,2.3
           c-0.9,4.4-3.6,4.9-7.5,3.9c-5.3-1.4-10.6-2.8-15.6-4.9c-9.3-4-19.3-4-29.1-5.6c-17.4-2.7-35.7-2-51.8-10.2
           c-16.3-8.2-33.3-5.6-50.3-4.9c-10.8,0.5-21.3,2.5-32.1,3.4c-17.8,1.5-35.6,0-53.4,0.9c-18,0.9-36,2.8-54,3.8
           c-11.6,0.6-23.1,1.5-34.6,3.2c-17.2,2.5-34.4,4.9-51.2,9.3c-0.6,0.2-1.1,0.6-2.6,1.4c4.8,1.4,8.9,2.3,13.1,2.3
           c1.7,0,4,0.1,4.2,1.8c0.3,2-2.2,2-3.7,2.5c-14,4.2-28.5,6.1-42.6,9.8c-6.6,1.7-13.2,3.4-19.7,5.1c-1.5,0.4-2.8,0.9-4.3-0.1
           c9-11.3,19-21.7,30.1-31c10.1-2.4,20.4-2.8,30.7-3.4c13.4-0.8,26.8-2.5,40.2-3.4c17.6-1.2,35.1-2.5,52.7-3.8
           c12.8-1,25.5-1.6,38.3-2.5c12.1-0.8,24.3-0.4,36.5-0.3c12.5,0.2,24.9-1.4,37.3-2.4c16.2-1.4,32.5-3,48.7-0.1
           c6.7,1.2,13.1,3.7,19.5,6.1c7.4,2.8,15.2,3.6,22.9,4.3c15.5,1.4,31.2,2.3,46.4,5.7c8.8,1.9,17.6,0.8,26.4,1.8
           c12.5,1.5,24.9,3.9,37.1,7c3.9,1,7.9,1.1,11.5,3C632.8,172,634.5,173,635,175z"/>
         <path fill="#3C5AEC" d="M614.3,154.9c-7.7,1.8-15.1-0.9-22.4-2.2c-13-2.4-26.1-4.1-39.2-5.7c-14.5-1.8-29-2.2-43.6-3
           c-13.1-0.7-26-2.6-37.6-9.6c-4-2.4-4.2-3.7-0.6-6.2c5.3-3.6,10.9-4.7,17.5-3.6c7.1,1.2,14.4,1.7,21.7,2.3
           c17.1,1.4,33.7,5.1,50.1,9.7c10,2.8,20.2,5.2,30.6,6.3c2.2,0.2,4.8,0.9,6.3-1.7C603.4,144.9,608.8,149.9,614.3,154.9z"/>
         <path fill="#354ECC" d="M631.4,170.9c-8.8-0.5-17.1-3.8-25.7-5.3c-10.9-1.9-21.8-4.3-33-3.6c-8.9,0.6-17.4-2.1-26.1-3.3
           c-7.8-1.1-15.7-2.1-23.6-2.7c-15.7-1.2-31-3.5-46-9.3c-14.3-5.6-29.6-4.1-44.8-3.1c-9.1,0.6-18.1,1.5-27.2,2.4
           c-19.1,1.9-38.2,0.2-57.3,1.1c-18.7,0.8-37.3,2.6-56,3.8c-11.2,0.8-22.5,1.2-33.7,2.1c-12,1-24,2.6-36,3.7
           c-5.8,0.6-11.6,0.5-17.4,1.1c-5.4,0.6-10.9,0.9-16.2,1.9c-2,0.4-3.6-0.6-5.3-0.7c6.6-6.9,13.8-12.9,21.7-18.1
           c3.3,0.5,4.2,2.6,3.1,5.4c-1.5,3.7,0.5,5,3.4,5.5c3.4,0.6,6.8,1.3,10.4,1.2c12.2-0.5,24.4-1.6,36.6-2.9c5.3-0.6,10.6-0.5,15.9-1
           c16.4-1.7,33-1.6,49.4-4.9c7.1-1.4,14.5-0.6,21.8-1.1c17.1-1,34.2-0.8,51.3-1.2c18.4-0.5,36.8-2,55.2-2c7.1,0,13.9,1.2,20.5,3.4
           c13.7,4.6,27.5,7.8,42.1,8.9c19.8,1.4,39.5,3.9,59.2,6c16.2,1.7,32.4,4.7,48.2,9.2c2.2,0.6,4.3,0.4,6.4,0.4
           C629.4,168.9,630.4,169.9,631.4,170.9z"/>
         <path fill="#344CCA" d="M226.8,125.7c4.4,3.5,9.1,0.6,13.3-0.1c17.8-2.9,35.6-5.5,53.6-6.7c17.2-1.1,34.4-1.8,51.6-3.1
           c7.8-0.6,15.6-0.6,23.4-0.7c7.5-0.1,14.9-0.8,22.4-0.9c16.8-0.1,33.6-0.2,50.3,1.1c9.6,0.8,19.3-0.5,28.8,1.6
           c4,0.9,7.9-1,11.9-0.9c19,0.8,38,1,56.9,4.6c8.4,1.6,16.8,4,25.5,3.4c1.7-0.1,3.9,0.9,4.5-1.9c5.9,2.4,10.4,7.1,15.9,10.2
           c-2.5,1.3-5.2,0.9-7.8,0.3c-20.5-4.6-41.1-8.4-62-10.7c-8.9-1-17.8-0.9-26.6-2.8c-1.4-0.3-3-0.3-4.5,0c-16.7,3.2-33.2-0.5-49.8-1
           c-1.5,0-3-0.1-4.5-0.1c-23.1,0-46.3-0.1-69.4,0c-14.3,0.1-28.4,2-42.5,3.8c-5.2,0.7-10.6,0.6-15.9,1c-17.6,1.5-35.3,2.8-52.8,5
           c-7.9,1-15.8,1.7-23.6,2.9c-1.8,0.3-2.9-0.3-3.6-1.8C223.6,127.8,225.2,126.8,226.8,125.7z"/>
         <path fill="#3048BE" d="M117.9,562.2c6.4-5.2,4.4-12.6,4.8-19.3c0.2-3-4.5-2.1-6.1-4.6c1.8-3.4,5.8-3.4,8.7-4.9
           c5.4-2.7,11.2-4.1,17.2-4.4c3.6-0.2,6.2,0.9,6.6,5.5c0.5,5.4,5.6,7.2,9.6,9c5,2.2,9.5,4.7,13.1,8.7c2.9,3.3,6.4,5.6,10.7,7.1
           c2.3,0.8,5,1.6,6.1,4.1c1.7,4,4.6,4.7,8.5,4.5c15.2-0.6,30.4-1.6,45.6-3c0.5,0,1-0.1,1.5-0.1c19.4-0.1,38.9-2.1,58.3-0.9
           c11.9,0.8,23.8,0.5,35.6,2.9c0.8,0.2,1.7,0.2,2.1,1.3c-7.1,2.4-14.5,1.6-21.8,2.5c-11.3,1.4-22.5,3.5-33.8,5.5
           c-26.8,4.8-52.6,13.6-78.6,21.5c-11.4,3.5-21.3,9.9-31.4,16c-4.3,2.7-9.4,4.2-12.8,8.3c-3.3-3.1-6.3-6.5-8.9-10.2
           c5.5-3.4,11.6-5.8,16.8-9.7c7.7-5.8,12.6-13.1,13.1-23c0.1-2.5-0.4-4.7-2.8-5.2c-7.7-1.4-12.4-7.3-17.8-11.8
           c-3.6-3-7.3-3.2-11.6-2.1c-7.9,2.1-14.4,6.7-21.4,10.5c-1.7,0.9-3.1,2.8-5.4,1.4C121.4,569,119.5,565.7,117.9,562.2z"/>
         <path fill="#2C40AD" d="M123.8,572.1c4.7-2.5,9.6-4.7,13.9-7.6c4.7-3.2,9.9-4.6,15.1-6.2c4.2-1.2,13.8,3,15.7,7.5
           c1.5,3.6,4.1,4.5,7.2,5.1c2,0.4,3.7,1.4,5.5,2.2c2.5,1.1,3.2,2.7,3,5.8c-0.7,13.6-8.7,21.7-19.5,28.1c-3.7,2.2-7.3,4.6-11.8,5
           C141.9,599.7,132.2,586.3,123.8,572.1z"/>
         <path fill="#3752D6" d="M83.7,475.1c6.6,0.5,12.3-2.4,18-5c1.1-0.5,2.4-1.7,3.6-0.6c1.3,1.2-0.1,2.5-0.3,3.7
           c-0.1,0.5-0.3,1-0.4,1.4c-2.4,7.1-1.8,8.4,5.5,11.5c3.1,1.3,6,3,8.5,5.1c3.9,3.2,4,5.5,0.4,9.1c-1.9,1.9-4.1,3.4-6.1,5.1
           c-4.3,3.8-4.1,5.6,0.5,8.8c1.2,0.8,2.5,1.7,3.7,2.5c4.8,3.4,4.7,5.5-0.8,7.9c-4.7,2.1-9.7,3.6-14.5,5.3c-0.4-1-0.8-2-1.2-2.9
           c1.5-3,4.8-2.7,7.2-4c3.3-1.8,3.5-3,0.6-5.4c-0.8-0.6-1.7-1.1-2.4-1.8c-3.8-3.1-4-5.6-0.9-9.3c1.3-1.5,2.9-2.8,4.1-4.3
           c2.5-3,1.7-5.2-2.2-5.8c-2.5-0.4-5-0.2-7.4,0.2c-3.7,0.6-7.3,0.3-10.6-1.7C86.6,488.6,85.2,481.8,83.7,475.1z"/>
         <path fill="#3956DF" d="M89.1,495c5.7,1,11.5,0.3,17.2,0c2.9-0.2,4.9,1,6.2,3.3c1.5,2.7-1.3,3.7-2.5,5.3c-0.3,0.4-0.7,0.7-1,1.1
           c-6.8,6.8-6.8,6.8,1,12.3c4,2.8,3.9,4.8-0.7,7c-2.7,1.3-5.6,2.1-8.3,3.2C95.9,516.8,92.1,506,89.1,495z"/>
         <path fill="#344CCA" d="M123.9,229.8c0.2,0.8,0.5,1.6,0.6,2.4c0.6,7.8,2.8,9.3,11,9.9c11.6,0.9,21.9-3.3,32.3-7
           c18-6.4,36-11.9,55.6-12.3c17.7-0.4,35.4-2.2,53.1-3c7.3-0.3,14.6-0.3,21.9-0.8c17.4-1.1,34.9-0.3,52.3-1.2
           c10.7-0.6,21.1-0.7,31.6,1.2c3.8,0.7,7,2,8,6.3c0.3,1.1,1.5,2.3,2.5,3c4.7,2.7,1.8,3.7-0.9,4.7c-2.2,0.8-4.5,1.1-6.8,1.1
           c-13.5-0.1-27,0.2-40.5-0.1c-31.5-0.6-62.9,1.1-94.3,1.3c-13.1,0.1-26.4,1.8-39.5,3.5c-8.7,1.2-17.5,1.5-26.2,2.2
           c-19.3,1.5-38.8,1-57.5,6.9c-5.3,1.7-10.1,5.2-16,5.1C114.6,244.9,119,237.2,123.9,229.8z"/>
         <path fill="#344DC8" d="M299,433c5-3.3,10.9-1.6,16.3-2.8c5.2-1.1,10.8,0.4,16.3-0.9c1.4-0.3,3.2,0.4,4.4,1.7
           C323.6,430.1,311.3,432.3,299,433z"/>
         <path fill="#344DC8" d="M273,438c8.4-3.2,17.1-4.6,26-5C290.4,435.3,281.8,436.9,273,438z"/>
         <path fill="#3550D3" d="M506.6,521.3c-3.3-3.2-8-2.4-11-5.6c1.6-1.1,3.1-0.7,4.4-0.6c17.7,0.4,35.4,1.9,53,3.8
           c20.1,2.1,39.9,5.7,59.6,10.2c5.6,1.3,11.2,2.9,16.8,4.7c6,2,12,3.5,18.5,3.5c6.1,0,11.9,2.6,17.7,4.6c1.6,0.6,3.3,1.6,3.3,3.4
           c0.1,4.3,2.5,6.2,6.2,7.3c0.6,0.2,1.3,0.5,1.8,0.9c2.3,2,5.2,3.9,5,7.1c-0.2,3.1-3.5,4.1-5.9,5.5c-4.6,2.7-9.3,1.4-14,0.4
           c-4-0.8-7.9-1.2-11.4,1.6c-1.3,1-2.7,1-4.2,0.6c-3.2-1-6.3-2.1-9.6-2.8c-4-0.8-6.7-2.4-7.6-6.6c-0.5-2.2-2.2-3.6-4.5-4.2
           c-4.9-1.4-9.9-2.9-14.7-4.6c-2.4-0.8-4.5,0-6.2,1c-7.3,4.2-14.9,2.2-22.3,1.2c-17.8-2.5-35.7-4.6-53.5-7.7
           c-13.7-2.4-27.6-3.1-41.4-4.7c-5.6-0.6-11.3-0.9-16.9-0.9c-23.6,0-47.2-2-70.9-1.2c-3,0.1-5.9,0.7-8.9,0.9
           c-4.1,0.3-7.7-0.6-11.1-3.4c-5.3-4.6-11.8-2.6-17.7-2.3c-9.4,0.5-18.7,1.9-28.1,2.7c-13.5,1.1-26.9,2.6-40.2,5.5
           c-10.5,2.2-21.2,3.2-31.9,4.5c-15.1,2-30.1,4-45.2,5.6c-8.9,1-17.7,3.1-26.7,2.4c-4.1-0.3-7.8-1.1-9.3-5.8c-1-3.2-4.4-3.3-7-4.1
           c-3.6-1.2-7.6-1.4-10.3-4.4c-3.1-3.5-2.8-5.2,1.5-7c7-2.9,14.4-3.7,21.8-4.6c6.6-0.8,13.2-1.3,19.9-1.2
           c7.8,0.1,15.5,1.4,23.2,1.8c9.4,0.5,19,0,28.3-1c9.2-1.1,18.4-2,27.6-2.6c15.9-1,31.8-2,47.7-2.4c8.4-0.2,16.9-0.3,25.4-0.7
           c30.3-1.4,60.6-1.2,90.8-0.9c17.2,0.2,34.5,1.3,51.7,1.9C502.4,523.1,504.6,523.3,506.6,521.3z"/>
         <path fill="#3048BE" d="M333.4,543.2c8.5-2.8,16-2.2,23.3-3c5.1-0.6,10.3,0.1,15.4-0.2c4.1-0.3,7.5,1,10.5,3.5
           c1.2,1,3.3,1.9,2.7,3.7c-0.7,1.9-2.9,1.9-4.7,1.8c-4.8-0.3-9.5-0.6-14.3-1.1c-8.7-0.9-17.3-2-26-2.8
           C338.3,544.9,336.5,544.3,333.4,543.2z"/>
         <path fill="#3048BE" d="M689,540.6c0.1,2.4-0.4,3.9-3.4,2.9c-1.3-0.5-2.9-0.4-4.4-0.4c-1.7-0.1-3.6,0-4-2c-0.4-2-1-4.5,0.4-6.2
           c1.3-1.6,3.3-0.8,5,0.1C685.2,536.2,689.1,536.2,689,540.6z"/>
         <path fill="#364FD4" d="M345,577c-3.6,2.3-7.7,1.1-11.6,1.7c-23.2,3.7-46.4,7.1-69.1,13.3c-13,3.5-25.9,7.1-38.6,11.6
           c-1.9,0.7-3.8,1-5.8,1.4c7.6-4.2,15.8-6.8,24-9.4c16.1-5,32.2-10.1,48.9-13c11.2-2,22.5-3.7,33.8-4.7
           C332.8,577.3,338.9,577,345,577z"/>
         <path fill="#364FD4" d="M197,614c-7.8,3.6-16.4,5-24,9c2.6-3.3,6.5-4.3,10.2-5.5C187.7,616.1,192.2,614.2,197,614z"/>
         <path fill="#3045BC" d="M431.9,550c8.6,0,17.2,0.2,25.7,0c16.5-0.4,32.9,0.6,49.3,1.3c27.5,1.3,55.1,3.2,82.2,9.4
           c9.6,2.2,19.5,3.7,29.1,6.3c3.4,0.9,6.6,2.1,5.4,6.7c-0.4,1.7,1,2.4,1.9,3.2c4.8,4.6,10.4,7.7,16.9,9c5.1,1,9.9,2.9,14.2,5.8
           c0.9,0.6,2.5,1,1.7,2.5c-0.6,1.2-2.1,0.6-3.2,0.6c-27.9-0.2-54-9.3-80.6-16.1c-14.6-3.7-29.1-7.8-44-10.3
           c-20.7-3.6-41.4-6.9-62.1-10.4c-12.3-2.1-24.5-4.1-36.7-6.2C431.8,551.2,431.9,550.6,431.9,550z"/>
         <path fill="#5169D9" d="M334,382c-7.1-1-13.9-3.4-21.2-3.3c-0.9,0-1.9-1.1-2.9-1.7c-3-4.8-1.5-7.5,4.2-8c6.1-0.6,12.2-2.1,18,0.9
           c0.1,0.1,0.4,0.1,0.5,0.1c8.6-4.5,19.2-5.2,25.8-13.7c1.4-1.8,1.6-3-0.6-4.3c-3.3-2-2.8-4.5-0.9-7.5c3.2-5.2,8.2-8.1,13-11.3
           c2-0.1,1.6,1.3,1.4,2.4c-0.4,2-1.3,3.8-2.2,5.5c-2,3.7-2.8,6.9,0.6,10.7c2.8,3,0.8,7.9-3.2,10.6c-0.8,0.6-1.8,1-2.7,1.3
           c-2,0.7-3.8,1.4-3.9,3.9c0,1.7,1.3,2.2,2.6,2.6c2.1,0.6,4.4,2.1,6.2-0.8c1.9-3.1,4.5-2.6,6.8-0.8c4,3.1,8.4,4.5,13.5,4.4
           c1.8-0.1,3.8,0.3,5.3,1.3c5.9,4.1,11.6,8.3,17.4,12.4c0.4,0.3,0.5,0.9,0.4,1.4c-5.3,1.9-9.5-1.6-14-3.1c-2.5-0.8-4.4-2.8-7.3-3.3
           c4.9,1.3,7.1,5,10,8.8c3.8,5.1,10.5,6.8,17,7.1c4.4,0.2,2.5-3.7,3.3-5.8c4.1-0.7,7.8,0.9,11.1,2.7c3.3,1.8,6.6,3.6,10.1,5
           c0.7,0.5,1.2,1.1,1.5,1.9c0.7,3.8-1.3,6.6-4.7,5.9c-8-1.7-15.9,1.1-23.8-0.7c-6-1.3-12-2.6-17.8-4.6c-6.3-2.2-12.8-3.5-19.5-3.7
           c-5.9-0.1-11.1-2.2-15.3-6.3c-2.7-2.7-5.8-4.4-9.5-5.1C346.7,385.8,340.5,383.2,334,382z"/>
         <path fill="#3652D5" d="M443,401c-0.3-0.3-0.7-0.7-1-1c-1.1-1.3-4.9-2.2-0.7-4.3c7.8,2.9,15.9,3.6,24,3.9
           c16.7,0.5,33.3,0.3,49.4-5.2c7.4-2.6,15-4.7,19.6-12c0.4-0.7,1.2-1.3,1.4-2.1c1-6.2,2-12.3,5.3-17.9c1.5-2.6-1.2-5.4-3.4-7.2
           c-11.1-8.8-22.7-16.4-37.1-18.4c-8.6-1.2-17-3.1-25.3-5.8c-4.4-1.4-9-2.3-13.7-2.8c-2.1-0.2-4.4-0.3-5.7-2.5
           c1-2.3,2.6-1.4,4.2-0.8c6.8-0.1,13.3,2.1,20,3c15.8-0.6,30.2,3.6,43,13c7.6,5.5,15.7,9.6,25,11.7c8,1.7,15,5.7,17.4,14
           c1.2,4.1,2.6,7.6,4.8,11.2c1.8,2.8,3.8,5.1,6.8,6.3c5.2,2.1,9.2,5.9,13.6,9.2c1.2,0.9,3.1,2.2,1.9,4.1c-1,1.6-2.9,1.9-4.9,1.1
           c-4.9-2-10-3.7-14.9-5.6c-2.3-0.9-4.6-1.4-6.8-0.2c-5.4,3.1-11.3,3.5-17.3,3.4c-17.1-0.3-33.4,4.5-49.7,9
           c-12.8,3.5-25.8,2-38.6,1.6c-5.2-0.2-10.6-1.1-15.4-3.5C443.1,403.6,443.9,401.5,443,401z"/>
         <path fill="#455AC5" d="M460,325c-1.4,0.1-3-0.5-4,1c-3.5,2.3-7.7,1.8-11.6,2.3c-11.7,1.6-23.3,3.4-34.5,7.4
           c-9.1,4-18.5,7.6-27.9,10.8c-5.7,2-7.9,6.3-8.8,11.7c-0.7,4,1.7,6.2,5.2,7.4c4.7,1.6,9.7,2.5,14.2,4.8c6.1,3.7,12,7.6,18.5,10.6
           c6,2.8,12.3,4.8,19.1,4.7c3.2-0.1,6.3,0.4,9.1,1.9c3.8,2.1,4.2,4.7,1.7,8.4c-2.1,1.9,0.9,2.6,1,4c-2.2,0-4.5-0.5-6.1-1.8
           c-4.4-3.6-9.7-4.7-14.9-6.2c-3.3-0.7-7.2,0-9-4c-5.6-4.1-11.7-7.5-16.9-12.2c-1.8-1.6-4.5-2.1-7.1-1.8c-4.9,0.5-9.1-1.2-12.8-4.4
           c-2.4-2.1-4.7-3.1-5.6,1.3c-0.4,2.2-1.7,2.1-3.3,1.6c-1.6-0.5-3.1-1.2-4.7-1.5c-1.8-0.3-3.8-0.8-3.2-2.9c0.6-1.9-0.3-5,3.3-5.4
           c1.6-0.2,3.3-0.8,4.6-1.7c4.6-3,5-7.6,0.8-11.1c-2.4-2-2-3.5-0.8-5.9c1.7-3.5,4.6-6.7,3.9-11.1c5.1-6,12.5-7.4,19.3-9.5
           c11-3.4,22.3-4.4,33.7-1.8c2.9,0.7,5.9,0.2,8.9-0.2C441.6,320.5,451.1,320.3,460,325z"/>
         <path fill="#2D41B1" d="M499.5,184.1c-3.2,1-6.2,2.1-9.4,2.9c-3.4,0.8-6.2,2.7-8,5.5c-2.9,4.6-7.2,6.7-12,8.3
           c-3.6,1.2-7.2,2.6-10.7,4c-2.3,0.9-4.5,1.9-4.5,5.2c0,2.3-2.1,2.7-4,2.9c-8.5,1.2-17.1,2.1-25.7,2.1c-5.8,0-11.6-0.3-17.4,0.8
           c-5,1-9.9-0.8-14.5-2.8c-1-0.4-2.3-1.2-2.7-2.1c-2.3-4.9-4.9-9.6-9.1-13.4c-0.6-0.5-0.7-2.1-0.4-2.8c2.5-5.9-1-8.2-5.6-10
           c-0.7-0.3-1.4-0.8-2.7-1.6c9.3-6.4,17.2-13.9,27.8-17.5c9.7-3.3,18.9-8.2,29.2-9.9c12-2,24.1-0.1,36.1-0.3
           c9.4-0.2,14.2,3.5,16.6,12.8c1.6,6.3,6.7,11.4,13.7,13.5C497.3,182,498.6,182.4,499.5,184.1z"/>
         <path fill="#3148C1" d="M455.2,240c-4,0-7.1,0-10.3,0c-2.1,0-4.6-0.3-5.1-2.3c-0.6-2.7,2.3-3.4,4.2-4c2.5-0.8,5.1-1.3,7.8-1.5
           c10.8-0.8,21.5,0.7,32.2,2.1c1,0.1,2.5,0.5,2.5,2c0,1.4-1.3,1.8-2.4,2.2c-0.9,0.3-1.9,0.7-2.9,0.6
           C472.2,238.3,463.3,240.7,455.2,240z"/>
         <path fill="#2D41B1" d="M580.6,247.3c11.3-2,22.7-1.9,34.1-0.1c1.5,0.2,2.9,1.2,2.8,3c-0.1,1.7-1.7,1.7-3,2
           c-8.6,2-17-0.6-25.4-1.6c-2.9-0.3-5.7-1.2-8.6-1.9C580.6,248.2,580.6,247.7,580.6,247.3z"/>
         <path fill="#2D41B1" d="M423,224.2c5.5,0,11.1,0,18.1,0C434.2,226.5,428.6,226.7,423,224.2z"/>
         <path fill="#3956DF" d="M443,401c0.7,0.7,1.3,1.3,2,2c-1,5.9-2,7-8.5,5.8c-4.9-0.9-9.5-0.2-13.3,2.2c-7,4.3-14.7,5.2-22.4,5.8
           c-11.2,0.8-22.3,3.1-33.4,4.3c-14.5,1.6-28.9,2.6-43.5-0.2c-6-1.2-12.5-0.3-18.7,0.2c-10.7,0.7-21.4,1.9-32.1,2.8
           c-15.8,1.3-31.6,2.6-47.5,3.9c-9.4,0.8-18.8,1.6-28.2,2.1c-9.4,0.5-18.9,1.5-28.4,1.1c-3.5-0.1-6-1.4-8.3-3.8
           c-2.3-2.3-1.3-3.5,1.2-4.1c18.5-4.4,36.8-9.6,55.7-12.3c15.5-2.2,31-2.2,46.6-3.1c13-0.8,25.9-0.2,38.9-0.9c5-0.3,9.9-0.7,14.9-1
           c4.7-0.3,8.1-3.8,11.3-6.8c3.9-3.6,7.7-7.3,12.6-9.6c3.1-1.4,2.6-3.3-0.1-4.5c-2.5-1.2-5.2-2-7.8-3c8.5,0.6,16.6,2.8,24.8,5.1
           c2.2,0.6,3.5,2.6,4.9,4.1c3,3.2,6.9,5.6,10.9,5.5c12.5-0.3,23.6,4.9,35.4,7.4c6.4,1.3,12.9,3,19.6,1c2.4-0.7,4.9,0.2,7.3,0.9
           C441.3,407.1,443.3,405.5,443,401z"/>
         <path fill="#3956DF" d="M591.5,409.6c-4.1,2.4-8.4,1.7-12.3,1.1c-7.1-0.9-14.1-0.9-21.2,0c-8.8,1.1-17.5-0.5-26-2.6
           c-1-0.2-2.3-0.5-2.1-1.6c0.1-1.5,1.6-1.5,2.7-1.5c9.6,0.2,19.2-0.4,28.7,1.4c6.8,1.3,13.8,1.2,20.7,1.5
           C585.1,408.1,588.2,408.3,591.5,409.6z"/>
         <path fill="#3956DF" d="M594.5,409.3c4.3-0.3,4.3-0.3,7,1.2C599,411.2,596.9,411.3,594.5,409.3z"/>
         <path fill="#344CCA" d="M216.9,217.5c-9.3,5.1-19.2,4.9-29.1,4.1C197.2,217.9,206.9,216.6,216.9,217.5z"/>
         <path fill="#3148C1" d="M266.8,259.1c-4.2,2-7.9,2.2-12.1,1.7C258.5,258.1,262.3,259.2,266.8,259.1z"/>
         <path fill="#3650D3" d="M649.9,564.2c-6.6-2.9-14-4-20.1-8.8c-7.2-5.7-15.5-8.4-24.8-7.5c-4.4,0.4-8.6-0.3-12.8-1.3
           c-18.5-4.7-37.1-8-56.1-9.7c-12.4-1.1-24.7-2.2-37.1-3c-30.9-2.2-61.8-2-92.7-1.7c-6.6,0.1-13.2,0.8-19.9,0.8
           c-1.2,0-2.9,0.5-3.2-1.4c-0.3-1.6,1.1-2.3,2.3-2.8c2.5-1.1,4.9-1.8,7.7-1.8c21.8,0.1,43.7-0.8,65.4,0.3c18,0.9,35.9-0.2,53.8,1
           c9.8,0.7,19.4-0.2,29.1-0.9c9.3-0.7,18.8,0.9,28.2,1.9c7.9,0.8,15.8,1.7,23.5,3.6c12.2,3,24,7.3,36.4,9.7
           c3.6,0.7,7.2,0.8,10.1-1.1c3.8-2.5,7.4-2.4,11.3-1.1c2.4,0.7,4.7,1.6,7.1,2.4c5.6,1.9,10,7.7,9.6,13.5c-0.3,4-2.9,6.4-6.8,6.8
           C657.5,563.4,653.8,562.5,649.9,564.2z"/>
         <path fill="#3650D3" d="M176.5,542c-2.4,0.2-5.8,0-8.6-1.9c-1.3-0.9-2.9-2-2.6-3.9c0.3-1.8,1.7-2.6,3.4-3.3
           c4.2-1.7,8.7-2.4,13.1-2.5c7.5-0.1,15-2.9,22.6-0.5c1.7,0.5,4.1,0.7,4.2,2.8c0.1,1.9-2.3,2-3.8,2.4
           C195.7,538.1,187.1,542.2,176.5,542z"/>
         <path fill="#6479DC" d="M412,388c2.5,2.5,6.7,1.1,9,4c0.6,1.6,2.8,2.7,1.4,4.9c-1.2,2-3.1,2.4-5.2,2.1
           c-6.3-0.6-11.7-3.6-17.1-6.6c-0.6-0.4-1.3-1.3-1.4-2c-0.7-4.4-3.1-6.5-7.7-6.7c-1.8,0-3.1-2.2-2.5-3.7c0.8-2.1,2.6-0.6,3.7,0.1
           C398.3,384.1,404.9,386.7,412,388z"/>
         <path fill="#3149BF" d="M441,396c1.4-5.4,0.5-6.9-5.2-8.2c-6.9-1.5-14.1-0.7-20.8-3.6c-8.2-3.6-16-7.6-23.1-13.2
           c1.3-2,3.6-2.2,5.4-3.4c13.9-4.1,28.3-6.3,42.7-7.9c11.9-1.3,23.9-2.4,35.9-2c15.1,0.6,30.3,1.1,45.3,3.3c2.3,0.3,4.6,0.6,7,0.4
           c3.9-0.4,4.9-1.9,2.8-5.2c-2.7-4.2-6.3-7.3-11.2-8.6c-1.6-0.4-3.3-0.9-4.9-0.8c-12.5,0.5-23.8-4.3-35.3-8.3c-3-1-6.1-1.8-9-2.9
           c-15.3-5.7-30.8-3.9-46.4-1.4c-2.3,0.4-4.6,1-6.9,1.2c-2.7-0.5-5.6,1.9-8.3-0.4c8.7-4.1,18.2-5.4,27.5-6.9
           c6.5-1.1,12.9-2.3,19.5-2.1c16.9,1.5,32.7,7.8,49.4,10.5c13.5,2.1,25.1,10.1,35.2,19.6c3.4,3.3,3.3,7.1,0.2,10.6
           c-1.6,1.8-2.9,3.7-2.7,6.2c0.8,10.1-5.3,15.6-13.5,19.1c-13.2,5.6-27,9-41.4,8.9c-11.9-0.1-23.9,0.6-35.7-2
           C445.1,398.5,442.5,398.5,441,396z"/>
         <path fill="#3C4DAA" d="M409,335c2.7-0.3,5.3-0.7,8-1c0.2,2.1-1.7,2.4-2.9,2.6c-4.9,1-8.9,3.3-12.6,6.7c-2.2,2-5.3,2.7-8.1,3.8
           c-4.7,1.7-9.1,4.1-13.5,6.5c-3.1,1.7-3.5,3.6-0.8,6.2c4.5,4.3,8.7,8.9,15.8,8.2c0.8-0.1,1.6,0.3,2.2,1c-1.4,1.3-3.3,1.6-5,2
           c-4-1.2-7.9-2.4-11.9-3.5c-4.2-1.2-8.7-2.8-8.4-7.8c0.3-4.8,1.3-10.1,6.3-12.7c3.2-1.7,6.7-2.8,10.1-4.1
           C395.1,340.3,402,337.6,409,335z"/>
         <path fill="#263898" d="M397,369c-9.6,2.1-15-4.4-20.6-10.2c-1.8-1.9-1.7-3.4,0.6-4.8c5.5-3.5,11.2-6.5,17.3-8.6
           c3.5-1.2,6.8-2.6,9.3-5.5c2.1-2.4,5.1-3,7.9-3.8c1.9-0.5,3.9-0.7,5.5-2.1c9.5-2.3,19.3-2.8,28.9-3.9c10-1.1,19.3,2.7,28.7,5.2
           c9.6,2.6,18.5,7.2,28.4,9.2c5.1,1,10.2,0.3,15.3,1.3c7.3,1.3,11.7,5.9,15.2,11.6c1.8,3,0.1,5.2-3.6,5.6
           c-5.5,0.5-10.9-0.7-16.3-1.3c-8.1-0.8-16.1-1.9-24.2-1.8c-6.6,0.1-13.2-1.4-19.8-1C445,360.4,420.7,362.4,397,369z"/>
       </g>
     </g>
   </g>
 </svg>