<?xml version="1.0" encoding="utf-8"?>
<!DOCTYPE svg PUBLIC "-//W3C//DTD SVG 1.1//EN" "http://www.w3.org/Graphics/SVG/1.1/DTD/svg11.dtd">
<svg version="1.1" xmlns="http://www.w3.org/2000/svg" xmlns:xlink="http://www.w3.org/1999/xlink" x="0px" y="0px"
   viewBox="0 0 800 800" enable-background="new 0 0 800 800" xml:space="preserve">
   <g id="Saturn">
     <g id="eVcAJt_1_">
       <g>
         <path fill="#D6A243" d="M169.8,631.3c-20.1-19.4-36.5-41.6-50.5-65.6c-6.5-11.2-12.7-22.5-17.2-34.7c34.2-17.2,65-39.6,96.3-61.3
           c17.4-12,35-23.7,52.6-35.3c24.5-16.3,49.4-32,73.7-48.7c17-11.7,33.8-23.7,50.5-35.8c17.2-12.5,34.1-25.5,51.1-38.3
           c19.9-15.1,39.8-30.2,59.6-45.3c22.1-16.9,44.3-33.6,65.9-51.1c8.1-6.6,16-13.5,23.6-20.7c11-10.4,21.9-20.9,31.5-32.6
           c2.4-3,4.2-5.8,2.9-9.8c4.7,2,7.9,6,11.5,9.3c32.1,29.7,57.4,64.4,75.6,104.2c0.8,1.8,1.3,3.7,1.9,5.6c1.6,2.7-0.3,4.4-2,6
           c-4.4,4.5-8.6,9.3-12.9,13.9c-15.7,16.8-31.6,33.3-48.2,49.1c-15.2,14.5-31.9,27.2-48.4,40c-9.2,7.1-18.5,14.1-27.4,21.7
           c-1.9,1.6-3.8,3.3-6.2,4.1c-3.1,0.3-5.7,1.5-8.3,3.1c-26.7,16-54.4,30.2-82,44.6c-16.4,8.6-32.6,17.4-49.1,25.8
           c-17.6,9.1-35.1,18.3-52.8,27.1c-26.2,13.1-51.9,27.1-77,42.2c-8.7,5.2-18.2,8.2-27.5,11.6c-16,5.9-31.2,13.4-45.9,22.1
           c-10.1,5.9-17.5,14.1-20.4,25.9C188.1,619.7,178.9,625.6,169.8,631.3z"/>
         <path fill="#BA9464" d="M475.1,719.1c-11.9,3.9-24.3,5.3-36.7,6.8c-20,2.4-40.2,2.7-60.3,1.2c-38.2-2.8-74.8-11.9-109.8-27.5
           c-11.1-5-21.9-10.5-32.4-16.7c-1.4-0.8-3-1.4-4-2.9c6-6.6,13.7-11,20.7-16.4c26-20,52.9-38.9,80.3-57
           c23.6-15.6,47.6-30.8,71.6-45.7c35.8-22.3,72.2-43.6,108.2-65.3c35.5-21.5,70.6-43.6,104.3-67.8c21.2-15.2,41.6-31.5,60.8-49.4
           c12.8-12,23.9-25.6,37-37.2c2.6-2.3,2.5-5.7,4.4-8.2c3.2,11.2,4.5,22.7,5.8,34.1c0.7,6.2,1.8,12.5,1.1,18.8
           c-11.9,11.3-23.6,23-36,33.8c-30.2,26.4-63,49.2-96.3,71.3c-22.1,14.6-44.7,28.3-67.4,42.1c-9.8,5.9-19.7,11.8-28,18
           c25.2-11.8,50.8-25.5,76.5-38.9c27.9-14.6,53.3-32.8,78-52.2c20.2-15.8,39.7-32.5,59.5-48.8c0.9-0.7,1.7-1.7,2.6-2.3
           c6.7-4.7,11.8-10.2,10-19.3c-0.2-0.9,0.2-2,1.2-2.6c1.5,9.1,0.9,18.2,0.5,27.3c-1.1,25.2-4.9,49.9-11.6,74.2
           c-1.9,7-3.4,14.2-6.9,20.7c-1.7-1.6-0.8-3.4-0.3-5.1c1-3.2,2-6.3,2.8-10.1c-2.3,1.7-4,3.5-5.6,5.2c-17.8,19-37.9,35.5-58.6,51.2
           c-26.5,20.2-52.7,40.7-79.6,60.3c-23.5,17.2-47.9,33.1-72.5,48.7c-22.1,14-44.1,28-66,42.4c-11.1,7.3-22.6,14-33.6,21.6
           c-0.8,0.5-1.9,0.7-2.1,2.1c11.8,0.6,23.5-0.1,35.3-1.1c14.1-1.2,28-3.6,41.9-6.2C471.8,717.9,473.6,717.4,475.1,719.1z"/>
         <path fill="#A27D4E" d="M514.2,95.9c8.5,2.1,16,6.4,23.8,10.1c3.9,1.4,3.1,3.6,1.1,6c-5.5,6.7-11.1,13.2-16.8,19.7
           c-11.9,13.7-23.8,27.3-35.8,40.9c-0.7,0.7-1.4,1.4-2.2,2c-8.5,6.8-15,15.5-22.6,23.3c-14.2,14.5-28.2,29.2-43.1,43
           c-24.6,22.8-53.2,39.9-81,58.2c-34,22.3-68.3,44-103,65.2c-19.3,11.8-39.1,22.7-59.1,33.4c-17.5,9.3-34.8,19-52.2,28.5
           c-12.7,6.9-25.3,14-38.4,20.3c-5,2.4-5.3,2.1-6.4-3.4c-1.6-7.5-1.7-15.1-2.2-22.7c-0.1-2.4,1.3-3.6,2.9-4.9
           c14.7-12.3,29.7-24.1,44.5-36.3c25.7-21.2,51.9-41.7,77.5-63c29.6-24.7,61.8-45.7,95.3-64.8c22.9-13,45.6-26.3,67.4-41.1
           c22.6-15.4,43.8-32.6,64.9-49.9c18.9-15.6,36.2-32.9,56.1-47.4c7.1-5.2,14.8-9.7,19.1-17.9c0.9-1.8,2.6-1.9,4.3-1.2
           C510.1,94.6,512.2,95.3,514.2,95.9z"/>
         <path fill="#C89440" d="M610,152c3.4,2.9,2.2,5.7-0.2,8.4c-8.7,9.8-16.9,20-27,28.6c-7.8,6.7-15.1,14-22.8,20.8
           c-12.5,11-25.9,20.6-38.8,31.1c-9.8,7.9-20,15.3-29.9,23.1c-16.7,13.1-33.8,25.5-50.8,38.3c-15.4,11.6-30.6,23.3-46.1,34.7
           c-22.8,16.8-45.7,33.4-69,49.6c-18.5,12.9-37.5,25-56.3,37.4c-22.8,15.1-45.8,29.9-68.3,45.5c-22.5,15.6-45,31.2-68.1,45.9
           c-8.4,5.3-17.3,9.8-26,14.7c-1.5,0.9-3.1,1-4.8,0.9c-6.4-13.8-11.5-28.1-15.1-42.9c-1-6-2.8-11.8-4-17.8
           c-1.1-5.3-0.7-6.4,4.1-8.5c33.3-14.1,65.7-30.2,98.2-45.8C223,398,260,378.5,295.8,357c20.7-12.4,40.9-25.7,61.1-39
           c20.5-13.4,40.8-27.1,61-40.9c31.5-21.5,62.8-43.4,92-67.9c17.3-14.5,33.7-30.3,46.7-49c6.2-9,9.8-19.2,13.7-29.3
           c1.9-5,2.7-5.5,7.5-2.9C588.8,135.8,599.9,143.2,610,152z"/>
         <path fill="#BA9464" d="M514.2,95.9c-6.7-3-10.1,0.3-13.8,5.9c-4.5,6.6-12.2,10-18.6,14.8c-10.7,8.1-20.7,17.1-30.7,26
           c-12.5,11.1-25.5,21.6-38.4,32.3c-18.4,15.2-37.4,29.7-57.6,42.5c-22,14-44.6,27-67.1,40.2c-24.5,14.3-48.5,29.3-70.6,47.3
           c-24.6,20.1-49.7,39.7-74.4,59.7c-19.2,15.5-38.1,31.3-57.2,47c-0.4,0.3-0.7,0.7-1.2,0.9c-7.8,3.5-8.6,10-7.6,17.4
           c0.6,4.6,1.5,9.2,1.8,13.8c0.2,3.3,1.4,3.7,4.1,2.3c9.9-5.2,19.8-10.2,29.7-15.4c12.6-6.8,25-13.8,37.5-20.6
           c26.2-14.4,52.6-28.3,78.3-43.6c30.7-18.3,60.5-37.8,90.7-56.9c27.1-17.1,54.1-34.4,79.7-53.6c8.1-6,15.9-12.6,23.1-19.6
           c17.1-16.5,33.7-33.5,50-50.8c3.8-4.1,6.5-9.2,12-11.5c1.4,2.2-0.4,3.4-1.5,4.7c-17.2,19.7-35.6,38.3-54.5,56.4
           c-15.7,15-32.7,28.3-50.7,40.5c-31.6,21.4-63.9,41.8-96,62.3c-33,21-66.6,41.1-101.2,59.5c-17.9,9.5-35.7,19.4-53.4,29.4
           c-4.6,2.5-9.4,4.6-13.8,7.5c-0.4,0.3-0.8,0.5-1.2,0.8c-9.2,4.3-17.8,9.8-27,13.9c-2.1,0.9-4.6,3-6.1-0.8
           c-1.6-8.9-2.9-17.9-2.6-27c-1.5-4.3,1-6.8,4-9.2c18.3-15.2,36.9-30,55.4-45c22.5-18.3,45-36.4,67.7-54.4c3.4-2.7,6.3-6,9.7-8.6
           c-33.1,20.3-66.5,40.2-99.8,60.2c-10,6-19.9,12.1-29.9,18c-2.2,1.3-4.6,3.3-6.9-0.1c-0.2-17,3-33.6,6.8-50.1
           c1.9,2.6,4,2.1,6.4,0.6c14.2-8.7,28.5-17.1,42.8-25.7c20.8-12.5,41.6-25.2,62.1-38.2c4.5-2.8,8.4-6.6,13.4-8.6
           c12.3-6.6,24.1-14.2,36.1-21.4c18.4-11.1,36.9-22,55.4-32.9c16.5-9.7,32.9-19.7,48.7-30.4c14.6-9.9,28.9-20.2,42.4-31.6
           c2.5-2.1,5.7-3.6,7.8-6.2c22.1-16.7,42.1-36,63.8-53.3c0.9-0.7,1.7-1.6,3-1.6c1.7,0.4,3.6-0.3,5.3,0.6
           C485.3,85.6,500,90,514.2,95.9z"/>
         <path fill="#CF9A5C" d="M126,426c10.1-5.7,20.1-11.6,30.3-17.1c39.8-21.4,79.4-43.1,117.3-67.9c22-14.3,44.5-27.8,66.4-42.1
           c23.2-15.1,46.8-29.8,68-47.7c21.1-17.8,40.7-37.3,59.2-57.8c4.6-5.1,9.3-10,13.9-15c1.2-1.3,3-2.3,2.9-4.4
           c9.8-11.3,19.5-22.5,29.3-33.8c8.5-9.8,16.8-19.6,25.4-29.3c1.9-2.2,1.1-3.5-0.6-4.9c6.8,1.4,12.2,5.6,18.1,8.7
           c7.5,3.9,15.2,7.7,21.8,13.3c-3.8-1.7-5-0.4-6.5,3.6c-5.4,15.4-12.5,29.9-23.7,42.3c-17.5,19.4-36.7,36.9-57.6,52.7
           c-25.6,19.5-51.9,38.1-78.4,56.3c-29.4,20.2-59.3,39.7-89.3,59.1c-23.5,15.1-47.5,29.3-72.2,42.4c-14.8,7.8-29.5,16-44.6,23.2
           c-34.5,16.6-68.5,34-103.7,49c-5.2,2.2-10.3,4.6-15.5,6.7c-3.1,1.3-3.6,3.2-3.1,6.3c1.1,6.2,3.8,12,3.6,18.5
           c-2.5-7.1-4.4-14.3-5-21.9c-0.7-2.2-0.5-4.6-0.7-6.9c-0.6-7.4,4.3-11.1,10-13.8c7.2-3.4,13.9-7.5,20.7-11.6l0,0
           C116.5,431,121.9,429.6,126,426z"/>
         <path fill="#A27E4E" d="M475.1,719.1c-7.2-0.3-14.1,2.1-21,3.3c-9.2,1.7-18.4,2.2-27.6,3.5c-11.4,1.6-22.9,1.1-34.4,1.1
           c-0.8,0-1.5-0.1-3.2-0.2c4-4.2,8.4-6.6,12.4-9.2c23.7-15.3,47.5-30.4,71.3-45.6c17.6-11.3,35.3-22.5,52.8-33.9
           c28.5-18.5,55.5-39.2,82.6-59.7c15.8-12,31.7-24,47.3-36.3c18.3-14.4,35.8-29.7,51.8-46.6c1.3-1.4,2.3-3.3,5.1-3.4
           c-0.2,6-3.7,11.2-4,17.1c-5.1,16.8-12.5,32.6-20.9,48c-29.5,54.1-70.9,96.5-124.2,127.4c-27,15.6-55.7,27-86,34.3
           C476.5,719,475.8,719,475.1,719.1z"/>
         <path fill="#C89340" d="M169.8,631.3c1.4-3.1,4.6-4.2,7-6.2c6.2-5.2,11.6-10.5,13.4-19c2.5-11.9,11.1-19.5,21.1-25.2
           c17.9-10.2,36.4-19.1,56.2-25.4c11.7-3.8,21.9-11,32.6-17.1c12.8-7.3,25.8-14.4,38.8-21.3c14.6-7.8,29.4-15.4,44.1-23
           c12.4-6.4,24.8-12.7,37.1-19.1c27.7-14.5,55.4-28.9,83-43.5c14.9-7.9,29.9-15.8,44.1-25c2.1-1.3,4.4-1.5,6.7-1.4
           c0.6,1.8-0.7,2.8-1.8,3.8c-15.2,13.4-30.4,26.9-46,39.9c-9.8,8.2-19.2,16.9-28.9,25.3c-1.5,1.3-2.7,3-5.1,2.6
           c-2.2-0.8-3.8,0.5-5.6,1.5c-18,10-34.2,22.6-51,34.3c-51.2,35.6-101.7,72-151.9,109c-15,11.1-30.3,21.5-45.4,33.3
           c17.7-10.2,34.7-20.6,51.8-30.9c23.6-14.4,47.3-28.7,70.3-44c6.9-4.6,13.7-9.4,20.6-14.1c1.5-1,2.7-2.6,4.9-1.7
           c0.9,2.5-1.3,3.4-2.4,5c-13.1,10.6-27.3,19.5-41.5,28.5c-26.9,17.2-54.3,33.6-81.5,50.4c-8.8,5.4-17.4,11-26.2,16.5
           c-1.7,1-3.3,2.4-5.4,0.9C194.7,655.2,181.8,643.9,169.8,631.3z"/>
         <path fill="#D6A243" d="M111.8,252c6.5-14.7,15.2-28.1,24.6-41C183.2,146.8,245.1,104.7,322,84.9c10.5-2.7,21-5.2,31.8-5.9
           c5.7-0.9,11.4-1.1,17.1-2l0,0c8.7-0.3,17.4-1.8,26.2-1.4c3.7,0.1,4.4,1.4,2.5,4.6c-1.3,2.3-3.1,4.4-4.9,6.3
           c-10.7,11.6-21.3,23.3-32.7,34.1c-9.8,9.2-18.7,19.3-29.1,27.9c-1.1,1-2.3,2-3.7,2.5c-9.4,2.4-18.3,6.3-27,10.3
           c-10.4,4.9-21.5,8.1-32,12.8c-16.4,7.3-32.9,14.4-49.2,22c-22.3,10.5-44.2,21.8-65.9,33.5c-12.2,6.6-23.8,14-36.2,20.2
           C116.8,251,114.7,253,111.8,252z"/>
         <path fill="#D6A243" d="M209.1,665c5.1-0.6,8.4-4.4,12.5-6.9c28.1-17.1,56-34.5,83.9-51.8c18.2-11.3,36.3-22.7,53.6-35.3
           c1.3-1,2.6-2,4-3c14.2-11.1,30.1-19.6,45.2-29.3c32.5-20.9,64.7-42.2,96.4-64.3c19.1-13.3,38.3-26.6,57.1-40.3
           c27.8-20.1,55.7-40.1,79.3-65.3c12.5-13.4,24.2-27.5,36-41.4c8-9.4,16-18.8,24.9-27.3c1.9-1.8,3.7-4.5,7.2-3
           c2.8,10.8,7.6,21,9.4,32.1c0.2,1.3,0.4,2.6,0.6,3.9c0.5,4-1.1,6.8-4,9.6c-8.9,8.5-17,17.8-25.8,26.4
           c-20.3,20.1-42.2,38.3-65.3,55.1c-29.9,21.6-60.6,41.7-92,61.1c-33.5,20.6-67.5,40.4-101,60.9c-26.5,16.2-52.8,32.5-78.9,49.4
           c-30.8,19.9-60.9,40.8-90.3,62.7c-9.2,6.8-18.2,13.9-27.3,20.8c-0.8,0.6-1.8,0.8-2.7,1.2C223.6,676,216.1,670.8,209.1,665z"/>
         <path fill="#CF9A5B" d="M709.1,297c-6.8,1.8-10.4,7.7-14.6,12.3c-7.8,8.6-15.3,17.5-22.8,26.3c-13.2,15.5-26.2,31.3-41.1,45.4
           c-15.7,14.8-32.6,28.1-50.1,40.8c-32.8,24-66.1,47.2-99.6,70.3c-35.5,24.5-72.2,47.3-108.5,70.6c-3,1.9-6.3,3.5-9.5,5.3
           c1-1.3,2-2.7,3-4c-0.5-2.6,1.7-3.4,3.1-4.5c15.9-12,31.4-24.6,46.9-37.1c18-14.5,36.1-28.8,53-44.6c0.9-0.8,1.7-1.6,2.9-1.8
           c4.3-1.4,7-5,10-7.8c18.5-17.3,38.8-32.6,57.3-49.9c4.8-4.5,10.1-8.5,14.6-13.3c21.2-16.7,42.7-33,63.4-50.2
           c19.8-16.5,37.9-34.8,55.2-53.9c7.5-8.3,15.5-16.3,23.3-24.4c1.5-1.5,3.4-2.9,3-5.4C703.5,279.3,706.8,288,709.1,297z"/>
         <path fill="#CF9A5C" d="M329,150c12.5-9.8,23.1-21.8,34.4-32.8c4.8-4.7,9.6-9.5,14.3-14.4c6.8-7.3,13.4-14.7,20.1-22
           c1-1.1,2.3-2.4,1.6-3.9c-0.6-1.5-2.4-0.7-3.6-0.8c-8.3-0.5-16.5,1.8-24.8,0.9c5.3-1.8,10.8-1.4,16.2-1.6
           c27.1-0.9,54.1,0.9,80.7,6.7c0.8,0.2,1.5,0.6,2.3,0.9c-2,0-4.1,0-6.1,0c-3.9,0.3-7.5-0.9-11.3-1.5c-2.9-0.4-5.5-0.2-7.6,2.4
           c-15,18.2-30.5,35.9-46.3,53.3c-0.2,0.2-0.1,0.6,0.2,0.9c-7.3,6.7-15.3,12.6-23.1,18.6c-20.5,15.7-42.2,29.8-64.4,43.1
           c-21,12.6-42.2,25-63.3,37.5c-13.4,7.9-26.8,15.8-40.2,23.7c-0.5-3,2-3.9,3.8-5.2c14.9-11.3,29.4-23.1,42.6-36.4
           c8.5-7.7,17.8-14.4,26.4-21.9c9-7.8,17.9-15.8,26.6-24c6.5-6.1,12.5-12.6,17.8-19.7C326.3,152.3,327.4,150.9,329,150z"/>
         <path fill="#A37E4E" d="M90,305c2.7-11.8,7.9-22.7,12.2-34c18.3-10,35.6-21.5,54.1-31.1c17.3-9,34.7-17.7,52.3-26.2
           c16.9-8.2,34.2-15.8,51.6-22.9c8.8-3.6,17.3-7.7,26.4-10.7c1.6-0.5,3.2-1.1,4.8-1.2c3.3-0.3,4.3,1.1,3,4.2
           c-0.8,1.9-2.2,3.3-3.6,4.7c-13.1,12.6-27.4,23.7-42.6,33.7c-32.8,21.5-67.3,40-101.1,59.7c-16.7,9.8-33.6,19.1-50.1,29.1
           c-2.2,1.3-4.8,3.8-7.3,1.9C86.8,310.2,90.1,307.5,90,305z"/>
         <path fill="#D3A046" d="M726.1,386.9c-0.3,15.3-0.3,15.3-12.9,25.3c-16.5,13-32.2,27.1-48.7,40.1c-18,14.2-36,28.2-55,41
           c-14.7,9.9-30.5,18.2-46.2,26.5c-18.3,9.7-36.9,18.9-55.5,28.3c-4.5,2.3-9.2,4.1-13.8,6.1c-0.2-0.4-0.4-0.8-0.7-1.3
           c7.3-4.8,14.4-9.8,21.8-14.4c17.6-11,35.4-21.6,52.9-32.7c15.5-9.7,30.7-19.7,45.9-29.8c19.3-12.9,38.1-26.6,56.2-41
           c13.9-11,27.2-22.8,39.8-35.3c5-4.9,9.3-10.7,16-13.7C726,386.3,726,386.6,726.1,386.9z"/>
         <path fill="#CF9A5C" d="M76.1,382c2,1.4,3.7,0.7,5.5-0.4c25.8-15.7,51.4-31.8,77.5-46.9c17.2-10,33.7-21.2,51.2-30.8
           c1.5-0.8,2.9-2.3,5.5-1.3c-7.2,6.5-14.4,12.6-21.8,18.4c-15.1,11.9-29.9,24.1-44.8,36.2c-13.1,10.6-26.3,21.2-39.4,31.9
           c-10.5,8.6-21,17.2-31.6,25.8c-2.1,1.7-2.3,3.9-2.3,6.2c-1.7-9.4-0.6-18.8-0.8-28.2C75.1,389.3,74.7,385.6,76.1,382z"/>
         <path fill="#B78C4B" d="M90,305c0.9,2.2-2.2,5.3-0.1,6.4c2.3,1.3,4.8-1.4,7-2.7c22-12.7,44-25.4,65.9-38.1
           c19.4-11.2,38.9-22.2,58.1-33.8c13.2-7.9,26.5-15.9,38.8-25.1c10.7-8,21.6-15.9,30.9-25.8c2.2-2.4,2.3-2.4,3-6
           c-2-0.2-3.9,0.3-5.7,1.1c-11.5,4.6-23.1,9.2-34.6,14c-11.6,4.9-23.3,9.7-34.7,15.2c-18.1,8.7-36.1,17.7-53.9,26.9
           c-10.9,5.6-21.8,11.3-32.2,17.8c-7.2,4.5-14.5,8.7-21.7,13.1c-2.7,1.7-5.3,3.5-8.7,3.2c1.1-2.4,2.3-4.7,3.4-7.1
           c9.4-7.3,19.9-12.7,30.1-18.6c19.9-11.4,40.3-22,61-32c30.7-14.9,61.9-28.8,93.9-40.7c3.6-1.3,7.1-2.9,10.6-4.4
           c1.7-0.7,3.4-1.3,5.3-1.3c1.5,0,3.1,0,4,1.5c1,1.7-0.2,2.8-1.2,3.9c-0.4,0.5-0.8,1.1-1.2,1.6c-7.4,8.5-16.3,15.4-24.6,22.9
           c-9.1,8.1-18.9,15.4-28.4,23.1c-12.6,10.2-26.9,17.8-40.6,26.1c-19.9,12-40.1,23.7-60.2,35.3c-20.7,12-41.6,23.8-62.1,36
           c-1.8,1.1-3.6,2.5-6,1.5C86.5,314.1,87.9,309.4,90,305z"/>
         <path fill="#C79341" d="M86,319c10.7-4.9,20.4-11.6,30.7-17.4c19.5-11,38.9-22.2,58.2-33.6c26.1-15.5,52.6-30.3,77.9-47.2
           c0.7-0.4,1.5-0.6,2.3-0.9c-6.9,8.6-16,14.8-24.1,22.1c-7.3,6.7-15.9,11.8-22.9,18.9c-14.5,9.3-28.9,18.8-43.7,27.8
           c-25.5,15.6-51.2,30.8-76.8,46.2c-3.9,2.4-4.6,0.3-4.7-3c0,0,0,0,0,0c1-2.9,1.1-6.1,2-9.1C85,321.5,84.8,320.1,86,319z"/>
         <path fill="#BC9048" d="M308,174c0.2-0.6,0.3-1.3,0.6-1.9c0.6-1.1,2-2.2,0.8-3.5c-1-1.1-2.6-0.9-3.8-0.5
           c-3.8,1.3-7.5,2.8-11.2,4.2c-39.8,15.1-78.7,32.4-116.6,51.8c-22.1,11.3-44.1,23-65.1,36.4c-2.2,1.4-4.8,2.3-7.2,3.4
           c1.9-4.1,3.4-8.4,6.2-11.9c15-6.7,28.7-16,43.2-23.6c22.6-12,45.3-23.9,68.5-34.6c9.5-4.4,19.2-8.4,28.6-12.9
           c19.2-9.2,39.2-16.2,58.8-24.3c5.9-2.5,11.5-5.9,18.1-6.5C323.3,159.1,316.2,167,308,174z"/>
         <path fill="#CF9A5C" d="M112,434c-5.4,5.6-12.3,9-19.4,11.9c-6,2.4-10.1,8-10.6,15.9c-0.1,1.5-0.1,3-0.1,4.5
           c-1.9-5.9-2.6-12-3.4-18.1c1.7,2.2,3.4,0.9,5.2,0c7.9-4.1,15.8-8.3,23.7-12.3C108.9,435.1,110.5,434.6,112,434z"/>
         <path fill="#CF9A5C" d="M371,76.9c-5.6,1.5-11.3,2.4-17.1,2C359.4,77.2,365.2,76.8,371,76.9z"/>
         <path fill="#BA9464" d="M84.9,322.9c0.3,3.2-0.2,6.3-2,9.1C82.9,328.8,83.2,325.7,84.9,322.9z"/>
         <path fill="#A88352" d="M419.7,659.7c-1.2,4.4-4.2,5.6-6.6,7.2c-20.7,13.8-41.7,27.2-62.9,40.2c-5.6,3.5-11.5,6.7-16.9,10.5
           c-4.2,2.9-7.9,0.6-11.2-1c-2.1-1,0.5-2.6,1.7-3.4c6.5-4.3,13-8.7,19.6-12.8c20.7-12.7,41.7-24.9,63.6-35.3
           C410.9,663.2,414.9,661.7,419.7,659.7z"/>
         <path fill="#C99546" d="M399,138c-1.2-3.6,2.1-5.2,3.8-7.1c14.5-15.9,28.4-32.3,42.1-48.9c1.2-1.5,2.4-2.2,4.2-2
           c5.1,0.4,10.2,0.7,14.9,3c-3.9,5.6-10,8.6-14.8,13.1c-8.5,7.8-17.5,15.1-26.3,22.6C415,125.3,407.4,132.2,399,138z"/>
         <path fill="#CF9A5C" d="M126,426c-3.6,4.5-9,5.9-14,8C116,430.1,121.3,428.5,126,426z"/>
         <path fill="#A8814D" d="M472,476c-6.3,7.5-14.2,13.4-21.6,19.7c-13.9,11.7-28,23.2-42.2,34.6c-12.9,10.3-26,20.5-39,30.6
           c-1.2,0.9-2.4,1.7-3.1,3.1c-9,5-17,11.4-25.5,17.1c-29.4,19.3-59.5,37.5-89.7,55.6c-9.2,5.6-18.4,11.2-27.7,16.7
           c-2.3,1.3-4.7,2.4-7.5,3.9c-0.4-2.8,1.5-3.4,2.8-4.4c15.3-11.1,30.5-22.3,45.8-33.4c20.7-15.2,41.3-30.5,62.2-45.5
           c28-20.1,56-40.3,84.3-59.9c18.7-12.9,36.5-27.1,56.6-37.8C468.7,475.4,470.4,472.9,472,476z"/>
         <path fill="#AF864B" d="M253,566.5c0.1,0,1.1,0.3,1.6,1.2c0.8,1.2-0.1,2.2-0.9,3.1c-3.8,4.5-8.6,7.8-13.3,11.2
           c-10.5,7.5-20.5,15.8-31.8,22.2c-0.9,0.5-1.8,0.9-2.7,1.3c-1.4,0.6-3,1-4.2,0c-1.3-1.1-0.8-2.8-0.3-4.2
           c2.8-7.8,7.7-13.9,14.5-18.5c10.3-6.8,21.1-12.6,33.2-15.6C250,566.9,251,566.8,253,566.5z"/>
       </g>
     </g>
   </g>
 </svg>