<?xml version="1.0" encoding="utf-8"?>
<!DOCTYPE svg PUBLIC "-//W3C//DTD SVG 1.1//EN" "http://www.w3.org/Graphics/SVG/1.1/DTD/svg11.dtd">
<svg version="1.1" xmlns="http://www.w3.org/2000/svg" xmlns:xlink="http://www.w3.org/1999/xlink" x="0px" y="0px"
   viewBox="0 0 800 800" enable-background="new 0 0 800 800" xml:space="preserve">
   <g id="Venus">
     <g id="n90s0r_1_">
       <g>
         <path fill="#BBA784" d="M75,392c0-3.3,0-6.7,0-10c1.1-7.7,0.7-15.5,1.5-23.3c1.6-16,5.4-31.5,9.4-46.9c0.5-1.8,0.8-4.1,3.6-4
           c5.9,2,12.1,2.9,18.2,2.4c22.6-1.7,45.1-3.6,67.7-4.5c15.5-0.7,30.9-0.6,46.4,0.3c27.1,1.6,54.1,4.7,81.1,7.4
           c19.5,1.9,39.1,3.5,58.7,4.7c14.9,0.9,29.9,1.6,44.9,2.2c22.3,1,44.5,1.9,66.8,2.8c18.3,0.7,36.6,1.7,54.9,2.4
           c21.6,0.9,43.2,1.3,64.8,2.7c10.8,0.7,21.6,0.6,32.4,0.9c13.8,0.4,27.6,0.9,41.4,1.5c12.5,0.6,25,0,37.4,1.5
           c4.7,0.6,9.7,1,14.3-1.2c2.2-0.5,2.5,1.3,2.8,2.6c3.1,13.1,4.8,26.3,5,39.7c0,0.3-0.3,0.6-0.5,0.8c-2.9-1.9-6.1-2.1-9.5-1.7
           c-18.4,1.8-36.8,2.8-55.2,4.6c-12.1,1.2-24.2,1.5-36.3,2.4c-14.9,1.1-29.9,1.8-44.8,2.8c-7.1,0.5-14.3,0.7-21.4,1.1
           c-20.6,1-41.2,1.1-61.9,1.6c-9.1,0.2-18.3,0.4-27.4,0.6c-16,0.3-31.9-1.7-47.8-3.3c-12.3-1.3-24.6-0.8-36.9-0.1
           c-12,0.7-23.9,1.4-35.8,2.5c-23.4,2-46.8,2.9-70.2,4.6c-19.6,1.4-39,4.7-58.6,6c-13.1,0.9-26.2,1.9-39.4,1.4
           c-10.6-0.4-21,1.2-31.1,3.8c-11.1,2.8-21.8,1.9-32.4-2c-10.5-3.8-21.1-7.4-31.7-10.8c-5.8-1.9-5.8-1.9-8.7,3.6
           C76.3,391.8,75.7,392.1,75,392z"/>
         <path fill="#BDA986" d="M245.1,115c11-7,22.9-12,35-16.8c32.2-12.7,65.5-20.7,100.2-22.4c1,0,2,0,2.8-0.8c12,0,24,0,36,0
           c8.2,1,16.4,1.9,24.6,2.9c30.6,3.7,59.9,12.3,88.2,24.5c14.1,6.1,27.6,13.3,40.7,21.3c1,0.6,1.8,1.4,2.7,2.1
           c-1.2,2.7-3.7,2.7-6,2.6c-17.7-0.4-35.2,1-52.8,2.1c-12.6,0.8-25.2,2.2-37.8,3.2c-16.2,1.2-32.5,2.9-48.7,4
           c-19.1,1.3-38.2,2.2-57.3,1.8c-41-0.9-81.1-7.2-120.2-19.9C249.7,118.6,246.5,118.3,245.1,115z"/>
         <path fill="#A8916C" d="M725.8,374c0.7,2.6-0.4,5.5,1.2,8c0,4,0,8,0,12c-2.3-0.3-2.3-2.2-2.4-3.7c-0.1-3.7-2.2-4.8-5.5-4.7
           c-8.5,0.1-17,0.9-25.4,1.3c-16.9,0.9-33.9,1.7-50.8,2.8c-19.4,1.2-38.9,2.2-58.3,3.6c-12.3,0.9-24.6,1.5-36.9,2.2
           c-27.8,1.7-55.5,2.4-83.3,2.2c-8.2-0.1-16.3-0.7-24.2-2.8c-19.1-5.1-38.5-4.7-58-3.6c-16.1,0.9-32.2,2.2-48.3,3.4
           c-26.7,2-53.6,2.1-80.1,5.9c-10.1,1.4-19.9,4-30,5.1c-18.1,2-36.2,2-54.4,1.9c-5.5-0.1-11,0.4-16.3,1.9
           c-15.4,4.5-30.5,4.2-45.6-1.2c-9.7-3.5-19.6-6.5-29.7-8.8c-1-0.2-1.8-0.7-2.6-1.4c0-2,0-4,0-6c0.3-0.4,0.8-0.8,0.8-1.2
           c1.3-7.6,1.3-7.6,8.5-5.1c11.2,3.8,22.4,7.4,33.4,11.5c12.4,4.6,24.6,3.7,37,0.5c7.4-1.9,14.9-3,22.6-2.6
           c13.8,0.7,27.6-0.7,41.4-1.2c12.8-0.5,25.6-3.2,38.4-4.5c9.4-1,18.8-1.6,28.2-2.2c18.2-1.1,36.4-1.8,54.6-3.2
           c13.9-1,27.7-2.1,41.6-3.1c10.5-0.8,21-1.1,31.4-0.6c13,0.6,26,2.9,39,3.5c13.9,0.6,27.9,1.1,41.9-0.4c4.1-0.4,8.2-0.4,12.3-0.2
           c17.8,0.6,35.6-0.6,53.4-1.2c12.9-0.4,25.8-1.3,38.7-2c15.4-0.9,30.7-2.2,46.1-3c17-0.9,33.9-3.2,51-4c8.9-0.4,17.8-1.5,26.6-2.8
           C725.5,369.6,724.5,372.7,725.8,374z"/>
         <path fill="#99805A" d="M75,398c7-0.1,13.3,2.6,19.8,4.5c8.6,2.5,16.9,5.9,25.8,7.6c8.6,1.7,17.2,1.5,25.6-0.7
           c9.2-2.4,18.5-3.7,28-3.4c17.4,0.6,34.9-0.2,52.2-2.1c10-1.1,19.8-3.7,29.8-5.2c8.2-1.3,16.4-1.9,24.7-2.5
           c14.4-1.1,28.8-1.2,43.2-2.2c19.2-1.3,38.3-2.7,57.5-4.2c21.7-1.7,43-0.9,64.2,4.5c4.6,1.2,9.4,1.8,14.3,1.7
           c11.8-0.1,23.7,0.3,35.5-0.1c23.7-0.8,47.4-1.6,71.1-3.1c16.4-1,32.7-2,49.1-3c18.2-1.1,36.4-2.1,54.6-3
           c11.9-0.6,23.8-1.5,35.7-2c4.8-0.2,9.6-0.6,14.4-0.9c4.2-0.2,6.4,0.8,5.7,5.4c-0.2,1.5-0.6,3.4,1,4.7c0,7,0,14,0,21
           c-10.9-11.5-25.6-12-39.8-13.2c-10.6-0.9-21.2-1.8-31.9-1.3c-31.9,1.2-63.9,1.9-95.7,5.6c-24.1,2.8-48.3,5.4-72.6,7.2
           c-7.8,0.6-15.7,0.5-23.5,0c-7.4-0.5-14.4-2.5-20.8-6.5c-11.8-7.3-24.4-10.8-38.4-10.5c-12.5,0.2-24.9,1.7-37.4,2.6
           c-12.3,0.9-24.6,2.1-36.8,2.5c-22.1,0.8-44.2,1.7-66.3,4c-9.9,1-19.2,4.2-28.6,6.9c-9.7,2.8-19.5,4.2-29.6,4.2
           c-14.3,0.1-28.6-0.3-42.9-1.1c-5.6-0.3-11,0.3-16.2,2.2c-11.9,4.4-24.1,4.5-36.5,2.8c-11-1.5-22.2-2.4-33.2-3.7
           c-1.4-0.4-1.2-2-1.9-2.9C75,408.7,75,403.3,75,398z"/>
         <path fill="#977B4E" d="M76,416c13.1-0.1,26,2.2,39,3.8c11.5,1.4,22.8-0.5,33.8-4.1c8.8-2.9,18-1.5,27.1-1
           c13.8,0.7,27.6,0.8,41.4-0.2c14.4-1.1,27.4-7.9,41.5-9.8c7.5-1,15.1-2.2,22.7-2.5c17.4-0.8,34.8-1.4,52.2-2.4
           c18.5-1,36.9-2.7,55.4-4.4c19.8-1.9,39.6-1,56.9,11.5c4.8,3.5,10.8,4.7,16.5,4.9c9.4,0.4,18.9,0.6,28.4-0.3
           c8.4-0.8,16.8-1.6,25.2-2.4c11.2-1.1,22.3-2.5,33.5-3.6c8.6-0.9,17.1-1.6,25.7-2.4c21.3-2,42.7-2.3,64.1-3.4
           c16.3-0.9,32.5,0.3,48.7,0.6c11.3,0.2,22.2,3.5,32.9,7.2c4.1,1.4,5.1,4.3,6.1,7.7c0,2.7,0,5.3,0,8c-2.1,7.2-1.6,14.7-3,22
           c-0.6,3.4-0.6,6.9-1.9,10.2c-6.8-4.8-8.7-11.4-7-19.3c0.3-1.5,0.9-2.9,1.5-4.2c4-9.8,2.3-13.6-7.8-17.3
           c-4.4-1.7-9.1-2.3-13.7-2.7c-19.3-1.4-38.5-1.9-57.9-0.4c-10.6,0.8-21.3,0.6-31.9,1c-19.7,0.7-39.1,3.2-58.7,4.6
           c-14.8,1.1-29.5,2.4-44.3,3.7c-13.7,1.2-27.3,0.6-40.9,0.9c-8.8,0.2-17.1-1.8-23.8-7.4c-13-11-27.5-12.4-43.2-8.7
           c-15.7,3.7-31.6,5-47.6,3.9c-13.3-0.9-26.6-0.7-39.9-0.8c-16-0.1-31.9,1.8-47.7,3.8c-5.7,0.7-11,2.4-16.2,4.8
           c-12.6,5.8-25.9,8.4-39.7,8.4c-13,0-25.9-0.4-38.9-1.9c-7.4-0.8-14.5,0-20.9,4.7c-7.2,5.3-16,6.4-24.5,8c-2.3,0.4-4.6,1-6.9,1.3
           c-6,1-10.4,3.7-13.5,9.1c-2.1,3.6-4.9,6.8-8.7,8.7c-3.2,1.6-6.5,2.9-9.9,0.4c-2.5-10.5-3.3-21.2-4.1-31.9
           C75.4,421.4,75.2,418.7,76,416z"/>
         <path fill="#B9A581" d="M383,727c-6-1.6-12.1-1.1-18.2-2c-8-1.2-16.1-1.7-24-4c3.5-2.8,7.8-3,11.8-3.3c18.7-1.4,37.5-3,56.2-4.4
           c14.3-1,28.4-3.1,42.7-4.4c19.9-1.9,39.7-4.3,59.6-6.1c2.5-0.2,5,0,6.8,2.1c-15.9,6.8-32.6,11.3-49.5,14.9
           c-15.1,3.3-30.3,5.5-45.8,6.2c-1.3,0.1-2.7-0.2-3.8,0.9C407,727,395,727,383,727z"/>
         <path fill="#D1C5B1" d="M76,416c0,2.7-0.1,5.4-0.1,8.1c0,0-0.4,0-0.4,0L75,424c0-3.3,0-6.7,0-10C75.3,414.7,75.7,415.3,76,416z"
           />
         <path fill="#AC956D" d="M88.9,307.8c0.6-3.4,1.6-6.7,3.1-9.9c17.2,1.7,34.3-0.4,51.3-1.7c25.1-2,50.3-2,75.4-1.7
           c18,0.2,35.8,2.7,53.7,4.4c24.7,2.4,49.4,5,74.1,6.6c28.2,1.8,56.5,3,84.8,4.1c21.6,0.8,43.2,1.8,64.8,2.9
           c24.9,1.2,49.9,2.3,74.8,3.1c17.6,0.6,35.3,1.1,52.9,2c29.6,1.4,59.2,1.8,88.8,3.6c1.5,0.1,3,0,4.3,0.9c1.2,2.8,1.8,5.8,2.1,8.9
           c0,2.3-1,3.3-3.3,3.2c-14.7-0.8-29.5-0.5-44.2-1.9c-0.5,0-1-0.1-1.5-0.1c-12,0.7-23.9-1.1-35.8-1c-13.6,0.1-27.2-0.9-40.8-1.2
           c-17.6-0.4-35.1-1.3-52.7-1.9c-15.2-0.5-30.5-1.3-45.7-2c-14.7-0.7-29.5-1.4-44.2-2c-16.2-0.7-32.5-1.3-48.7-2
           c-13.2-0.6-26.5-1-39.7-2c-18.8-1.4-37.6-2.3-56.4-4.7c-15.1-1.9-30.3-2.5-45.4-4.2c-24.1-2.7-48.2-4.5-72.4-3.9
           c-21,0.5-42,1.9-63,3.7c-10.5,0.9-21.1,2.1-31.7,0.2C91.3,310.6,89.4,310.3,88.9,307.8z"/>
         <path fill="#A0865B" d="M133.6,214.8c0.2-0.7,0.3-1.6,1.2-1.9c5.3-0.8,10.6-1.1,15.9-1.2c22-0.6,43.9-1.8,65.9-1.2
           c9.5,0.3,18.6,2.7,26.6,7.8c15.4,9.7,31.9,13.1,49.7,10.4c2.5-0.4,5-0.2,7.5-0.2c56.3,0,112.6-0.1,169,0.1c13,0,25.9,0.3,38.9,0
           c4.4-0.1,8.6-0.7,12.8-1.9c9.4-2.7,15.8-8.2,17.7-18.3c0.8-3.9,1.8-7.8,2.7-11.7c1.6-6.6-0.9-12.2-6.9-15
           c-6.6-3-13.6-4.6-20.9-3.9c-21.2,2-42.4,3.9-63.7,5.7c-29.2,2.6-58.5,3.6-87.8,2.7c-27-0.8-53.8-4.3-80.2-10
           c-27.1-5.8-53.4-14.4-79.3-24c-2.5-0.9-5.7-1.4-5.7-5.2c10.1-8.9,21.2-16.4,32.8-23.2c2.2-1.1,4.2-0.2,6.3,0.5
           c33.5,11.7,67.9,19.5,103.2,22.8c16.6,1.5,33.2,2.7,49.9,2.1c24.3-0.9,48.5-2.2,72.7-4.4c22.4-2.1,44.7-4.3,67.1-5.6
           c9.5-0.6,19-0.3,28.4-1.6c7.8-1,15.6,0.3,23.3,1.7c10.4,1.8,18,7.4,22.6,17c2.9,6.1,6.5,11.3,13.7,12.7c2.8,0.5,5.6,0.5,8.5,0.3
           c1.8-0.1,3.7-0.7,5.3,0.7c12.1,11.5,23,24.1,32.6,37.8c-1.5,2.8-4.3,2.9-6.9,3.3c-21.2,3.1-42.4,6.8-63.6,10.3
           c-5.8,1-11.4,2.5-16.8,4.7c-5.9,2.4-10,6.4-12,12.6c-2.5,8-5.8,15.5-10.9,22.3c-3.4,4.5-2.3,7.5,2.9,9.8c5.1,2.2,10.6,2.8,16,3.5
           c4.6,0.5,9.3,1.2,13.9,1.1c12.5-0.2,24.9,0.8,37.4,1.3c25.2,0.8,50.5,1.3,75.7,2.9c1.7,0.1,3.3,0.2,4.6,1.5
           c3.8,8.7,7,17.6,9.2,26.8c0.3,2.2-1.3,2.9-2.9,3.3c-1.9,0.6-3.9,1.1-5.9,0.9c-14.1-1.7-28.2-1.5-42.3-1.6c-9.3,0-18.5-1-27.8-1.3
           c-8.7-0.3-17.5,0-26.3-0.9c-7.5-0.7-15.2-1.2-22.8-0.9c-7.6,0.3-15.3-0.4-22.9-0.6c-11.4-0.3-22.8-1.1-34.2-1.4
           c-7.8-0.2-15.6-1-23.4-1.1c-8.4-0.1-16.8-1.1-25.2-0.9c-7.5,0.2-14.8-1.4-22.4-1.3c-11.4,0.1-22.9-0.8-34.4-1.5
           c-8.5-0.5-17.2,0.6-25.8-1.4c-5.4-1.3-11.3-0.8-16.9-0.7c-14.8,0.1-29.7-0.7-44.3-2.4c-26.7-3.2-53.5-1.6-80.2-5.1
           c-12.6-1.7-25.5-1.6-38.3-2c-13.5-0.5-27-0.3-40.4,0c-15.6,0.4-31.3,1-46.9,2.2c-10.1,0.8-20,0.1-29.8-1.7
           c-1.6-0.3-3.3-0.7-4-2.5c0.9-3.6,1.8-7.2,3.9-10.3c9.7,5.9,20.6,5.9,31.4,6.8c10.3,0.9,20.6-1,30.9-1c32.2,0,64.3,0,96.5,0
           c22.3,0,44.6-0.6,66.8-0.6c16.3,0,32.5-0.7,48.8-0.5c18.1,0.3,36.2-1,54.3-1.1c8.2,0,16.3-0.4,24.3-1.8c2.3-0.4,4.6-0.7,6.8-2.1
           c-1.4-2-3.7-1.7-5.4-2.6c-2.5-1.3-4.6-2.9-4.7-5.9c-0.1-2.8,1.6-4.6,4-5.9c1.9-1,5-1.8,4.5-4c-0.5-2.7-3.9-1.9-6-2.1
           c-7.1-0.6-14.3-1.1-21.3-1.8c-13.2-1.4-26.5-2.2-39.8-2.9c-15.4-0.8-30.8-3-46.2-3.7c-8.3-0.4-16.6-1.5-24.8-2.1
           c-13.8-1.1-27.5-2.9-41.3-3.6c-6-0.3-11.4-1.8-16.6-4.8c-7.4-4.2-13.7-10-21.1-14.3c-7.5-4.4-15.5-6.7-24.2-7
           c-25.6-1-51.2,0.6-76.8,1.8C137.7,217.4,135,217.7,133.6,214.8z"/>
         <path fill="#A0865B" d="M95.9,287c11.4,2.7,22.8,4,34.5,2.4c1.3-0.2,2.6-0.3,4-0.4c11.5-0.4,22.9-0.4,34.4-1.1
           c13.5-0.8,27.1-1.4,40.6-0.8c19.3,0.8,38.6,1,57.8,3.6c7,0.9,14.2,1.4,21.3,1.3c15.2-0.2,30.4,0.8,45.6,2.5
           c7.7,0.9,15.8,1,23.6,1.5c10.2,0.6,20.5,1.6,30.6,1.2c8.3-0.3,16.2,1.7,24.5,1.3c8.2-0.3,17,0.1,25.5,0.9
           c8.3,0.7,16.8,2.2,25.2,0.6c2.3-0.4,4.4,0.4,6.3,1c6.4,2,13-1.1,19.1,1c5.5,1.9,10.9-0.3,16.4,0.5c7.8,1.1,15.9,1.2,23.8,1.3
           c11.4,0.2,22.9,1.3,34.2,1.4c8,0.1,16.1,2.2,24.1,0.1c0.3-0.1,0.7-0.3,1-0.2c8.5,3.5,17.8-0.9,26.4,2.5c2.8,1.1,5.5-1.3,8.3-0.7
           c8.4,2,17,0,25.5,1.5c6.6,1.1,13.8,0.3,20.7,0.5c11.3,0.4,22.7-0.3,34,1.5c3,0.5,7.4,0.8,9.9-2.7c2.2,4.5,2.6,9.4,3.9,14.2
           c-3.2,1.5-6.5,0.1-9.7,0.1c-10-0.1-19.9-0.9-29.9-0.9c-14.5-0.1-28.9-1-43.3-1.4c-18.2-0.5-36.5-1.3-54.7-1.9
           c-17.6-0.6-35.1-1.3-52.7-2c-14.1-0.6-28.1-1.3-42.2-2c-15.6-0.7-31.2-1.3-46.7-2c-15.1-0.7-30.2-0.9-45.2-2
           c-19.2-1.3-38.3-1.9-57.5-3.6c-13.2-1.2-26.4-2.3-39.6-3.3c-11.2-0.9-22.3-2.6-33.5-3.7c-8.2-0.9-16.5-1.5-24.7-2.2
           c-21.6-1.8-43.2-1.4-64.8-0.8c-18,0.5-36,1.9-54,3.4c-8.7,0.7-17.9,2.5-26.4-1.7C92.9,294.2,94,290.4,95.9,287z"/>
         <path fill="#BBA783" d="M669.9,217.3c7.5,9.5,13.2,20.1,18.9,30.7c3.7,6.8,7.5,13.6,10,21c-1.6,1.6-3.7,1.4-5.6,1.4
           c-16.6-0.3-33.2-1.2-49.9-1.6c-15.5-0.4-30.9-1.6-46.4-1.3c-6.2,0.1-12.3-0.6-18.3-2.1c-8.5-2.1-10.9-6.8-9-15.2
           c2.5-10.6,9.3-16.5,19.6-19c16.1-3.8,32.4-5.9,48.7-8.7C648.6,220.7,659.3,219.6,669.9,217.3z"/>
         <path fill="#AD956E" d="M669.9,217.3c-2.7,4.8-7.8,2.8-11.6,3.5c-17.7,3.3-35.5,5.8-53.2,8.7c-8.6,1.4-17.4,2.5-25.2,7
           c-5,2.9-10.8,14.7-9.8,20.2c0.8,4.4,5.5,7.5,13,8.2c6.6,0.7,13.2,1.3,19.8,1.1c13.4-0.3,26.9,0.8,40.3,1.2
           c18.5,0.6,37.1,1.6,55.6,1.8c2,3.8,3.9,7.8,5,12c-20.9-0.8-41.8-1.6-62.7-2.2c-18.4-0.6-36.8-1.4-55.2-2
           c-9.5-0.3-19.2-0.8-28.4-3.8c-9.1-3-10.5-7.1-4.5-14.4c3.8-4.6,6.7-9.8,7.9-15.4c2.9-14.3,13.3-19.7,25.8-22
           c23.1-4.2,46.1-8.3,69.4-11.3c2.4-0.3,4.8-1.3,7.2-2C666.2,210.6,667.9,214,669.9,217.3z"/>
         <path fill="#AF9871" d="M630.8,170.1c-2.9,0.4-5.8,1-8.9,1c-8.5,0.1-15-3.2-18.3-11.1c-5.8-13.8-16.4-19.2-30.8-20.1
           c-18.9-1.2-37.7,0.7-56.4,2.1c-9.7,0.7-19.5,1.2-29.2,2.1c-13.2,1.2-26.3,2.6-39.5,3.8c-4.4,0.4-9,0.8-13.4,0.9
           c-10.1,0.3-20.2,1.7-30.3,1.3c-5.8-0.2-11.6,0.9-17.4,0.8c-38.9-0.3-77.3-4-115-14.1c-14.1-3.8-27.9-8.6-41.8-13
           c1.9-1.9,4.3-3.1,6.8-4c2.5-1.2,4.9-0.5,7.3,0.3c28,9.7,56.7,16.2,86.1,19.7c11.7,1.4,23.5,2.5,35.3,2.5c20.7,0,41.3,0.6,61.9-1
           c21.9-1.8,43.8-3.6,65.7-5.5c16.2-1.5,32.5-2.9,48.8-3.5c8.5-0.3,17-1.3,25.4-0.8c7.3,0.4,14.6,0.7,21.6,3.4
           c5.4,4.1,10.8,8.2,16.3,12.2c0.3,0.4,0.6,0.8,0.8,1.2c3.7,7.9,8.7,14.3,18.2,15.5C626.3,166,628.5,168,630.8,170.1z"/>
         <path fill="#AF9872" d="M588.7,135c-10.1-0.1-19.9-2.7-30.1-2c-18.8,1.2-37.7,1.8-56.4,3.9c-13.5,1.5-27,2.1-40.5,3.2
           c-15.5,1.2-30.9,3-46.4,3.8c-12,0.6-24,0.1-35.9,0.2c-27.4,0.3-54.5-2.4-81.4-7.8c-18.7-3.7-37.1-8.7-55.1-14.8
           c-2-0.7-4.2-1.1-6.2-1.6c2.4-2.3,5.5-3.5,8.5-4.8c14.2,6.2,29.4,9.2,44.3,13c15.1,3.8,30.5,5.6,45.9,7.8c4.1,0.6,8.3,0.8,12.4,1
           c18.6,1.1,37.2,1.9,55.8,1.1c19.5-0.9,39-2.3,58.4-4c15.3-1.3,30.6-2.6,46-4c20.8-1.8,41.7-3.3,62.6-2.9c1.7,0,3.3-0.3,4.8-1.2
           C579.3,129.5,585.1,130.7,588.7,135z"/>
         <path fill="#AF9872" d="M624,164c-10.6,0.6-15-4.6-19-16.8C612,152.1,618.5,157.5,624,164z"/>
         <path fill="#886D45" d="M80,456c9.7,1.3,14.7-5.1,18.8-12.1c2.4-4.1,5.6-5.8,9.7-6.9c9.6-2.6,19.7-2.9,28.9-7
           c1.7-0.7,3.4-1.4,4.8-2.6c7.6-6.2,16.3-5.8,25.5-4.9c15.8,1.5,31.7,2.3,47.7,0.7c10.4-1.1,20-4.4,29.4-8.6
           c8.9-4,18.6-4.4,28.1-5.6c20.8-2.6,41.8-2.2,62.7-2c6.8,0.1,13.5,1,20.4,1c13.5,0.1,26.7-1.7,39.9-4.5
           c14.7-3.1,28.6-2.3,40.8,8.1c7.3,6.2,16.2,8.7,25.9,8.4c7.5-0.3,15,0.1,22.5-0.1c16.9-0.4,33.7-2.1,50.5-3.8
           c8.9-0.9,17.8-1.1,26.7-2.2c16.8-2,33.7-2.4,50.5-3.9c0.5,0,1-0.1,1.5-0.1c22.1,0.2,44.2-2.2,66.3-0.8c10.9,0.7,22.3,0,32.6,5.3
           c8,4.1,9.5,8,5.6,16.1c-3.8,7.8-4.6,15.2,2.2,22c0.6,0.6,0.8,1.8,1.2,2.7c-1,9.5-3.1,18.8-5.9,27.9c-8.2,5.6-17.6,7.1-27.1,7.3
           c-10.1,0.2-20.3,0.1-30.5-0.5c-11.6-0.6-22.9,0.7-31.6,10.4c-4.4,5-10.5,6.7-17.3,5.7c-7.6-1.2-15.2,0-22.9-0.2
           c-11.6-0.3-23.2-0.1-34.8,0.1c-7.9,0.1-15.9-0.9-23.9,0.1c-5.8,0.8-12-0.2-17.9-0.7c-12.3-0.9-24.6-1.1-36.9-0.9
           c-5.8,0.1-11.1-2.1-16.3-4.4c-4.7-2.1-9.6-2.7-14.6-2.4c-13.4,0.8-26.5-0.8-39.8-2.6c-14.3-2-28.8-3.3-43.3-1.7
           c-2.3,0.3-4.7,0.3-7,0.2c-5.9-0.3-11.6,0.7-17,3.3c-6.7,3.2-14.1,4-21.1,6.2c-6.4,2-12.7,4.2-18.7,7c-13.1,6-26.6,6.3-39.9,1.6
           c-14.3-5-29-6.6-44.1-7.3c-24.1-1-48.3-0.1-72.4-2.5c-9.9-1-19.9-1.2-29.9-2.3c-6-0.6-11.7-2.4-17.4-4.4c-1.6-0.6-3.1-1.4-3.8-3
           C84.5,480.2,81.5,468.3,80,456z"/>
         <path fill="#A0865B" d="M176.9,637.4c-14.4-13-27-27.5-38.2-43.2c1.5-2.8,4.4-2.9,6.9-3.2c12.6-1.6,25.2-2.5,37.8-3.5
           c21.6-1.6,43.2-2.5,64.8-3.7c16.4-0.9,32.9-2,49.3-3.3c16.8-1.3,33.5-2.6,50.3-3.7c13.8-0.9,27.6-1.6,41.4-2.4
           c19.8-1.2,39.6-1.4,59.3-2.7c10.5-0.7,21-0.6,31.4-0.9c13.8-0.4,27.6-0.9,41.4-1.5c16.6-0.6,33.2-1.1,49.8-2.6
           c8.1-0.7,16.3-0.7,24.4-1c17.1-0.6,34.2-1.7,51.3-2.5c9.8-0.4,19.6-0.4,29.4-1c2.5-0.2,5.9-0.9,5.8,3.6
           c-9.2,17.1-20.7,32.5-33.3,47.2c-5.6,6.6-11.1,13.2-17.8,18.8c-22.6,5.4-45.5,8.4-68.5,10.7c-25.2,2.6-50.3,4.8-75.5,7.7
           c-10.2,1.2-20.5,2.2-30.8,3.2c-12.4,1.2-24.5-2-36.7-3.3c-10.5-1.1-20.9-0.9-31.4-0.1c-13.3,1-26.6,0.9-39.9,0.2
           c-18.9-0.9-37.8-2.7-56.6-5.8c-10.4-1.7-20.7-3.5-30.8-6.3c-7.5-2.1-14.3-5.2-19.9-10.8c-8.2-8.3-19.5-9.6-30-12.6
           c-7.4-2.1-15-3.2-22.7-1.1c-2.3,0.6-4.5,1.3-6.6,2.3c-8.1,4-9.6,8.5-5.4,16.5C177,634,178.4,635.5,176.9,637.4z"/>
         <path fill="#947950" d="M88.2,492c10.5,4.5,21.5,6.3,32.8,7.1c26.5,1.9,53,2.7,79.6,3.2c11.2,0.2,22.6-0.6,33.7,1.7
           c4.9,1,9.9,1.6,14.4,3.5c16.7,7,33,7.8,49.5-0.5c10-5,21.4-6,31.5-10.2c15-6.2,30.5-5.7,46-5.7c16.6-0.1,32.9,3.2,49.3,5
           c4.5,0.5,9.3,0.5,13.7,0.1c7.6-0.7,14.5,0.2,21.3,3.4c6.8,3.2,13.8,3.3,21.3,3c7.4-0.3,14.9-0.1,22.3,0.5
           c9.4,0.8,18.7,1.4,28.1,1c8-0.3,16.1,0.4,24.1,0.7c2.8,0.1,5.6,0.4,8.5-0.2c1.3-0.3,2.7-0.8,3.9-0.6c8.8,1.9,17.7-0.4,26.7,0.6
           c6.4,0.7,13.1-0.2,19.7,0.1c4.2,0.2,8.4-2,11.4-5.5c9.6-11.1,22.3-11.4,35.5-10.6c10.8,0.6,21.6,0.5,32.4-0.1
           c7.8-0.4,14.6-4.2,22.1-5.5c-0.7,5.5-2.6,10.7-4.4,15.9c-2.1,1.6-4.4,2.3-7,2.4c-7.3,0.2-14.7,0.7-22-0.1c-9.3-1-18.6-0.6-28-0.7
           c-7.4-0.1-14.4,1.8-19.8,7.1c-10.2,10.2-23.2,12.5-36.6,13.8c-17.1,1.8-34.3,1.3-51.4,0.9c-14.5-0.3-28.8-3.1-43.2-4.3
           c-11.4-0.9-22.8-2.4-34.4-2.6c-4.3-0.1-7.8,1.2-10.7,4.4c-7.2,7.6-16.1,10.5-26.5,10.8c-23.7,0.6-46.8-3.9-69.7-8.8
           c-14.4-3-28.8-5.7-43.4-6.7c-6.3-0.4-12.8-0.4-18.8,1.9c-20.4,8.2-41,5.6-61.5,1.1c-20.5-4.5-41.2-7.2-62.3-8
           c-23-0.8-46-0.1-68.9-1.9c-5.1-0.4-10.4,0.1-15.2-2.2C90.7,501.6,89.1,496.9,88.2,492z"/>
         <path fill="#8E744C" d="M269.8,699.1c-22.3-9.1-42.7-21.3-62-35.7c-0.8-3.2,1.3-5,3.3-6.7c4.6-3.8,10-6.2,15.9-6.8
           c13.9-1.4,27.8-1.8,41.9-0.8c12.9,0.9,25.9,1.3,38.9,2.3c23.6,1.9,47.3,1,70.9,1c12.1,0,24.3-1.3,36.4-1
           c5.4,0.1,10.7,0.3,15.8,1.8c13.6,4,27.3,3.6,41.1,2c28.9-3.3,58-6,87-8.8c18.2-1.7,36.4-3.8,54.5-7.2c2.6-0.5,5.9-2.2,7.6,1.8
           c-17.7,17-37.4,31.2-58.9,43c-26.4,3.3-52.9,5.8-79.3,8.6c-20.4,2.1-40.6,5.1-60.8,8.2c-16.6,2.6-33.4,3.3-50.2,3.7
           c-29.3,0.7-58.5-0.5-87.7-3.8C279.3,700.2,274.4,700.6,269.8,699.1z"/>
         <path fill="#957B55" d="M621.1,641.1c-1.8-1.9-4-1-6.1-0.6c-12.7,2.3-25.4,4.4-38.3,5.6c-15.1,1.4-30.2,3.7-45.4,4.7
           c-11.7,0.8-23.4,2.6-35.1,3.4c-11.2,0.8-22.3,2.7-33.5,3.7c-9.3,0.8-18.6,0.6-27.7-1.9c-15.3-4.2-30.9-3.3-46.5-2
           c-1.5,0.1-3,0.1-4.5,0.1c-19.3,0-38.7,0.4-58-0.1c-12.2-0.3-24.5-0.8-36.6-2.8c-0.5-0.1-1-0.1-1.5-0.1
           c-15.1,0.5-30.3-2.1-45.4-0.9c-9.7,0.8-20-0.2-28.7,6.2c-2.6,2-4.9,4-6.1,7c-11.1-7.8-21.4-16.4-31-26c0.4-2-1.2-2.9-2.1-4.3
           c-4.8-6.9-3.2-13.6,4.2-17.5c8-4.3,16.5-5.7,25.5-3.7c11.7,2.5,23.3,4.8,33.7,11.2c4.1,2.5,6.6,6.9,11.1,9.1
           c11.5,5.7,23.9,7.7,36.3,9.8c18.6,3.1,37.3,5.1,56.2,6.3c13.5,0.8,26.9,0.7,40.4,0.6c7.4-0.1,14.9-0.6,22.4-0.9
           c11.7-0.5,23.1,1.6,34.6,3.4c9.9,1.6,19.5,0.1,29.2-0.6c10.9-0.9,21.7-2.5,32.5-3.7c12.2-1.3,24.3-2.7,36.5-3.9
           c11.5-1.1,23.1-1.9,34.6-3.2c12.8-1.5,25.5-3.6,38.3-5.5c5.4-0.8,10.8-1.7,16-3.3c1.5-0.4,3.3-0.7,4.8,0.5
           C627.6,634.8,624.3,638,621.1,641.1z"/>
         <path fill="#B59F7A" d="M131.6,584.2c-0.7-1-1.3-2-2-3c1.3-2.1,3.5-2.3,5.7-2.6c14.4-1.6,28.8-3,43.2-4.2
           c19.9-1.6,39.8-2.5,59.8-3.6c17.4-1,34.9-2.2,52.3-3.3c14.5-1,28.8-2.6,43.1-5c1.8-0.3,3.6-0.5,5.1-1.7c-0.4-1.8-1.9-2-3.1-2.3
           c-20.8-5.3-41.2-12-62.6-15.2c-20.2-2.9-40.2-0.5-60.2,1.6c-28,2.9-55.9,6.6-84.1,5.6c-6.5-0.2-13,0-18.9-3.4
           c-0.5-1-1.1-2-1.6-3.1c2-1.9,4.3-1.4,6.6-1c18.4,2.8,36.8,1.3,55.3,0c26.4-1.8,52.5-6.4,79.1-6.6c17.7-0.1,34.9,2.2,51.9,6.4
           c22.2,5.6,44.4,10.6,67.2,12.4c11.7,0.9,23.3,0.2,34.9-1.1c16.6-1.8,32.8-5.4,48.8-10.1c10.6-3.1,21.4-4.2,32.5-4.6
           c27-0.9,54-0.1,80.9-1.1c14.1-0.5,28.3,0.1,42.3-2.4c8.4-1.5,16.7-3.5,24.6-6.6c16.6-6.5,33.9-8.2,51.3-9.6
           c5.1-0.4,10.3-1.1,15.4-1.5c1.8-0.1,3.7-0.6,5.1,1c-0.2,0.6-0.3,1.3-0.5,1.9c-1.3,2.8-3.8,3.3-6.7,3.5
           c-11.5,0.7-22.9,2.3-34.3,3.6c-11.8,1.3-23.2,4.8-34.2,9c-14.1,5.3-28.8,7.3-43.6,7.3c-29,0-57.9,1.4-86.9,1.2
           c-14-0.1-28,0.4-41.6,4.4c-3.8,1.1-7.6,2.2-11.2,4.8c1.6,1.8,3.3,1.6,4.9,1.6c13.5,0.3,26.9,0.5,40.4-0.8c6-0.6,12,0,18-0.2
           c17.8-0.5,35.6-1.6,53.3-2.7c7-0.5,14-0.9,20.9-1c13-0.2,26-1,38.9-1.4c18.1-0.7,36.2-1.1,54.3-2.6c3.2-0.3,6.3-0.3,9.5,0
           c2.1,0.2,4.5,0.4,4.5,3.5c-0.7,1-1.3,2-2,3.1c-13.5-0.1-26.9,0.8-40.4,1.4c-21.7,1-43.5,2-65.2,3c-12.9,0.6-25.9,1.3-38.8,2
           c-17.6,0.9-35.2,1.2-52.8,2.1c-25.6,1.2-51.2,2.7-76.8,1.6c-21.9-0.9-43.5,1.9-65.1,4c-16.2,1.6-32.4,3.2-48.6,4.3
           c-19.9,1.4-39.7,3.1-59.6,4c-12.3,0.6-24.6,1.1-36.8,2c-18.9,1.4-37.8,2.2-56.6,4.5C142.2,583.7,137,585.3,131.6,584.2z"/>
         <path fill="#B8A47F" d="M690.1,551.1c-4.8-4.3-10.4-1.5-15.6-1.8c-1.3-0.1-2.6,0.6-3.9,0.6c-12.1,0.4-24.3,0.4-36.4,1.1
           c-17.4,1-34.8,1.4-52.2,2.1c-12.6,0.5-25.2,1.1-37.7,2c-17.4,1.2-34.8,1.2-52.2,2.2c-9.7,0.5-19.5,0.2-29.3,1.2
           c-5.4,0.5-11.2-0.4-16.8-0.6c-1.5-0.1-2.8-0.8-3.1-2.1c-0.4-1.8,1.3-2.8,2.5-3.3c7-3.1,14.2-5.5,21.9-6.5
           c19.8-2.8,39.7-1.4,59.5-2.1c20.8-0.8,41.6-0.4,62.4-1c14.9-0.5,29.5-3.2,43.6-8.6c11.9-4.6,24.3-7.5,37.2-8.4
           c10-0.8,20-2.7,30.1-2.8c1.7,0,2.6-1.3,3.9-2C700,531.4,695.6,541.5,690.1,551.1z"/>
         <path fill="#AD956E" d="M681.9,565.7c-0.4-2.1-2.1-2.9-3.7-2.5c-9.7,2.1-19.5,0.7-29.3,1.4c-11,0.8-22.2,1-33.3,1.5
           c-21,0.9-42.1,1.9-63.1,3c-14.7,0.7-29.5,1.4-44.2,2c-19.9,0.8-39.8,1.4-59.7,2.1c-15.2,0.5-30.5,1.1-45.7,2
           c-19.7,1.2-39.3,2-59,3.6c-11.7,0.9-23.4,1.7-35.2,2.4c-15.5,0.8-31,2.6-46.5,3.8c-6.3,0.5-12.6,0.5-18.9,0.8
           c-8.4,0.4-16.9,1-25.3,1.4c-18.7,0.8-37.4,1.8-56,3.8c-7.9,0.8-15.9,0.8-23.5,3.2c-1.8-1.2-2.8-3.1-3.7-4.9
           c-0.1-3.1,2.3-3.2,4.4-3.6c8.8-1.6,17.8-2,26.7-2.9c19.3-2,38.8-2.3,58.1-3.9c6.8-0.6,13.6-0.6,20.4-1c19.2-0.9,38.4-2.5,57.6-4
           c11.6-0.9,23.2-1.4,34.8-2.4c15.2-1.3,30.4-2.2,45.6-3.6c7.9-0.7,16-0.9,23.9-0.9c18.1-0.2,36.2-0.9,54.4-1.4
           c18.6-0.5,37.2-1.2,55.8-2c14.1-0.6,28.2-1.1,42.3-1.9c20.6-1.1,41.1-2.1,61.7-3.1c14.6-0.7,29.2-1.6,43.8-2
           c5.5-0.1,10.9-1.2,16.4-0.9c2,0.1,4.1-0.3,5.6,1.5C685.7,560.4,684.2,563.3,681.9,565.7z"/>
         <path fill="#997E51" d="M92.5,506.2c11.1,0.3,22.2,1,33.2,1.6c12.5,0.7,25-0.5,37.5,0.4c18,1.3,36,0.9,53.9,4.3
           c16,3.1,31.9,7.3,48.3,8.4c10.1,0.7,19.9-0.2,29.4-3.8c13.2-5,26.5-3.7,40-1.8c23.1,3.3,45.6,9.5,68.8,12.5
           c11.6,1.5,23.2,1.6,34.8,0.9c6.1-0.4,12.6-2.4,16.4-7.4c6.6-8.9,15.4-7.7,24.4-7.1c5.9,0.4,11.8,1.3,17.8,1.7
           c11.6,0.7,23,2.4,34.5,3.7c5.3,0.6,10.6,1.3,15.8,1.3c17.1,0,34.3,0.9,51.3-1c9.2-1,18.6-1.8,26.8-6.7c4.8-2.9,8.5-7.3,13.4-10.3
           c4.6-2.8,9.6-3.9,14.7-3.9c9.8,0.1,19.6-0.2,29.4,0.7c9.5,0.8,19.3,1,28.8-0.8c-0.3,1-0.7,2-1,3c-4.1,2.2-8.6,2.4-13.1,2.5
           c-12.7,0-25.3,0.2-38,0c-8.1-0.1-15.6,2.1-22,7c-12.7,9.8-27.5,12.7-43,14c-14.3,1.2-28.6,1-42.9,0.8
           c-15.3-0.3-30.5-1.6-45.8-2.4c-11-0.6-21.9-1.7-32.9-1.4c-3.8,0.1-7.3,1.1-10.5,2.9c-13.6,7.6-28.1,10.1-43.7,10.3
           c-22.9,0.3-45.1-4.1-67.3-8.1c-8.2-1.5-16.3-3.3-24.5-4.9c-9.1-1.8-18.2-1.8-27.3,0.4c-14.3,3.5-28.7,2.7-43.2,1.5
           c-24.6-2-48.8-6.7-73.3-8.8c-24.9-2.1-49.9-1.4-74.9-1.3c-4.7,0-9.3,0-13.6-2.4C94.1,510.1,93.3,508.1,92.5,506.2z"/>
         <path fill="#9D8357" d="M94.8,512.1c22.3,1.9,44.6,0.1,66.8,1.1c16.3,0.7,32.6,2.3,48.9,4.5c23.7,3.3,47.5,7.4,71.6,6.4
           c4.3-0.2,8.8-0.2,12.8-1.4c14.9-4.7,29.4-2.4,44.2,0.8c20.2,4.3,40.5,8.7,61.1,10.2c14.5,1.1,29.3,1.7,43.7-1.9
           c4.6-1.2,9.3-2.9,13.3-5.5c9.4-6.1,19.7-6.2,29.9-5c8.1,1,16.2,0.8,24.3,1.5c24,1.9,48.1,3.3,72.2,2.1
           c15.2-0.7,30.5-1.4,44.5-8.8c3.7-2,6.8-4.7,10.3-6.9c6.1-4,12.7-6.3,20.2-6.2c10.2,0.1,20.3-0.1,30.5,0.1
           c7.3,0.2,14.6-0.5,21.9-1.1c-0.2,1.2-0.3,2.5-1.7,3.1c-4.6,2.2-9.7,2.5-14.6,2.3c-11.2-0.3-22.3,1.2-33.4,1.2
           c-10.3,0-19.5,4.1-28.2,9.1c-14.3,8.3-30.1,10.1-46.1,10.6c-16.9,0.5-33.9,0.9-50.8-0.1c-15.1-0.9-30.3,0-45.4-1.5
           c-13.3-1.3-26.1,1-38.5,6.3c-8.6,3.7-17.9,4.8-27.2,5.6c-7.8,0.6-15.6,1-23.4,0.9c-18.9-0.2-37.5-2.5-56.1-5.5
           c-13.4-2.2-26.7-5.9-40.4-6c-5.8-0.1-11.6,0.6-17.4,0.6c-15.8-0.1-31.5-1.8-47.2-2.8c-13.1-0.9-26.2-1.7-39.4-2.1
           c-9.5-0.3-18.9-1.7-28.4-1.1c-17.3,1-34.6-0.5-51.9,0c-6,0.2-11.9-1.2-17.9-1.1c-2.1,0-3.8-1.2-5.4-2.4
           C96.3,516.7,95.1,514.6,94.8,512.1z"/>
         <path fill="#A0865B" d="M97.3,519c7.5,1.6,15.2,1.8,22.7,1.8c17.1,0.1,34.1,0.7,51.2,0.3c18.4-0.5,36.7,1.9,55.1,2.6
           c12.6,0.5,25.1,1.8,37.7,2.5c9.6,0.5,19.3,1.5,28.9,0.6c19.9-1.8,38.7,3.6,57.9,6.5c10.6,1.6,21.3,2.9,32,3.8
           c9.8,0.8,19.6,1.2,29.4,0.8c10.9-0.5,21.9-0.8,32.4-3.9c4.9-1.5,9.8-3.1,14.5-5.1c11.4-4.8,23.3-4.5,35.3-3.3c1,0.1,2,0.4,3,0.4
           c15.6-0.7,31.2,1.1,46.9,1c15.1-0.1,30.2,0.5,45.2-0.2c14.2-0.6,28.5-1.9,41.2-9.6c12.6-7.6,26.1-10.3,40.8-10.6
           c12.5-0.2,25.2,0.2,37.7-1.6c-0.2,1,0.4,2.3-0.7,3.1c-5.9,2-12.1,1.9-18.1,2.3c-10.8,0.6-21.6,1.2-32.3,2.3
           c-9,0.9-17.2,3.9-25.1,8c-12,6.2-24.8,8.5-37.9,9.5c-16.8,1.4-33.6,1.9-50.4,1c-21.1-1.2-42.3-0.1-63.4-0.8
           c-9.2-0.3-17.9,1.3-26.4,4.4c-15.4,5.6-31.3,7.3-47.5,7.6c-8.6,0.2-17.3,0.2-25.9,0.3c-22.6,0.2-44.8-3.1-66.8-7.9
           c-8.8-1.9-17.7-2.8-26.7-3.4c-13.2-0.9-26.5-1.8-39.7-2.6c-14.9-0.9-30-0.8-44.9,0.1c-13.9,0.8-27.9,1.2-41.8,2.7
           c-8.8,0.9-17.6,0.9-26.4,1.1c-10.3,0.2-20.2-1.7-30.2-3.8c-1.5-0.3-2.9-0.8-4.1-1.7C99,524.6,98.1,521.8,97.3,519z"/>
         <path fill="#B19B75" d="M704.3,519.1c-11.8,1.2-23.6,2.7-35.5,3.4c-19.4,1-36.7,9.8-55.3,13.7c-6.8,1.4-13.7,2.4-20.6,2.7
           c-28.2,1.4-56.6,0.4-84.8,1.4c-13.7,0.5-27.6-0.7-41.2,1.7c-7.8,1.4-15.4,3.8-23.1,5.9c-15,4-30.3,6.6-45.8,8.2
           c-33,3.4-64.6-3.6-96.1-11.7c-22.1-5.6-44.5-7.7-67.1-6.3c-14.8,0.9-29.5,3.2-44.3,4.7c-9.2,0.9-18.5,1.1-27.7,2.2
           c-11.1,1.3-22.2,0.6-33.4,1c-7.2,0.2-14.1-2.3-21.2-2.1c-1.7-2-2.7-4.4-3.3-7c6.8,0.3,13.4,2,20.1,2.8
           c13.7,1.6,27.3,0.1,40.9-0.8c16.8-1.1,33.4-3.3,50.2-4.6c11.8-0.9,23.5-2.1,35.3-1.8c22,0.5,43.6,4.1,65,9.4
           c23.9,5.9,48.3,8.4,72.8,7.3c22.1-0.9,44.1-3.5,65.4-10.2c8.1-2.5,16.6-3.4,25.1-3.7c35-1.1,69.9-0.6,104.9-1.1
           c17.5-0.3,34.7-3,51-10.2c12.1-5.3,25.1-6.5,38-7.6c9.1-0.8,18.2-2.1,27.3-2.3c1.9,0,3.7-0.2,4.9,1.6
           C705.6,517.2,705.3,518.3,704.3,519.1z"/>
         <path fill="#9A8157" d="M269.8,699.1c14-0.5,27.7,1.3,41.6,2.7c6.1,0.6,12.2,1,18.3,1.1c15,0.2,30,0.4,44.9,0
           c22.2-0.6,44.2-2.5,66.1-6.5c11.5-2.1,23.2-3,34.9-4.4c14.3-1.7,28.5-3.4,42.8-4.9c11.3-1.2,22.7-2.1,34.1-3.1
           c3.2-0.3,6.5-1.8,9.7,0.1c-5.8,4.4-12.8,6.4-19.1,10c-42.8,4.9-85.6,8.9-128.4,14c-16.8,2-33.8,2.6-50.7,3.6
           c-14.3,0.8-28.5,1.1-42.8,2.6c-3.5,0.4-6.9,0.2-10.3-0.3C296.8,710.3,283,705.5,269.8,699.1z"/>
         <path fill="#A58C62" d="M100.7,527.1c7.5-0.1,14.6,2.7,22,3.4c10.5,1,21,1,31.4,0.1c5.1-0.4,10.2-0.5,15.3-1.3
           c7.8-1.2,15.9-0.6,23.8-1.3c12.1-1.1,24.2-0.8,36.4-0.9c17.9-0.2,35.7,2.4,53.6,2.8c20.4,0.4,39.9,5.8,59.8,9
           c8.1,1.3,16.5,2,24.7,2.2c13.7,0.3,27.5,0.4,41.2,0c15.1-0.4,30.1-1.8,44.4-7.1c9.4-3.5,19.1-5.2,29.2-4.9
           c14.8,0.4,29.6,0,44.5,0.1c13.6,0.1,27.2,1.5,40.8,1c15.6-0.5,31.1-0.9,46.5-4c7.8-1.5,14.8-5,21.8-8.3
           c8.7-4.2,17.6-6.4,27.2-6.9c12.9-0.7,25.7-1.9,38.6-2.8c2.1-0.2,4.3,0.1,6.5,0.1c-0.2,1.1,0,2.2-1.1,3c-5.9,2-12.1,1.7-18.2,2.2
           c-10.1,0.9-20.2,1.4-30.2,2.6c-10.6,1.2-20.4,4.8-29.9,9.2c-10.5,4.8-21.6,6.5-32.9,7.2c-35.8,2.3-71.6,0.8-107.4,0.9
           c-13.1,0-25.8,1.7-38.3,5.6c-13.6,4.3-27.6,5.4-41.7,6.7c-11.2,1-22.3,0.6-33.4,0.8c-18.9,0.3-37.4-2.6-55.8-6.7
           c-13.8-3-27.7-5.2-41.8-6.6c-18.1-1.7-36.2-2.3-54.3-1.6c-14.9,0.6-29.8,2.1-44.7,3.4c-23.3,2-46.7,5-70-0.6
           c-2.1-0.5-4.2-1.1-6-2.3C101.5,530.7,100.8,529,100.7,527.1z"/>
         <path fill="#A68F69" d="M310.9,714c12.8-2.1,25.7-2.2,38.5-3.1c18.8-1.2,37.6-2.3,56.4-3.7c17-1.3,33.8-3.9,50.7-5.4
           c17.1-1.5,34.1-3.9,51.1-5.8c10.3-1.1,20.7-2,31-3c1.6-0.2,3,0.3,4.3,1c-8,4.6-16.5,7.8-25.1,10.9c-9.3-1.8-18.4,0.9-27.6,1.5
           c-11,0.7-22,2.3-33,3.5c-11,1.2-22,2.5-33,3.7c-8.7,0.9-17.5,1.6-26.2,2.3c-18,1.4-36,1.7-53.8,4.9c-1.1,0.2-2.3,0.1-3.5,0.2
           C330.7,719.6,320.7,717.4,310.9,714z"/>
         <path fill="#AA926A" d="M705.8,516c-4.1-1.2-8.3-0.2-12.3,0.2c-14.6,1.6-29.4,1.8-43.8,5.1c-9.2,2.1-18,5.9-26.9,8.9
           c-9.3,3.2-19,4.1-28.8,4.9c-28.7,2.3-57.5-0.4-86.3,1.4c-13.7,0.9-27.6-0.8-41.1,1.6c-9.9,1.8-19.6,4.8-29.5,7
           c-12.4,2.8-25.1,4.1-37.8,5.1c-7.6,0.6-15.2,0.9-22.9,0.8c-20.3-0.2-40.3-2.6-60-7.3c-17.4-4.2-34.8-7.5-52.7-8.9
           c-19.3-1.5-38.4,0.3-57.5,2.2c-12.3,1.2-24.7,1.9-37.1,3.2c-12.1,1.3-24.1,2.2-36.2,1.9c-8.3-0.2-16.4-1.6-24.6-3.1
           c-1.2-0.2-2.3-1.2-3.5-1.9c-0.3-0.7-0.6-1.3-0.9-2c1.4-1.5,3.1-1.2,4.7-0.8c17.7,4.2,35.6,3.4,53.5,2c17.4-1.4,34.8-3,52.1-4.3
           c23.3-1.8,46.5-1,69.7,1.2c11.2,1.1,22.3,3.4,33.3,6c18.8,4.4,37.9,6.9,57.3,7c20.3,0.1,40.5-0.8,60.6-4.1
           c10.1-1.6,19.5-5.6,29.5-7.4c4.6-0.8,9.1-1.7,13.8-1.7c29.1-0.1,58.3,0.2,87.4,0c12.1-0.1,24.2-0.5,36.3-1.8
           c11.1-1.1,21.5-4,31.6-8.6c10.2-4.6,21-6.7,32.2-7.7c12.1-1.1,24.1-2.1,36.2-2.9c1.7-0.1,3.3-0.4,4.7,1
           C706.5,514,706.2,515,705.8,516z"/>
         <path fill="#B19B75" d="M131.6,584.2c6.6-2.7,13.7-2.3,20.5-3c16.6-1.8,33.3-2.9,50-4.1c6.6-0.5,13.3-0.7,19.9-0.9
           c15.4-0.3,30.8-1.6,46.2-2.4c17.2-1,34.4-2.2,51.5-4c16.3-1.7,32.5-3.2,48.8-5.5c11.9-1.7,24.2-2.7,36.2-2
           c15,0.9,29.9,0.7,44.9,0.6c21.6-0.2,43.1-1.6,64.7-2.1c13.7-0.3,27.5-1.3,41.2-1.9c20.9-1,41.7-2.2,62.6-3
           c13.9-0.5,27.8-1.3,41.7-2.1c7.8-0.4,15.6-0.6,23.4-0.7c1.7,0,3.7-0.7,5.1,1.2c-0.4,0.6-0.8,1.2-1.2,1.8
           c-21.6,0.7-43.1,1.8-64.7,2.8c-16.3,0.7-32.5,1.6-48.8,2.3c-18.2,0.9-36.5,1.8-54.7,2.6c-12.1,0.5-24.2,1.1-36.4,1.3
           c-26.1,0.5-52.2,1.7-78.3,2.2c-16.6,0.3-33.2,1.1-49.7,2.9c-18.6,2-37.3,2.9-56,4.6c-11.4,1.1-22.9,1.5-34.3,2.4
           c-20.5,1.5-41.1,2.2-61.6,3.6c-11.9,0.8-23.9,1.4-35.8,2.3c-10.1,0.8-20.1,1.9-30.1,3.1c-1,0.1-1.8,0.9-2.8,1.1
           C132.6,586.6,132,585.5,131.6,584.2z"/>
         <path fill="#A99168" d="M706.9,513c-8.1-1-16.2,0.6-24.2,1.3c-10,0.9-20.1,1.4-30,3.4c-7.6,1.5-14.8,3.9-21.7,7
           c-11.9,5.3-24.4,7.4-37.1,8.2c-22.7,1.5-45.6,1.2-68.3,1.1c-16.4-0.1-32.8-0.3-49.2,0.1c-11.3,0.3-22.1,4.2-33,7
           c-11.4,2.9-23.1,3.7-34.8,5.1c-11.5,1.4-22.9,0.6-34.4,0.8c-20.2,0.5-39.9-2.7-59.5-7.2c-14.3-3.4-28.8-5.7-43.5-6.9
           c-16.3-1.3-32.6-0.9-48.9-0.6c-13.2,0.3-26.3,2.8-39.5,3.6c-10.7,0.6-21.4,2.6-32.2,2.3c-5.6-0.2-11,1.1-16.8,0.6
           c-9.9-0.8-19.7-2.4-29.5-3.6c-0.5-1-1-1.9-1.4-2.9c7,0.1,13.6,2.6,20.5,3.3c10,0.9,20,0.7,29.9,0.4c9.6-0.3,19.1-2,28.6-2.8
           c24.3-1.8,48.7-4.3,73.1-2.9c15.3,0.8,30.7,1.7,45.9,4.5c20.3,3.8,40.4,9.3,61.1,10.1c14.6,0.6,29.2,0.7,43.9-0.5
           c13.2-1.1,26.4-2,39.3-5.3c9-2.3,17.7-5.5,27-6.6c2-0.2,4-0.4,5.9-0.4c32.5,0,65,0.1,97.5-0.1c15.1-0.1,30.1-1,44.8-5
           c5.8-1.6,11.1-4.4,16.6-6.8c11-4.7,22.7-6.4,34.4-7c12.1-0.6,24.1-2.7,36.2-2.1C707.2,511.7,707,512.4,706.9,513z"/>
         <path fill="#AF9871" d="M133.8,587.3c3.5-4.3,8.6-2.6,12.9-3.2c14.6-1.8,29.3-2.9,43.9-4.1c6.6-0.5,13.2-0.3,19.9-1
           c9.7-1,19.6-0.4,29.3-1.3c17.3-1.5,34.7-1.8,52-3.8c10.5-1.2,21.2-1.3,31.7-2.2c13.5-1.1,27-2.5,40.5-3.8
           c5.6-0.5,11.3-0.8,16.9-0.9c10.8-0.2,21.5-1.7,32.3-1.3c18.5,0.7,36.9-0.9,55.3-1.2c18.1-0.3,36.1-1.1,54.2-1.9
           c14.4-0.6,28.8-1.4,43.2-2c12.9-0.6,25.8-1.3,38.7-2c14.1-0.7,28.2-1.1,42.2-2.1c11.4-0.8,22.9,0,34.2-1.7c2-0.3,4-0.2,5.8,0.9
           c-0.2,0.4-0.3,0.8-0.5,1.1c-20.1,0.6-40.2,0.9-60.2,2c-11.9,0.7-23.8,1.3-35.7,1.9c-22.7,1.1-45.4,2.3-68.1,3.2
           c-13.4,0.5-26.8,1.2-40.2,1.6c-13.9,0.4-27.9,1-41.8,1.5c-11.5,0.4-23-0.2-34.4,0.8c-18.6,1.5-37.4,1.5-56,3.8
           c-11,1.3-22.2,1.3-33.2,2.2c-14.8,1.2-29.7,2.7-44.5,3.9c-5.4,0.4-10.9,0.5-16.4,0.9c-16,1.1-32.2,1.1-48.2,2.3
           c-19.1,1.4-38.3,2-57.4,4.7c-3.7,0.5-7.6,0.5-11.4,1.1c-1.7,0.3-3.3,0.4-4.1,2.3C134.1,588.8,133.9,588.1,133.8,587.3z"/>
         <path fill="#9D8256" d="M133.6,214.8c1.8,1.1,3.7,1.3,5.8,1.2c18.4-1.6,36.8-1.5,55.2-2.2c10.5-0.4,20.8-0.2,31.1,1.2
           c9.2,1.3,16.9,6,24,11.5c5.3,4,10.8,7.8,16.6,11c3.3,1.8,7.1,2.4,11,2.7c16,1.1,32,2.6,47.9,4.3c5.7,0.6,11.4,1.4,17.1,1.4
           c15.5,0,30.7,2.9,46.1,3.4c10.7,0.3,21.6,0.6,32.2,2c12.7,1.7,25.6,1.4,38.2,3.8c1,0.2,2,0.3,2.6,1.2c0.8,1.4-0.3,2.2-1.1,2.9
           c-1.6,1.4-2.6,3.6-5.1,3.8c-3.1,0.3-4.7,2.5-4.4,5.1c0.2,2.7,2.5,4.5,5.4,5c2.7,0.4,5.6,0.6,7.6,3.9c-10.4,3.6-20.6,5.2-31.4,5.1
           c-8.4-0.1-16.8-0.6-25.2,0.7c-5.4,0.9-10.7-0.4-16.2,0.1c-12.7,1.1-25.6,0.5-38.4,0.7c-8.4,0.1-17,0.6-25.6,0
           c-8.7-0.6-17.7,0.2-26.6,0.3c-40.2,0.4-80.3,0.4-120.5,0.1c-16.8-0.1-33.6,1.8-50.4,1c-9-0.5-18.2-0.9-26.7-4.7
           c-1.7-0.8-2.8-1.6-3-3.5c1.8-5.5,3.9-11,7-15.9c7.9,7.3,17.8,8.5,27.9,8.8c27.1,0.8,54.3-0.8,81.4-1.2c17.4-0.3,34.9-2.2,52.2-5
           c1.3-0.2,2.7-0.2,3.5-1.8c-1.4-1.8-3.7-2-5.7-2.6c-4.6-1.4-9.3-2.5-13.8-4.2c-6.8-2.7-10.7-7.3-11.6-14.8
           c-1.5-12.2-6.5-16.3-18.8-16.3c-22,0-44-0.1-66,0c-7.3,0-14.6,1.1-21.9,1.3c-2.2,0.1-4.4,0.5-5.8-1.8
           C129.6,220,131.4,217.3,133.6,214.8z"/>
         <path fill="#A2885E" d="M197,147.1c3.4,4.8,9.3,4.9,14.1,6.7c24.3,8.8,49,16.7,74.4,21.8c14.5,2.9,29.3,5.2,44.1,6.8
           c9.7,1.1,19.5,2.1,29.1,2.3c18.7,0.4,37.4,1.3,56.2-0.5c7.1-0.7,14.2-0.6,21.4-1.2c15-1.3,30-2.6,45-3.9
           c9.1-0.8,18.2-0.9,27.2-2.3c7.5-1.2,14.5-0.5,21.6,1.4c7,1.9,12.4,5.4,13.7,13.3c0.4,2.5-0.4,4.6-1,6.8
           c-0.9,3.7-2.1,7.4-2.7,11.1c-1.5,10-8.2,15.4-17,18.3c-4.8,1.6-9.9,2.4-15.2,2.4c-9-0.1-17.9,0.5-26.9,0.7
           c-2.8,0-5.6-0.7-8.4-0.7c-58.3,0-116.6,0-175-0.1c-5.7,0-11.2,1.1-16.9,1.1c-13.6,0.2-25.7-3.9-37.2-10.9
           c-8.5-5.2-17.8-8.1-27.8-8.2c-12-0.1-24.1-0.8-36,0.2c-11.8,1-23.6-0.3-35.3,1.6c-3.2,0.5-6.7,0.9-9.8-0.9c1-1.3,2-2.6,3.1-4
           c2.8-1.4,5.8-1.3,8.8-1.4c7-0.2,14-0.7,20.9-0.9c13.2-0.2,26.3-1.5,39.4-1.3c13,0.2,25.4,2.5,37.1,8.5
           c11.5,5.8,23.8,6.9,36.5,5.9c2.7-0.2,5.3-0.3,8-0.3c21,0,42,0,63,0c51.8-0.1,103.5,0.1,155.3,0c4.9,0,9.7-0.4,14.3-1.8
           c9-2.8,14.8-14.6,11.6-23.5c-1.4-3.8-4.7-5.1-8.1-5.9c-6.9-1.5-14-1.1-20.9-0.5c-22.2,1.9-44.4,3.9-66.6,5.9
           c-22.1,1.9-44.2,2-66.4,1.8c-38.2-0.4-75.6-5.8-112.5-15.7c-21.3-5.7-42.2-12.5-62.6-20.6c-2.7-1.1-6.3-1.5-6.9-5.5
           C191.2,151.1,194,148.9,197,147.1z"/>
         <path fill="#927445" d="M128.2,223c6.2,0.9,12.5-0.1,18.7-0.4c2.7-0.1,5.6-0.6,8.4-0.7c23,0,45.9,0,68.9,0
           c10.6,0,17.2,5.8,17.8,16.4c0.5,8.5,5,13.3,12.8,15.6c5.7,1.7,11.5,3.3,17.2,5.1c1.4,0.4,3.5,0.8,3.4,2.4c0,1.8-2,2.5-3.7,2.7
           c-6.4,1-12.7,2-19.1,2.7c-22.9,2.6-46,2.6-69,3.3c-17.1,0.6-34.2,0.4-51.3,0.6c-6.8,0.1-13.5-1.3-19.8-4.2
           c-2.6-1.2-5-2.7-5.5-5.9C112.9,247.6,119.9,234.9,128.2,223z"/>
         <path fill="#AE966F" d="M180.9,160.8c1.1-1.6,2.4-2.9,4.1-4c46,18.9,93.5,32.1,142.9,38.2c24.3,3,48.8,4.3,73.3,3.2
           c29.9-1.3,59.8-4,89.5-7.4c8.4-1,16.9-1.8,25.4-1.4c8.1,0.4,13.4,4,14.2,10c1,7.2-3.6,14.2-11,16.4c-3.7,1.1-7.5,1.7-11.3,1.7
           c-24.3,0-48.7,0.8-73-0.2c-29.8-1.3-59.6-0.9-89.4-0.6c-23.8,0.3-47.6,0.9-71.4,1.7c-11.6,0.4-22.7-1.9-33.5-6.7
           c-13.9-6.3-28.7-8-43.9-6.6c-10.9,1-22,0.2-32.9,1.3c-4.9,0.5-10,0.2-14.9,0.8c-2.8,0.4-6.1,1-8-2.3c0.7-1.6,1.6-3,3.1-4
           c9.1-1.3,18.2-1.7,27.3-1.9c19.5-0.4,39.2-3.8,58.6,1.4c2.7,0.7,5.6,1.3,8.1,2.6c14.7,7.5,30.4,8.5,46.3,7.3
           c13.3-1,26.6-0.9,39.8-2.9c1.8-0.3,3.7-0.2,5.9-1.6c-3.2-1.5-6.2-2-9.2-2.6c-25.8-5-51.5-10.6-76.9-17.8
           c-19.7-5.6-39-12.7-58.1-20.1C183.8,164.6,180.8,164.3,180.9,160.8z"/>
         <path fill="#B8A37F" d="M180.9,160.8c3.9,4.3,9.7,4.8,14.7,6.8c23.6,9.3,47.9,16.8,72.5,22.9c19.1,4.8,38.4,8.4,57.7,12.5
           c2.7,0.6,5.3,1.6,8.2,2.5c-2,3.1-5,3-7.3,3.3c-9,1-18.1,1.9-27.2,2.1c-8.8,0.2-17.5,1-26.3,1.3c-11.8,0.3-22.6-2.4-33.3-6.8
           c-14.2-5.9-29-7.7-44.3-5.5c-1.6,0.2-3.3,0.1-5,0.1c-12.9-0.1-25.8,0.5-38.7,1.9c-2.6,0.3-5.3,0.6-7.8-0.9
           c6-8.8,13.2-16.6,20.6-24.2C169.8,171.3,175.4,166.1,180.9,160.8z"/>
         <path fill="#AD966E" d="M140.9,205c1.3,0.3,2.6,1.2,3.8,1c9-1.7,18.2,0,27.3-1.7c1.6-0.3,3.3-0.1,5-0.2
           c7.8-0.4,15.6-0.1,23.4-0.7c14.2-1.1,28.2,1,41.2,7.1c15.8,7.4,32.4,7.5,49.2,5.9c1.2-0.1,2.3-0.2,3.5-0.2
           c42.6-1,85.2-1.9,127.8-0.8c29,0.8,57.9,0.4,86.9,0.6c6.5,0.1,13.4-0.4,17.7-6.9c2.5-3.8,3.6-8,1.5-12.2
           c-2.2-4.2-6.2-5.7-10.9-5.8c-13-0.3-25.8,1.7-38.6,2.8c-12.7,1-25.4,2.5-38.1,3.5c-23,1.7-46,3.5-69.1,2.7
           c-21.8-0.7-43.5-3-65.1-6.5c-33.2-5.4-65.3-14.4-97-25.5c-6.7-2.4-13.4-4.8-20.1-7.4c-1.7-0.7-4-1.1-4.3-3.7c1-1.4,2-2.8,3.9-3.1
           c6.4,5.1,14.3,6.8,21.7,9.5c29.3,10.7,59.3,19.1,90.1,24.4c11.9,2.1,23.9,3.2,35.9,4.5c22.2,2.4,44.5,2,66.7,1.8
           c18.9-0.2,37.7-1.8,56.5-3.8c12.8-1.4,25.8-1.8,38.6-3.2c7-0.8,13.9-0.8,20.9-0.9c1.6,0,3.3,0.2,4.9,0.6
           c12.1,2.6,11.8,7.3,10.4,16.5c-1.9,12.4-8.8,17.8-22.4,17.8c-42.5,0.1-85,0-127.4,0c-33.7,0-67.5-0.7-101.2,0.3
           c-16.2,0.5-31.1-1.2-45.6-8.6c-8.5-4.3-18-5.3-27.6-5.7c-14.5-0.6-28.9,0.7-43.3,1.4c-8.4,0.4-16.9-0.6-25.3,1.4
           c-1.1,0.3-2.6-0.5-3.8-0.8C138.6,207.4,139.5,206,140.9,205z"/>
         <path fill="#BCA885" d="M127.8,578.3c-6-8.3-11-17.2-15.6-26.4c1.6-1.4,3.5-0.8,5.3-0.6c17.6,2.3,35.3,1.1,52.8-0.4
           c22.1-1.9,44-5,66.1-7.1c22.4-2.2,44.6-0.3,65.9,8.1c3.2,1.3,7.5,2.1,7.2,6.5c-0.3,4.1-4.7,4.1-7.7,5.1
           c-6.7,2.2-13.8,2.2-20.8,2.6c-18.9,1.3-37.9,2.5-56.8,3.4c-27.3,1.3-54.5,2.8-81.6,6.4C137.6,576.6,132.5,576.3,127.8,578.3z"/>
         <path fill="#B8A37E" d="M127.8,578.3c0.5-2.9,3-3,5-3.2c11.7-1.2,23.4-2,35.1-3.2c15.8-1.6,31.7-2.5,47.6-3.2
           c11.1-0.4,22.2-0.9,33.2-1.9c17.8-1.7,35.7-1,53.3-4.9c2.5-0.6,6.6-0.3,6.7-3.7c0.1-3.2-3.7-3.6-6.3-4.7
           c-21.1-8.5-43.3-9.9-65.6-8.4c-15.5,1-30.8,4-46.2,5.6c-7.6,0.8-15.1,1.5-22.7,2.1c-12.2,1-24.5,1.2-36.8,1.2
           c-6.4,0-12.5-0.9-18.7-2.1c-1.3-1.4-1.9-3.1-2.4-4.9c14.3,2.7,28.8,2.4,43.2,1.8c13.7-0.6,27.3-2.4,41-3.7
           c10.7-1,21.4-2.1,32.1-3.2c7.7-0.7,15.5-1.9,23.2-1.9c22-0.2,43.3,4.8,64.4,10.7c8.3,2.3,16.6,4.7,24.9,6.9
           c1.6,0.5,3.8,0.9,3.7,2.8c-0.1,2.1-2.3,2.2-4.2,2.6c-17.1,3.3-34.3,4.8-51.7,6c-22.6,1.6-45.2,3.3-67.9,4
           c-15.4,0.5-30.8,1.4-46.1,3c-14.3,1.5-28.7,2-42.8,5C128.6,580.4,127.9,579.6,127.8,578.3z"/>
         <path fill="#9D8256" d="M607.1,186c-0.7,4.6-4.4,6.7-8.2,9c-10.2,6.1-21.7,5.1-32.7,7c-4.6,0.8-7.5,5.6-4.9,9.4
           c2.1,3.1,1.7,5.5-0.3,8.1c-3.7,4.8-5.7,10.4-7.2,16.3c-1.8,7.4-6.8,9.2-13.1,5.1c-2.2-1.4-4.3-3.2-6.2-4.9
           c-2-1.8-2.2-4.3-0.5-6.3c7.9-9.1,10.3-20.6,13.9-31.5c2-6,0.7-11.5-1.8-16.8c-4.2-8.8-3.2-11.1,6.1-14.5
           c10.9-4,22.5-5.1,33.8-7.7c2.5-0.6,5.2,0.1,6.7,2.4c4.5,7.3,8.2,15.2,13.9,21.8C607,183.9,606.9,184.9,607.1,186z"/>
         <path fill="#B09A75" d="M444.9,645c-8.3,0.8-18.1-1.7-27.9-2.8c-1.6-0.2-3.3-0.2-5-0.2c-18.3,0-36.7,0.1-55-0.1
           c-14.3-0.2-28.4-1.9-42.3-5c-2.7-0.6-5.4-1.8-7.9-3c-3.2-1.5-2.8-3.4,0.1-4.8c4.4-2.2,9.1-3.3,13.8-3.9c15.6-1.9,31.3-3.3,47-4.2
           c20.4-1.2,40.7-2.3,61.1-3c18.1-0.7,36.2-1.4,54.2-2c17.2-0.6,34.5-1.3,51.7-2c16.2-0.7,32.5-1,48.7-2.1
           c14.2-0.9,28.3-0.2,42.4-0.8c3.4-0.1,6.6,0.8,9.9,1.3c1.5,0.2,3.6,0.7,3.7,2.8c0.1,1.7-1.5,2.4-2.8,3.1c-8.8,5-18.7,6.8-28.5,8.7
           c-18.3,3.7-37,5.3-55.6,7.2c-16.4,1.7-32.8,4.3-49.2,5.7c-13.2,1.1-26.3,3.3-39.5,4.4C458.2,644.7,452.5,644.9,444.9,645z"/>
         <path fill="#8C724D" d="M376.8,697.2c-17.7-0.7-35.6-0.7-53.2-2.5c-12.3-1.3-24.6-2.3-36.9-4.3c-10.3-1.6-20.6-3.2-30.8-5.3
           c-7-1.5-12.6-5.2-17.7-10.1c-2.9-2.8-6.6-4.4-10.3-5.9c-1.5-0.6-3.1-1.2-4.6-2c-1.9-0.9-3.5-2.1-3.3-4.5c0.2-2.7,2.7-3,4.4-3.2
           c8.5-1.4,16.9-3,25.5-3.6c13-1,25.8,0.6,38.6,0.8c15.7,0.3,31.5,0.3,47.3,0.4c13.2,0.1,26.5,0.8,39.7-0.2
           c12.8-0.9,25.6-0.3,38.4-0.8c7.9-0.3,15.2,1.8,22.4,4.7c6.1,2.5,9.3,7.1,9,13.5c-0.2,5.3-2.9,9.9-7.5,12.7
           c-8.5,5.2-18.1,7.1-27.9,8.1C399,696.1,387.9,697.4,376.8,697.2z"/>
         <path fill="#886D46" d="M393.3,692.9c-8.8,0.5-17.6,1.7-26.4,1c-16.8-1.2-33.7-1.5-50.5-3.7c-11.3-1.5-22.7-2.5-33.8-5.2
           c-1.8-0.4-3.5-0.9-5.1-1.8c-1.7-0.9-4.3-1.2-4.3-3.6c0-2.6,2.4-3.7,4.4-5c5.2-3.3,11.3-3.7,17.1-4.6c9.9-1.6,20-2.7,29.9-4.5
           c5.6-1,11.2-0.6,16.8-1.3c11.8-1.4,23.8-1.2,35.7-2.4c12.2-1.2,24.4-1.2,36.6-2.6c6.3-0.7,13,0.1,18.4,4.4
           c5.8,4.7,6.4,11.2,1.6,17c-3.9,4.8-8.8,7.9-14.9,9.4C410.5,692,402,692.9,393.3,692.9z"/>
       </g>
     </g>
   </g>
 </svg>