<?xml version="1.0" encoding="utf-8"?>
<!-- Generator: Adobe Illustrator 17.1.0, SVG Export Plug-In . SVG Version: 6.00 Build 0)  -->
<!DOCTYPE svg PUBLIC "-//W3C//DTD SVG 1.1//EN" "http://www.w3.org/Graphics/SVG/1.1/DTD/svg11.dtd">
<svg version="1.1" id="space" xmlns="http://www.w3.org/2000/svg" xmlns:xlink="http://www.w3.org/1999/xlink" x="0px" y="0px"
	 viewBox="0 0 64 64" enable-background="new 0 0 64 64" xml:space="preserve">
<g>
	<g>
		<path fill="#444444" d="M36.8,7.6c4.8,0,8.5,1.2,11,3.7c2.5,2.5,3.7,6,3.7,10.5c0,4.5-1.2,8-3.7,10.5c-2.5,2.5-6.2,3.7-11,3.7
			H22.2v19.6h-6.4v-48H36.8z M34.7,30.6c3.6,0,6.3-0.7,8-2.2c1.7-1.5,2.5-3.7,2.5-6.6c0-2.9-0.8-5.1-2.5-6.6c-1.7-1.5-4.3-2.3-8-2.3
			H22.2v17.6H34.7z"/>
	</g>
	
		<ellipse transform="matrix(0.9581 -0.2866 0.2866 0.9581 -6.8902 10.436)" fill="none" stroke="#888888" stroke-width="2.2415" stroke-miterlimit="10" cx="32.2" cy="28.8" rx="31.3" ry="7.1"/>
	<g>
		<path fill="#444444" d="M22.2,36v0.6h-6.4v-29h21c4.8,0,8.5,1.2,11,3.7c2.5,2.5,3.7,6,3.7,10.5c0,1.7-0.2,3.2-0.5,4.6l-6.8-0.1
			c0.6-1.3,0.9-2.8,0.9-4.5c0-2.9-0.8-5.1-2.5-6.6c-1.7-1.5-4.3-2.3-8-2.3H22.2v17.6"/>
	</g>
	<circle fill="#353535" cx="8.1" cy="31.1" r="4.7"/>
</g>
</svg>
